<?xml version="1.0" encoding="UTF-8"?>
<svg id="Capa_2" data-name="Capa 2" xmlns="http://www.w3.org/2000/svg" viewBox="0 0 51.6 50.94">
  <defs>
    <style>
      .cls-1 {
        fill: #961c67;
      }

      .cls-1, .cls-2 {
        stroke-width: 0px;
      }

      .cls-2 {
        fill: #ffdcf4;
      }
    </style>
  </defs>
  <g id="Capa_1-2" data-name="Capa 1">
    <g>
      <path class="cls-2" d="m27.64,49.13c5.49,3.48,10.72,1.92,12.62-4.44,6.28-.7,9.24-5.71,7.54-12.16,5.39-5.92,5.2-13.97-1.56-18.29,1.59-4.25-.43-6.31-4.85-5.67-.18-5.02-2.88-7.37-7.32-5.16-3.1-4.99-7.89-4.22-11.79.5-6.1-1.51-11.48,1.36-13.22,7.88C2.33,14.07-.67,20.1,2.47,26.43c-3.65,3.03-3.25,6.03,1.16,7.51-1.83,4.87.83,7.77,5.97,8.01-.03,4.76,2.53,7.04,6.97,4.87,1.88,4.19,5.39,3.64,8.67-.59-.07,3.06-.11,6.41,2.39,2.9Z"/>
      <g>
        <path class="cls-1" d="m23.9,14.84c-2.14,3.49-5.39,8.78-9.55,9.89-.98.26-.82,1.51,0,1.83,2.8,1.13,5.09,4.79,6.72,7.14.91,1.32,1.57,2.96,3.19,3.47.25.08.64-.05.75-.31,1.05-2.44-1.45-5.22-2.89-7-1.97-2.44-4.2-4.32-7.27-5.13v1.83c3.03-1.24,5.35-3.36,7.38-5.9,1.06-1.33,3.23-3.58,3.07-5.45-.06-.73-1-1.06-1.41-.38h0Z"/>
        <path class="cls-1" d="m39.38,24.98c-4.04-.73-8.19-.79-12.29-.86s-8.75-.57-12.71.71c-.79.26-.84,1.42,0,1.66,3.87,1.09,8.15.4,12.15.35,4.2-.06,8.43.26,12.61-.09.93-.08,1.3-1.56.24-1.76h0Z"/>
      </g>
    </g>
  </g>
</svg>