<?xml version="1.0" encoding="UTF-8"?>
<svg id="Capa_2" data-name="Capa 2" xmlns="http://www.w3.org/2000/svg" viewBox="0 0 51.6 50.94">
  <defs>
    <style>
      .cls-1 {
        fill: #961c67;
      }

      .cls-1, .cls-2 {
        stroke-width: 0px;
      }

      .cls-2 {
        fill: #ffdcf4;
      }
    </style>
  </defs>
  <g id="Capa_1-2" data-name="Capa 1">
    <g>
      <path class="cls-2" d="m23.96,49.13c-5.49,3.48-10.72,1.92-12.62-4.44-6.28-.7-9.24-5.71-7.54-12.16-5.39-5.92-5.2-13.97,1.56-18.29-1.59-4.25.43-6.31,4.85-5.67.18-5.02,2.88-7.37,7.32-5.16,3.1-4.99,7.89-4.22,11.79.5,6.1-1.51,11.48,1.36,13.22,7.88,6.74,2.28,9.74,8.3,6.59,14.64,3.65,3.03,3.25,6.03-1.16,7.51,1.83,4.87-.83,7.77-5.97,8.01.03,4.76-2.53,7.04-6.97,4.87-1.88,4.19-5.39,3.64-8.67-.59.07,3.06.11,6.41-2.39,2.9Z"/>
      <g>
        <path class="cls-1" d="m26.29,15.22c-.16,1.86,2.02,4.14,3.07,5.45,2.03,2.53,4.35,4.66,7.38,5.9v-1.83c-3.07.81-5.3,2.69-7.27,5.13-1.43,1.78-3.94,4.57-2.89,7,.11.26.5.38.75.31,1.63-.51,2.28-2.15,3.19-3.47,1.63-2.35,3.92-6,6.72-7.14.82-.33.99-1.57,0-1.83-4.16-1.11-7.41-6.4-9.55-9.89-.41-.67-1.35-.35-1.41.38h0Z"/>
        <path class="cls-1" d="m12.46,26.73c4.18.35,8.42.03,12.61.09s8.28.74,12.15-.35c.84-.24.79-1.4,0-1.66-3.98-1.28-8.56-.78-12.71-.71s-8.25.13-12.29.86c-1.05.19-.7,1.68.24,1.76h0Z"/>
      </g>
    </g>
  </g>
</svg>