<svg width="440" height="547" viewBox="0 0 440 547" fill="none" xmlns="http://www.w3.org/2000/svg">
<path d="M179.741 206.144C183.533 205.42 185.74 200.298 184.672 194.705C183.603 189.113 179.662 185.166 175.87 185.891C172.079 186.616 169.871 191.737 170.94 197.33C172.009 202.923 175.949 206.869 179.741 206.144Z" fill="#951C67"/>
<path d="M268.157 189.236C271.949 188.511 274.156 183.39 273.087 177.797C272.018 172.204 268.078 168.258 264.286 168.983C260.494 169.707 258.287 174.829 259.356 180.422C260.425 186.014 264.365 189.961 268.157 189.236Z" fill="#951C67"/>
<path d="M307.719 146.268C316.779 180.388 314.679 218.998 295.519 249.448C283.509 268.508 264.629 284.308 242.369 289.458L240.109 289.928C238.669 290.088 236.669 290.368 235.249 290.298C230.129 290.398 224.329 289.248 219.379 287.978C213.719 286.488 207.929 284.318 202.549 281.968C181.019 272.418 161.839 258.038 144.879 241.848L147.369 241.928C144.039 244.598 139.989 246.428 135.769 246.988C122.979 249.028 110.729 239.648 106.969 227.738C101.349 212.168 110.019 192.218 127.619 190.608C128.119 190.568 128.169 191.298 127.699 191.348C119.909 192.288 113.209 197.608 109.949 204.638C103.219 218.408 109.709 237.338 124.369 242.658C131.299 245.208 139.389 243.838 144.969 239.008C145.709 238.388 146.789 238.438 147.459 239.088C158.129 248.798 169.509 257.668 181.789 265.178C191.479 271.118 201.869 276.308 212.669 279.908C217.799 281.678 223.629 283.078 229.019 283.768C230.379 283.868 231.749 283.978 233.099 284.048C233.649 284.018 235.529 284.008 236.079 283.988C236.859 283.938 238.139 283.698 238.899 283.628C249.079 281.438 258.419 276.378 266.599 269.998C293.619 248.938 307.159 214.678 308.409 180.988C308.969 169.528 308.349 157.948 306.969 146.398C306.939 146.188 307.089 146.008 307.299 145.978C307.489 145.958 307.659 146.078 307.709 146.258L307.719 146.268Z" fill="#951C67"/>
<path d="M131.309 238.298C131.309 238.298 131.219 238.358 131.179 238.388C131.479 238.278 131.829 238.258 132.219 238.298C131.849 238.188 131.539 238.178 131.309 238.298Z" fill="#951C67"/>
<path d="M132.219 238.298C135.749 239.348 142.369 251.088 139.309 252.418C136.179 253.778 128.449 240.278 131.179 238.388C131.129 238.408 131.069 238.418 131.019 238.438C125.999 240.908 132.409 261.868 141.979 257.168C150.789 252.838 137.559 238.928 132.219 238.298Z" fill="#951C67"/>
<path d="M220.689 191.868C221.169 194.778 221.809 197.598 221.699 200.568C221.589 203.538 220.399 205.908 219.779 208.728C219.119 211.768 220.739 213.838 223.359 215.138C229.559 218.228 240.639 218.778 242.219 209.868C242.639 207.498 241.499 203.938 238.549 204.088C235.439 204.238 236.549 207.398 235.369 209.278C234.129 211.258 227.869 212.108 226.159 210.328C224.449 208.548 226.069 205.918 226.329 203.698C226.859 199.188 226.329 194.418 223.899 190.518C222.789 188.738 220.359 189.958 220.679 191.878L220.689 191.868Z" fill="#951C67"/>
<path d="M258.499 223.798C255.409 226.068 253.069 227.188 249.139 227.278C245.749 227.348 242.379 227.298 239.069 228.168C235.369 229.138 232.119 231.188 228.719 232.868C224.609 234.898 221.519 235.368 217.039 235.348C216.069 235.348 215.239 236.538 215.859 237.408C221.859 245.788 233.859 235.508 240.499 233.338C246.529 231.368 258.949 233.518 259.579 224.418C259.609 223.908 258.939 223.488 258.509 223.808L258.499 223.798Z" fill="#951C67"/>
<path d="M154.369 173.598C156.519 168.758 160.599 165.378 165.329 163.098C169.069 161.298 174.449 161.318 177.359 158.168C179.229 156.138 178.469 152.798 175.729 152.008C170.589 150.528 163.789 154.818 159.819 157.818C154.849 161.558 153.019 167.028 152.269 173.038C152.129 174.128 153.919 174.598 154.359 173.608L154.369 173.598Z" fill="#951C67"/>
<path d="M169.249 80.6479C169.299 88.7379 172.389 96.7179 172.769 104.868C173.059 111.208 172.839 117.458 171.199 123.618C169.319 130.688 164.479 135.958 162.009 142.628C161.439 144.158 163.309 145.138 164.519 144.558C170.619 141.668 174.179 133.868 176.149 127.778C178.269 121.248 178.889 114.098 178.239 107.268C177.339 97.7079 173.709 89.3979 170.849 80.4279C170.579 79.5679 169.239 79.6979 169.249 80.6479Z" fill="#951C67"/>
<path d="M148.459 82.2978C147.869 96.2978 148.739 110.198 147.199 124.188C145.169 142.708 140.939 166.638 122.739 176.028C116.759 179.108 112.919 183.338 110.819 189.748C109.999 192.238 109.519 194.928 108.309 197.268C106.569 200.628 103.159 201.898 99.9788 203.558C98.4588 204.348 99.1788 206.768 100.839 206.748C106.349 206.668 111.109 203.758 113.739 198.898C116.369 194.038 116.489 188.708 120.319 184.788C124.149 180.868 130.049 179.248 134.169 175.338C137.619 172.068 140.379 168.078 142.549 163.868C152.269 145.008 152.829 122.108 151.959 101.358C151.689 94.9378 150.729 88.6678 150.099 82.2978C149.999 81.2678 148.509 81.2278 148.469 82.2978H148.459Z" fill="#951C67"/>
<path d="M185.569 83.038C190.219 98.608 192.329 116.798 187.589 132.528C187.139 134.008 189.079 135.068 190.139 134.008C196.219 127.978 194.799 116.138 193.999 108.438C193.109 99.818 191.589 89.918 186.769 82.528C186.379 81.928 185.349 82.288 185.569 83.038Z" fill="#951C67"/>
<path d="M211.709 75.4579C210.389 84.3179 213.129 94.1279 215.999 102.438C218.559 109.848 222.109 120.848 230.189 123.818C231.729 124.388 232.589 122.308 231.669 121.268C220.839 108.988 215.199 91.4879 212.979 75.4579C212.889 74.8279 211.799 74.8279 211.709 75.4579Z" fill="#951C67"/>
<path d="M198.479 77.9879C197.259 85.9179 199.889 94.5479 202.239 102.038C204.589 109.528 206.839 119.058 212.329 124.858C213.419 126.008 215.209 124.798 214.879 123.378C213.099 115.678 208.809 108.428 206.169 100.958C203.529 93.4879 200.949 85.8479 199.739 77.9879C199.639 77.3579 198.569 77.3579 198.469 77.9879H198.479Z" fill="#951C67"/>
<path d="M143.839 49.018C133.919 48.698 125.359 50.268 116.289 54.508C107.219 58.748 99.2088 64.798 92.5688 72.358C78.3688 88.508 71.8788 109.858 70.1988 130.988C69.2488 142.958 69.9088 154.958 71.4288 166.848C72.9488 178.738 75.4688 190.318 74.5688 201.998C73.5188 215.618 66.5988 231.918 75.8088 244.018C80.7388 250.498 87.8388 254.828 94.0788 259.908C101.209 265.708 106.179 272.288 110.149 280.548C110.819 281.948 112.949 281.208 112.959 279.788C113.039 265.348 98.5888 256.338 88.8988 247.928C84.3388 243.968 79.2688 239.278 78.2588 233.008C77.1188 225.938 79.5188 217.818 80.5388 210.848C83.5188 190.668 78.1288 171.098 77.1688 150.958C76.1388 129.288 79.0988 106.578 90.4288 87.688C101.759 68.798 121.499 53.398 143.839 51.608C145.489 51.478 145.529 49.068 143.839 49.008V49.018Z" fill="#951C67"/>
<path d="M100.639 238.658C101.939 243.938 103.759 248.288 107.799 252.028C110.709 254.728 114.149 256.608 116.279 260.078C123.179 271.318 115.039 287.088 107.539 295.918C106.329 297.338 107.439 300.228 109.569 299.408C121.739 294.728 130.989 284.438 133.479 271.488L129.659 270.968C129.859 276.648 129.579 282.648 130.669 288.238C131.519 292.558 135.379 292.518 139.219 291.648C148.849 289.478 160.239 279.768 159.799 269.218C159.669 266.178 155.049 266.138 155.039 269.218C155.019 275.388 161.309 280.558 165.939 283.798C166.759 284.368 167.829 284.198 168.659 283.798C173.639 281.388 188.339 272.718 180.209 266.138C178.189 264.498 174.389 266.698 176.239 269.198C178.909 272.798 168.639 277.818 165.939 279.158H168.659C164.919 276.598 160.809 273.138 159.709 268.598L155.119 269.858C157.099 277.388 144.429 285.778 138.529 287.278C137.379 287.568 134.319 287.528 135.119 288.298C134.379 287.578 134.569 284.318 134.469 283.318C134.079 279.208 133.829 275.088 133.539 270.968C133.399 268.938 130.079 268.148 129.719 270.448C127.869 282.148 119.929 291.928 108.449 295.378L110.479 298.868C118.869 290.308 125.699 275.478 122.499 263.328C121.259 258.608 118.349 254.948 114.539 252.028C109.359 248.048 105.629 243.698 102.549 237.848C101.979 236.768 100.349 237.528 100.629 238.658H100.639Z" fill="#951C67"/>
<path d="M143.839 49.018C133.919 48.698 125.359 50.268 116.289 54.508C107.219 58.748 99.2088 64.798 92.5688 72.358C78.3688 88.508 71.8788 109.858 70.1988 130.988C69.2488 142.958 69.9088 154.958 71.4288 166.848C72.9488 178.738 75.4688 190.318 74.5688 201.998C73.5188 215.618 66.5988 231.918 75.8088 244.018C80.7388 250.498 87.8388 254.828 94.0788 259.908C101.209 265.708 106.179 272.288 110.149 280.548C110.819 281.948 112.949 281.208 112.959 279.788C113.039 265.348 98.5888 256.338 88.8988 247.928C84.3388 243.968 79.2688 239.278 78.2588 233.008C77.1188 225.938 79.5188 217.818 80.5388 210.848C83.5188 190.668 78.1288 171.098 77.1688 150.958C76.1388 129.288 79.0988 106.578 90.4288 87.688C101.759 68.798 121.499 53.398 143.839 51.608C145.489 51.478 145.529 49.068 143.839 49.008V49.018Z" fill="#951C67"/>
<path d="M100.639 238.658C101.939 243.938 103.759 248.288 107.799 252.028C110.709 254.728 114.149 256.608 116.279 260.078C123.179 271.318 115.039 287.088 107.539 295.918C106.329 297.338 107.439 300.228 109.569 299.408C121.739 294.728 130.989 284.438 133.479 271.488L129.659 270.968C129.859 276.648 129.579 282.648 130.669 288.238C131.519 292.558 135.379 292.518 139.219 291.648C148.849 289.478 160.239 279.768 159.799 269.218C159.669 266.178 155.049 266.138 155.039 269.218C155.019 275.388 161.309 280.558 165.939 283.798C166.759 284.368 167.829 284.198 168.659 283.798C173.639 281.388 188.339 272.718 180.209 266.138C178.189 264.498 174.389 266.698 176.239 269.198C178.909 272.798 168.639 277.818 165.939 279.158H168.659C164.919 276.598 160.809 273.138 159.709 268.598L155.119 269.858C157.099 277.388 144.429 285.778 138.529 287.278C137.379 287.568 134.319 287.528 135.119 288.298C134.379 287.578 134.569 284.318 134.469 283.318C134.079 279.208 133.829 275.088 133.539 270.968C133.399 268.938 130.079 268.148 129.719 270.448C127.869 282.148 119.929 291.928 108.449 295.378L110.479 298.868C118.869 290.308 125.699 275.478 122.499 263.328C121.259 258.608 118.349 254.948 114.539 252.028C109.359 248.048 105.629 243.698 102.549 237.848C101.979 236.768 100.349 237.528 100.629 238.658H100.639Z" fill="#951C67"/>
<path d="M222.859 72.4978C224.259 87.3578 233.499 101.688 244.959 110.838C252.099 116.538 260.219 120.778 268.859 123.708C278.019 126.818 290.819 130.568 300.339 127.588C301.889 127.098 301.779 125.078 300.339 124.548C295.529 122.768 290.339 122.838 285.309 122.048C280.689 121.318 276.119 120.258 271.669 118.838C263.349 116.188 255.419 112.168 248.479 106.868C236.689 97.8678 228.909 86.3478 224.519 72.2878C224.249 71.4278 222.769 71.5278 222.869 72.5078L222.859 72.4978Z" fill="#951C67"/>
<path d="M125.969 205.218C144.559 202.278 145.659 182.198 149.739 167.738C152.239 158.848 156.599 150.558 159.479 141.788C162.909 131.388 166.839 116.938 162.869 106.298C162.359 104.918 160.239 104.678 159.829 106.298C158.399 111.858 158.819 117.638 158.109 123.308C157.439 128.658 156.179 133.938 154.569 139.078C151.969 147.358 148.129 155.178 145.489 163.438C140.639 178.628 143.709 196.958 125.539 203.588C124.509 203.968 124.919 205.378 125.989 205.208L125.969 205.218Z" fill="#951C67"/>
<path d="M159.599 57.6379C171.409 36.6279 194.929 23.5079 219.059 25.0979C243.029 26.6779 268.459 36.0279 288.139 49.7079C299.139 57.3579 308.649 67.5479 315.059 79.3279C318.879 86.3479 321.649 93.9179 322.289 101.928C322.929 109.878 321.939 117.838 321.889 125.778C321.799 138.938 325.399 149.758 333.519 160.028C340.079 168.328 349.089 175.448 353.999 184.918C357.159 190.998 354.579 195.708 352.019 201.508C349.459 207.308 346.949 213.738 347.759 220.298C349.329 232.998 361.099 244.078 372.049 249.428L373.559 243.848C362.119 244.388 351.439 238.878 345.419 229.088C343.649 226.218 338.999 228.058 339.919 231.408C341.519 237.268 339.109 244.208 335.599 248.918L338.199 247.428C331.299 247.358 321.599 246.278 319.789 238.248C319.349 236.298 317.039 235.608 315.419 236.468C308.719 240.038 308.849 247.778 311.819 253.918L314.369 249.478C311.569 249.748 291.059 251.388 292.009 248.318C292.479 246.808 290.189 245.828 289.439 247.238C284.349 256.838 310.059 255.778 314.369 255.378C316.679 255.158 317.929 253.058 316.919 250.938C315.369 247.698 314.789 243.518 318.419 241.598L314.049 239.818C316.259 249.798 326.769 252.898 335.819 253.378C340.989 253.648 342.629 249.908 344.349 245.388C346.199 240.508 347.119 234.898 345.719 229.798L340.219 232.118C347.319 243.628 360.009 250.468 373.559 249.828C376.309 249.698 377.909 245.628 375.069 244.248C363.419 238.578 350.749 226.168 354.349 212.108C357.049 201.558 364.889 193.368 359.349 182.368C354.439 172.608 345.299 165.298 338.519 156.898C334.539 151.968 330.969 146.538 329.269 140.378C326.969 132.038 327.669 123.318 327.989 114.778C328.569 99.3079 325.729 85.6779 317.399 72.4779C310.459 61.4779 301.029 52.0279 290.219 44.8179C270.219 31.4979 244.919 22.7079 220.909 20.9679C195.419 19.1279 168.519 32.8479 157.059 56.1479C156.229 57.8379 158.669 59.3079 159.599 57.6379Z" fill="#951C67"/>
<path d="M143.599 60.6978C154.439 42.0878 174.699 28.6578 196.609 28.2378C217.299 27.8378 239.109 35.2278 257.389 44.4078C277.829 54.6778 296.119 71.1078 303.679 93.2678C310.849 114.278 298.249 137.288 307.249 158.018C310.549 165.638 316.269 171.668 321.379 178.078C328.849 187.448 333.549 198.248 337.559 209.478C338.059 210.878 340.409 210.778 340.319 209.108C339.709 197.788 335.919 187.978 329.359 178.768C324.569 172.048 318.539 166.168 314.439 158.968C308.759 148.978 309.669 137.588 310.639 126.538C311.709 114.338 313.239 101.938 308.869 90.1978C300.519 67.7478 282.539 50.8478 261.469 40.2178C242.179 30.4878 219.569 23.0878 197.739 23.5578C174.919 24.0578 150.919 38.3378 141.049 59.1978C140.249 60.8878 142.629 62.3478 143.589 60.6878L143.599 60.6978Z" fill="#951C67"/>
<path d="M237.539 67.5079C234.039 84.6379 257.359 97.8279 269.759 103.818C279.809 108.668 290.469 112.408 301.349 114.868C309.659 116.748 319.879 119.118 328.139 116.018C329.219 115.608 329.099 113.988 327.859 113.948C308.879 113.448 291.119 109.508 273.729 101.718C260.789 95.9179 237.369 84.9979 238.649 67.6579C238.699 67.0279 237.669 66.8879 237.549 67.5079H237.539Z" fill="#951C67"/>
<path d="M278.019 146.538C275.099 141.288 271.459 136.948 265.489 135.308C260.689 133.988 253.519 132.788 249.069 135.478C246.179 137.228 246.969 141.278 249.969 142.328C253.749 143.658 258.079 142.028 262.019 142.248C267.169 142.538 272.519 144.268 276.259 147.888C277.179 148.778 278.649 147.648 278.019 146.528V146.538Z" fill="#951C67"/>
<path d="M132.209 119.238C130.179 135.208 124.729 152.748 114.099 165.088C113.209 166.128 114.029 168.228 115.579 167.638C123.619 164.568 127.049 153.548 129.519 146.108C132.289 137.768 134.919 127.908 133.489 119.068C133.359 118.268 132.279 118.578 132.199 119.238H132.209Z" fill="#951C67"/>
<path d="M169.599 237.878C170.429 236.038 171.379 234.328 172.549 232.668C173.999 230.608 173.979 229.138 175.279 233.488C175.679 234.838 175.659 236.768 177.249 237.398C180.769 238.798 185.519 229.528 187.589 227.968L184.829 226.848C185.339 230.378 185.249 234.988 189.549 235.888C192.819 236.568 195.209 234.308 196.379 231.508C196.719 230.698 195.729 229.798 194.949 230.078C193.249 230.678 192.149 231.788 190.509 230.708C188.869 229.628 188.899 227.628 188.439 225.868C188.059 224.408 186.339 224.168 185.299 225.038C184.029 226.108 182.979 227.228 181.959 228.538C180.819 230.008 179.439 233.308 177.869 234.218C179.119 234.728 179.279 234.218 178.329 232.658C178.109 231.968 177.849 231.288 177.559 230.618C177.179 229.778 176.599 228.278 175.679 227.738C171.119 225.078 168.749 234.508 168.179 237.288C168.009 238.098 169.219 238.738 169.599 237.888V237.878Z" fill="#F379AA"/>
<path d="M292.379 210.218C290.709 207.988 284.489 200.328 281.499 204.608C280.969 205.378 281.009 206.428 280.979 207.318C280.939 208.288 281.069 209.218 281.149 210.178C281.189 210.538 281.259 210.908 281.349 211.258C281.589 212.328 281.579 212.418 281.339 211.538C280.259 211.198 277.969 209.068 276.639 208.348C274.949 207.438 273.309 206.758 271.449 206.268C269.989 205.878 268.879 207.198 269.139 208.578C269.289 209.388 270.139 211.978 269.939 212.768C269.409 214.848 266.769 214.808 265.219 214.968C264.299 215.058 263.579 216.218 264.399 216.958C266.729 219.078 270.259 220.058 272.829 217.638C275.789 214.858 273.749 210.798 272.759 207.578L270.449 209.888C274.079 210.648 276.799 212.758 280.159 214.108C281.289 214.558 282.609 215.228 283.779 214.398C284.639 213.788 284.639 212.918 284.739 211.968C284.849 210.908 283.009 207.378 285.179 207.068C286.399 206.898 290.469 210.558 291.169 211.148C291.789 211.678 292.959 210.958 292.389 210.208L292.379 210.218Z" fill="#F379AA"/>
<path d="M162.059 189.088C162.339 189.138 162.979 189.258 163.239 189.308C163.869 189.308 164.529 189.308 165.159 189.168C169.719 188.088 173.029 183.648 178.329 184.188C182.139 184.818 185.889 190.028 183.829 193.708C183.729 193.878 183.459 193.858 183.379 193.678C182.779 192.588 182.129 191.918 181.409 191.338C180.539 190.608 179.509 189.968 178.549 189.318C177.419 188.528 176.689 187.968 175.049 188.268C171.179 189.108 165.889 192.138 161.879 189.488C161.649 189.358 161.819 188.998 162.069 189.078L162.059 189.088Z" fill="#951C67"/>
<path d="M280.869 166.408C279.509 168.368 276.969 169.298 274.659 169.568C271.719 170.138 268.179 169.258 266.179 171.178C265.209 172.478 264.199 173.928 263.389 175.328C262.929 176.138 262.579 177.008 262.419 178.248C262.399 178.438 262.169 178.538 262.019 178.428C259.279 176.248 260.059 171.778 261.819 169.218C263.059 167.258 265.899 166.498 267.849 166.558C271.779 166.518 274.809 168.018 278.449 167.158C278.799 167.038 279.179 166.868 279.529 166.738L279.859 166.528L280.539 166.098L280.569 166.078C280.769 165.948 281.019 166.218 280.869 166.408Z" fill="#951C67"/>
<path d="M219.649 239.758C220.999 245.138 225.759 248.848 231.129 249.978C236.059 251.018 247.179 250.268 250.589 246.218C251.449 245.198 251.149 243.678 249.809 243.258C245.639 241.948 240.639 244.548 236.369 244.968C230.259 245.568 223.829 245.218 220.239 239.508C220.049 239.198 219.559 239.398 219.649 239.758Z" fill="#951C67"/>
<path d="M230.519 252.018C232.279 252.608 234.419 253.018 236.419 252.168C237.969 251.508 238.999 251.478 240.679 251.548C242.359 251.618 244.029 251.548 245.709 251.398C248.949 251.088 250.429 247.308 250.989 245.728C251.209 245.108 251.229 244.328 250.759 243.868C250.539 243.648 250.239 243.528 249.939 243.448C247.959 242.888 244.399 246.348 242.429 246.938C239.389 247.848 236.219 248.338 233.039 248.408C232.229 248.428 231.419 248.408 230.609 248.378C229.899 248.348 226.149 245.908 225.459 246.048C224.069 246.338 225.779 247.998 226.389 248.518C227.529 249.508 228.749 251.428 230.529 252.018H230.519Z" fill="#951C67"/>
<path d="M23.3088 271.668C26.9788 285.038 27.9188 298.968 29.1188 312.788C33.2088 359.948 40.4688 406.768 48.7988 453.338C50.8788 464.988 53.0388 476.638 55.2188 488.278C56.7788 496.568 56.5388 505.278 59.0588 513.378C62.5388 524.548 68.4288 522.898 78.9188 522.568C167.619 519.798 255.909 516.888 344.309 508.798C354.589 507.858 364.869 506.868 375.129 505.648C384.679 504.518 387.239 506.538 388.319 496.028C395.969 421.328 407.799 346.008 407.829 270.818C392.209 265.178 371.739 267.238 355.379 266.908C327.759 266.348 300.129 266.338 272.509 266.468C206.059 266.778 139.599 268.008 73.1788 270.198C56.6788 270.738 40.1888 271.358 23.6988 272.098" fill="#FFF2FC"/>
<path d="M21.6988 272.108C25.1388 286.088 25.9688 300.438 27.0788 314.748C28.1888 329.058 29.6588 343.528 31.3588 357.878C34.6688 385.878 38.7688 413.778 43.4188 441.588C45.7588 455.538 48.2288 469.468 50.7888 483.378C52.0788 490.418 52.7588 497.428 53.6788 504.508C54.3488 509.728 55.2388 515.338 58.0188 519.918C62.3888 527.088 70.1988 526.518 77.5788 526.238C91.9088 525.708 106.259 525.418 120.599 524.988C178.059 523.258 235.509 521.068 292.869 517.058C320.769 515.108 348.559 512.388 376.399 509.688C382.969 509.048 389.399 509.228 391.589 501.718C393.189 496.218 393.129 489.978 393.739 484.328C394.509 477.168 395.309 470.018 396.129 462.858C403.409 399.028 411.919 335.168 412.039 270.808C412.039 268.868 410.719 267.358 408.949 266.758C398.629 263.218 387.589 262.628 376.759 262.588C365.929 262.548 354.629 262.648 343.549 262.478C317.879 262.088 292.209 262.128 266.529 262.268C214.689 262.568 162.859 263.418 111.039 264.868C81.8888 265.688 52.8088 267.178 23.6988 268.758C19.4588 268.988 19.4088 275.538 23.6988 275.388C125.589 271.818 227.779 269.778 329.729 270.728C343.139 270.848 356.539 271.188 369.959 271.038C382.309 270.898 394.889 270.808 406.709 274.858L403.619 270.808C403.529 325.298 397.439 379.488 391.139 433.538C389.549 447.218 387.939 460.888 386.429 474.568C385.709 481.068 385.029 487.568 384.339 494.068C383.979 497.428 384.509 500.458 381.499 500.918C356.869 504.638 331.539 505.908 306.709 507.818C252.019 512.038 197.209 514.558 142.399 516.658C128.849 517.178 115.299 517.668 101.739 518.138C95.1188 518.368 88.5088 518.598 81.8888 518.828C77.7188 518.968 72.7688 519.868 68.6088 519.108C64.4488 518.348 63.0088 514.528 61.9688 510.678C60.2188 504.238 60.0888 497.488 59.1388 490.918C57.1788 477.388 54.1288 463.948 51.6488 450.508C46.1588 420.808 41.0088 391.028 36.9388 361.088C34.8388 345.678 33.0188 330.218 31.4888 314.738C30.0388 300.098 28.9388 285.418 24.9088 271.218C24.3188 269.148 21.1788 270.018 21.6888 272.108H21.6988Z" fill="#951C67"/>
<path d="M24.8287 271.308C22.6987 281.428 31.3587 290.308 39.2587 296.978C96.2987 345.098 160.709 296.898 222.179 339.208C268.789 290.048 352.569 310.008 407.839 270.818" fill="#FFF2FC"/>
<path d="M23.7888 270.698C15.0388 283.088 31.9788 297.208 40.7288 303.988C52.6788 313.248 66.8488 319.398 81.6588 322.328C110.549 328.048 140.019 322.678 169.129 325.448C187.419 327.188 204.549 332.998 219.839 343.228C221.509 344.348 224.129 343.928 225.489 342.498C243.649 323.438 268.689 314.918 293.819 309.498C319.609 303.928 346.069 301.188 371.329 293.308C385.259 288.958 399.539 283.178 410.949 273.908C414.849 270.738 409.839 264.548 405.649 267.048C394.219 273.868 382.889 279.798 370.159 283.878C357.429 287.958 344.439 290.648 331.369 293.058C305.479 297.828 278.929 301.278 254.549 311.728C241.159 317.468 229.069 325.448 218.899 335.908L224.549 335.178C199.859 318.328 171.329 314.828 142.129 315.298C114.859 315.738 86.2188 318.218 60.9588 305.748C46.2088 298.468 31.0588 287.288 25.9988 270.988C25.6788 269.938 24.3888 269.858 23.7888 270.698Z" fill="#951C67"/>
<path d="M41.0887 381.088C45.1487 376.258 48.0287 370.458 49.4287 364.308C49.7587 362.848 50.0087 361.328 49.7087 359.868C49.4087 358.408 48.4687 356.988 47.0487 356.508C44.9087 355.778 42.7087 357.338 41.0387 358.868C35.9587 363.488 31.4387 368.718 27.5887 374.398C25.1587 377.998 22.9387 382.588 24.7887 386.528C25.6287 388.318 27.2287 389.698 27.8787 391.568C29.3887 395.888 25.3387 401.068 27.6787 404.998C28.0287 405.578 28.4987 406.098 28.7287 406.738C29.3087 408.418 27.9687 410.378 28.6987 411.998C29.2387 413.178 30.6687 413.678 31.3987 414.758C32.5887 416.498 31.5087 418.938 32.1387 420.948C32.7387 422.838 34.7987 423.978 36.7787 424.058C38.7587 424.138 40.6787 423.388 42.4687 422.548C45.2187 421.258 47.8987 419.708 50.0387 417.558C52.1787 415.408 53.7587 412.578 53.9687 409.548C54.0387 408.508 53.9287 407.398 53.3587 406.528C52.4387 405.128 50.5287 404.678 48.8887 405.008C47.2487 405.338 45.8187 406.288 44.4287 407.218C45.9587 406.248 47.4787 405.278 49.0087 404.308C50.3887 403.428 51.8387 402.478 52.5387 400.998C53.2987 399.388 52.9387 397.318 51.6887 396.058C50.4287 394.798 48.3587 394.438 46.7487 395.188C52.5587 392.198 58.2587 387.428 59.0587 380.938C59.1187 380.438 59.1487 379.908 58.9287 379.458C58.5687 378.708 57.6787 378.398 56.8787 378.208C50.0387 376.598 42.4487 378.708 37.4087 383.598" fill="#FFF2FC"/>
<path d="M41.6988 381.698C45.3988 377.528 57.8588 358.678 47.3988 355.248C42.4288 353.618 37.4288 360.358 34.6188 363.368C30.2788 368.018 24.8988 373.668 23.0988 379.928C22.4088 382.318 22.3888 384.818 23.3888 387.118C24.0088 388.548 25.2788 389.618 25.9188 391.008C27.1188 393.618 26.3688 396.088 25.8588 398.718C25.4788 400.668 25.1788 402.618 25.8588 404.538C26.4688 406.258 27.1488 407.268 27.2388 409.198C27.2988 410.338 26.8988 411.218 27.3388 412.368C27.6688 413.228 28.4688 413.698 28.9988 414.398C30.2888 416.098 30.2988 417.078 30.5388 419.048C30.7788 421.018 30.9588 422.578 32.6088 423.948C36.5388 427.228 42.1488 424.558 45.9188 422.398C50.8288 419.588 56.4988 414.068 55.3188 407.778C54.1388 401.488 47.3388 403.618 43.7288 405.998C42.2188 406.988 43.6188 409.418 45.1488 408.428C48.6388 406.158 54.8188 403.558 54.1588 398.398C53.6588 394.478 49.8588 393.018 46.4188 393.958L47.4088 396.298C51.3388 394.238 55.2088 391.628 57.8488 387.988C59.6688 385.478 62.1788 380.618 59.6688 377.878C57.1588 375.138 51.2988 375.498 48.1188 375.958C43.4788 376.638 38.5788 378.698 36.0788 382.808C35.2188 384.228 36.8788 385.558 38.1988 384.928C40.9688 383.608 43.3888 381.738 46.3288 380.748C48.4488 380.038 54.4788 378.258 56.4388 379.808C58.9788 381.818 55.1788 386.798 53.7888 388.358C51.6488 390.778 48.9088 392.518 46.1088 394.068C44.8388 394.768 45.6988 396.818 47.0988 396.408L49.3788 402.448C48.7788 402.838 48.1788 403.218 47.5688 403.588C46.2888 404.388 45.0088 405.178 43.7288 405.968L45.1488 408.398L46.5588 407.488L52.3888 410.628C52.7388 411.888 50.6888 414.488 49.8888 415.478C48.0688 417.708 45.6788 419.318 43.1188 420.608C41.9288 421.208 40.6188 421.928 39.3188 422.238C36.1688 422.998 34.3488 421.518 33.3588 418.368C32.9588 417.098 33.4688 415.848 32.8488 414.578C31.7488 412.318 30.5088 410.998 30.2688 408.398C30.1688 407.338 30.0188 406.518 29.7688 405.518C29.0288 402.628 28.6488 400.508 29.2488 397.398C29.5488 395.838 29.8888 394.258 29.6688 392.648C29.4788 391.198 28.9088 390.058 28.1388 388.828C25.7688 384.998 25.1188 382.168 27.2088 378.008C29.6488 373.148 33.4288 368.548 37.0988 364.588C38.6088 362.958 40.9088 359.818 42.9588 359.018C43.9988 357.728 45.0988 357.988 46.2488 359.788C48.2888 360.128 48.9988 361.078 48.3888 362.618C48.4088 363.788 47.9388 365.098 47.6188 366.218C46.1288 371.398 43.5488 376.288 40.3788 380.618C39.8088 381.398 41.0788 382.378 41.7188 381.658L41.6988 381.698Z" fill="#951C67"/>
<path d="M36.939 398.818C38.359 397.028 40.269 395.628 42.409 394.808L36.939 398.818Z" fill="#FFF2FC"/>
<path d="M37.2588 399.368C38.3188 398.728 39.2988 398.048 40.3388 397.368C41.3788 396.688 42.3088 396.118 43.0288 395.168C43.2988 394.818 43.0288 394.178 42.5988 394.108C41.1688 393.868 39.8688 394.458 38.7588 395.328C37.5488 396.278 36.8288 397.208 36.3088 398.648C36.1188 399.188 36.7988 399.648 37.2488 399.368H37.2588Z" fill="#951C67"/>
<path d="M401.349 381.088C397.289 376.258 394.409 370.458 393.009 364.308C392.679 362.848 392.429 361.328 392.729 359.868C393.029 358.408 393.969 356.988 395.389 356.508C397.529 355.778 399.729 357.338 401.399 358.868C406.479 363.488 410.999 368.718 414.849 374.398C417.279 377.998 419.499 382.588 417.649 386.528C416.809 388.318 415.209 389.698 414.559 391.568C413.049 395.888 417.099 401.068 414.759 404.998C414.409 405.578 413.939 406.098 413.709 406.738C413.129 408.418 414.469 410.378 413.739 411.998C413.199 413.178 411.769 413.678 411.039 414.758C409.849 416.498 410.929 418.938 410.299 420.948C409.699 422.838 407.639 423.978 405.659 424.058C403.679 424.138 401.759 423.388 399.969 422.548C397.219 421.258 394.539 419.708 392.399 417.558C390.259 415.408 388.679 412.578 388.469 409.548C388.399 408.508 388.509 407.398 389.079 406.528C389.999 405.128 391.909 404.678 393.549 405.008C395.189 405.338 396.619 406.288 398.009 407.218C396.479 406.248 394.959 405.278 393.429 404.308C392.049 403.428 390.599 402.478 389.899 400.998C389.139 399.388 389.499 397.318 390.749 396.058C392.009 394.798 394.079 394.438 395.689 395.188C389.879 392.198 384.179 387.428 383.379 380.938C383.319 380.438 383.289 379.908 383.509 379.458C383.869 378.708 384.759 378.398 385.559 378.208C392.399 376.598 399.989 378.708 405.029 383.598" fill="#FFF2FC"/>
<path d="M402.089 380.658C399.069 376.538 396.569 371.898 395.059 367.008C394.749 366.008 394.449 364.988 394.249 363.958L393.889 361.338L398.519 358.288C400.209 358.418 403.559 362.728 404.759 363.988C408.519 367.948 412.229 372.458 414.829 377.288C417.029 381.378 417.119 384.088 414.729 388.228C413.849 389.748 413.029 390.878 412.789 392.668C412.609 394.018 412.829 395.388 413.079 396.718C413.649 399.868 413.809 401.998 412.919 405.088C412.579 406.278 412.329 406.938 412.159 408.228C411.949 409.878 412.539 409.298 411.689 411.298C411.199 412.458 410.299 413.008 409.839 414.038C409.219 415.438 409.389 416.238 409.069 417.738C409.219 418.798 408.789 419.698 407.779 420.438C407.419 422.338 406.419 422.978 404.799 422.368C403.079 422.488 401.519 421.658 400.009 420.948C397.629 419.828 395.269 418.398 393.409 416.518C392.279 415.378 390.679 413.548 390.499 411.888C389.449 410.228 390.269 409.288 392.969 409.068C394.479 407.158 395.919 406.938 397.299 408.408L398.719 405.978C397.439 405.188 396.149 404.398 394.879 403.598C394.449 403.338 394.019 403.068 393.589 402.788C391.359 401.598 391.939 399.478 395.349 396.418C396.729 396.828 397.619 394.778 396.339 394.078C393.739 392.648 391.199 391.048 389.139 388.878C387.679 387.338 383.219 382.008 386.009 379.818C387.779 378.428 393.459 379.928 395.409 380.518C398.629 381.508 401.249 383.498 404.259 384.928C405.579 385.558 407.239 384.228 406.379 382.808C403.999 378.898 399.469 376.888 395.079 376.058C391.729 375.428 385.359 375.138 382.779 377.878C380.379 380.428 382.579 384.968 384.209 387.418C386.839 391.358 390.919 394.128 395.039 396.298L396.029 393.958C392.579 393.018 388.819 394.488 388.289 398.398C387.589 403.548 393.839 406.178 397.299 408.428C398.829 409.418 400.229 406.988 398.719 405.998C395.589 403.938 390.319 401.688 387.779 405.978C385.089 410.528 389.159 416.688 392.499 419.608C395.839 422.528 401.839 426.198 406.639 425.358C413.239 424.198 410.179 418.778 412.939 414.828C414.459 412.658 415.129 412.778 415.319 410.078C415.429 408.548 415.589 407.218 416.069 405.768C416.429 404.668 416.859 403.908 416.989 402.718C417.289 399.818 415.709 397.108 415.769 394.258C415.849 390.658 419.079 388.458 419.719 385.038C420.879 378.838 415.969 373.008 412.359 368.538C408.749 364.068 403.819 356.978 398.329 355.338C393.279 353.828 390.979 358.768 391.489 363.028C392.329 370.038 396.179 376.548 400.769 381.718C401.399 382.438 402.689 381.468 402.109 380.678L402.089 380.658Z" fill="#951C67"/>
<path d="M405.509 398.818C404.089 397.028 402.179 395.628 400.039 394.808L405.509 398.818Z" fill="#FFF2FC"/>
<path d="M406.129 398.648C405.909 398.028 405.709 397.368 405.289 396.858C404.819 396.288 404.259 395.778 403.689 395.328C402.579 394.458 401.279 393.878 399.849 394.108C399.419 394.178 399.149 394.818 399.419 395.168C400.149 396.118 401.119 396.718 402.109 397.368C403.099 398.018 404.129 398.728 405.189 399.368C405.639 399.648 406.329 399.178 406.129 398.648Z" fill="#951C67"/>
<path d="M171.968 390.531C168.192 386.68 164.487 384.467 159.031 383.82C153.575 383.174 148.149 384.277 143.206 386.342C132.977 390.614 125.044 399.527 120.831 409.663C116.633 419.752 116.782 431.562 123.457 440.568C129.663 448.943 139.466 454.159 149.891 454.663C155.594 454.94 161.415 453.764 166.517 451.202C168.86 450.026 171.084 448.188 172.811 446.216C174.537 444.245 176.325 442.011 176.823 439.5C177.039 438.432 175.909 437.318 174.861 437.991C173.36 438.956 172.163 440.219 170.627 441.128C168.813 442.201 166.974 443.099 165.001 443.839C161.317 445.22 157.659 446.458 153.698 446.709C145.626 447.228 137.683 444.291 132.078 438.417C119.079 424.784 128.949 403.681 142.903 395.004C147.127 392.38 151.679 390.942 156.626 390.567C159.031 390.388 161.338 390.521 163.737 390.593C166.286 390.675 168.937 390.701 171.367 391.553C171.968 391.764 172.374 390.942 171.963 390.526L171.968 390.531Z" fill="#951C67"/>
<path d="M193.069 453.687C191.369 439.079 189.951 424.63 190.192 409.899L186.123 410.448C188.445 417.36 190.608 424.348 193.352 431.11C195.258 435.808 197.436 442.909 202.995 444.434C208.555 445.959 212.254 440.743 212.855 435.947C213.672 429.467 210.671 423.377 208.657 417.401C206.392 410.669 204.691 403.399 204.316 396.287C204.049 391.265 204.896 384.59 210.528 382.819C217.602 380.596 221.42 392.837 215.814 396.477C214.807 397.129 211.596 398.182 212.762 395.748C213.646 393.905 215.835 393.668 217.582 394.12C220.849 394.968 223.583 397.453 226.799 398.577C239.171 402.911 256.146 397.047 259.507 383.42C259.81 382.198 258.155 381.007 257.241 382.1C253.187 386.952 248.291 391.912 242.135 393.884C238.441 395.07 234.367 395.435 230.524 394.88C226.825 394.346 223.619 392.672 220.089 391.599C217.505 390.814 214.735 390.608 212.511 392.369C210.867 393.668 209.526 395.825 210.152 397.976C210.882 400.482 213.888 400.174 215.886 399.388C218.311 398.439 220.182 396.492 221.096 394.059C223.11 388.683 221.219 380.154 215.593 377.684C209.968 375.215 203.15 378.218 200.139 383.204C196.419 389.355 197.447 397.021 198.68 403.732C200.159 411.783 203.653 418.828 206.392 426.448C207.62 429.867 209.027 434.35 207.178 437.806C204.948 441.98 201.886 437.78 200.509 435.284C195.998 427.11 192.946 418.202 190.115 409.339C189.406 407.121 186.118 407.516 186.046 409.889C185.624 424.594 186.775 439.793 190.757 453.985C191.101 455.207 193.223 455.027 193.064 453.671L193.069 453.687Z" fill="#951C67"/>
<path d="M229.764 378.773C226.373 383.99 225.021 390.418 223.598 396.4C222.118 402.613 221.07 408.965 220.526 415.331C219.991 421.58 219.981 427.916 220.449 434.17C220.916 440.424 221.189 447.561 225.129 452.742C225.951 453.826 227.801 453.867 228.202 452.342C229.758 446.391 228.227 440.173 227.765 434.17C227.292 428.055 227.138 421.929 227.308 415.804C227.477 409.678 227.873 403.45 228.721 397.319C229.568 391.189 231.408 385.376 231.69 379.292C231.742 378.219 230.298 377.962 229.774 378.773H229.764Z" fill="#951C67"/>
<path d="M236.412 435.777C237.588 429.616 239.222 423.341 241.2 417.38C242.773 412.631 244.684 406.407 250.058 404.903L247.361 402.207C245.105 408.122 243.435 413.853 243.05 420.199C242.706 425.945 242.264 432.707 245.29 437.867C247.715 442.001 252.385 444.953 257.261 444.578C261.084 444.28 265.137 441.811 264.341 437.549C264.213 436.851 263.17 436.584 262.712 437.118C260.909 439.212 257.837 440.137 255.206 439.166C251.276 437.723 249.246 434.16 248.753 430.17C248.244 426.052 248.414 421.591 248.63 417.452C248.866 412.846 249.518 408.138 251.368 403.892C252.164 402.064 250.865 400.369 248.892 400.677C242.922 401.607 239.895 407.989 238.087 413.057C235.436 420.471 234.357 427.737 234.886 435.572C234.942 436.388 236.237 436.691 236.412 435.777Z" fill="#951C67"/>
<path d="M231.628 424.06C233.288 426.053 236.283 426.124 238.683 426.371C242.279 426.741 246.056 427.069 249.601 426.212C250.181 426.073 249.976 425.323 249.472 425.257C243.749 424.492 237.629 425.739 232.219 423.3C231.711 423.069 231.264 423.629 231.628 424.066V424.06Z" fill="#951C67"/>
<path d="M273.44 407.712C269.72 403.358 262.414 405.54 258.633 408.703C254.538 412.133 252.473 418.135 253.675 423.362C256.485 435.541 276.174 435.783 279.22 423.629C279.416 422.849 278.527 422.042 277.787 422.53C274.514 424.692 271.447 427.239 267.331 427.393C263.606 427.531 260.072 425.565 258.977 421.904C257.97 418.515 259.106 414.71 261.675 412.302C264.875 409.298 268.919 409.283 273.004 408.764C273.538 408.698 273.805 408.148 273.44 407.717V407.712Z" fill="#951C67"/>
<path d="M274.684 404.415C276.651 403.594 278.301 402.572 280.474 402.3C282.771 402.012 285.376 402.603 287.585 403.224C292.435 404.59 296.895 407.024 301.945 407.702C306.518 408.318 311.198 407.342 314.887 404.498C317.893 402.177 320.549 398.064 319.193 394.131C318.92 393.345 317.79 393.088 317.343 393.889C315.288 397.581 313.248 400.98 309.102 402.623C304.262 404.544 299.397 402.962 294.69 401.483C290.786 400.256 286.624 398.962 282.493 399.466C279.441 399.835 275.634 400.534 273.913 403.404C273.63 403.871 274.113 404.652 274.689 404.41L274.684 404.415Z" fill="#951C67"/>
<path d="M291.381 387.877C287.811 396.446 286.655 405.55 286.177 414.751C285.94 419.331 285.951 423.901 286.177 428.481C286.377 432.625 286.249 437.749 288.777 441.282C289.388 442.134 290.554 441.975 290.924 440.999C292.45 436.984 291.345 432.152 291.125 427.988C290.893 423.583 290.837 419.157 290.929 414.746C291.114 405.817 292.209 396.934 292.378 388.005C292.388 387.389 291.592 387.379 291.387 387.872L291.381 387.877Z" fill="#951C67"/>
<path d="M159.74 405.863C153.354 410.264 151.144 417.976 154.34 425.149C157.228 431.629 165.474 437.667 172.379 433.061C177.841 429.416 180.487 422.073 179.423 415.732C178.817 412.138 177.075 408.23 173.854 406.248C170.571 404.23 167.041 404.698 163.424 405.17C163.018 405.221 162.889 405.776 163.321 405.915C165.602 406.649 167.976 407.45 170.124 408.518C172.821 409.863 174.265 412.271 175.097 415.121C176.387 419.531 175.328 425.888 171.187 428.584C166.332 431.747 160.973 427.28 158.938 422.905C156.786 418.263 157.115 411.044 160.814 407.244C161.492 406.551 160.593 405.268 159.74 405.853V405.863Z" fill="#951C67"/>
<path d="M303.086 413.052C296.699 417.452 294.49 425.164 297.686 432.337C300.573 438.817 308.819 444.855 315.725 440.25C321.186 436.604 323.832 429.262 322.769 422.92C322.162 419.326 320.421 415.419 317.199 413.437C313.916 411.419 310.386 411.886 306.769 412.359C306.363 412.41 306.235 412.964 306.667 413.103C308.948 413.837 311.322 414.638 313.469 415.706C316.166 417.052 317.61 419.46 318.443 422.309C319.732 426.72 318.674 433.077 314.533 435.772C309.677 438.935 304.319 434.468 302.284 430.093C300.131 425.452 300.46 418.233 304.159 414.433C304.838 413.74 303.938 412.456 303.086 413.041V413.052Z" fill="#951C67"/>
</svg>
