<svg width="400" height="506" viewBox="0 0 400 506" fill="none" xmlns="http://www.w3.org/2000/svg">
<path d="M159.222 185.336C163.014 184.612 165.222 179.49 164.153 173.897C163.084 168.305 159.143 164.358 155.352 165.083C151.56 165.808 149.352 170.929 150.421 176.522C151.49 182.115 155.431 186.061 159.222 185.336Z" fill="#951C67"/>
<path d="M247.638 168.428C251.43 167.704 253.637 162.582 252.568 156.989C251.499 151.397 247.559 147.45 243.767 148.175C239.975 148.9 237.768 154.021 238.837 159.614C239.906 165.207 243.846 169.153 247.638 168.428Z" fill="#951C67"/>
<path d="M287.2 125.46C296.26 159.58 294.16 198.19 275 228.64C262.99 247.7 244.11 263.5 221.85 268.65L219.59 269.12C218.15 269.28 216.15 269.56 214.73 269.49C209.61 269.59 203.81 268.44 198.86 267.17C193.2 265.68 187.41 263.51 182.03 261.16C160.5 251.61 141.32 237.23 124.36 221.04L126.85 221.12C123.52 223.79 119.47 225.62 115.25 226.18C102.46 228.22 90.2101 218.84 86.4501 206.93C80.8301 191.36 89.5001 171.41 107.1 169.8C107.6 169.76 107.65 170.49 107.18 170.54C99.3901 171.48 92.6901 176.8 89.4301 183.83C82.7001 197.6 89.1901 216.53 103.85 221.85C110.78 224.4 118.87 223.03 124.45 218.2C125.19 217.58 126.27 217.63 126.94 218.28C137.61 227.99 148.99 236.86 161.27 244.37C170.96 250.31 181.35 255.5 192.15 259.1C197.28 260.87 203.11 262.27 208.5 262.96C209.86 263.06 211.23 263.17 212.58 263.24C213.13 263.21 215.01 263.2 215.56 263.18C216.34 263.13 217.62 262.89 218.38 262.82C228.56 260.63 237.9 255.57 246.08 249.19C273.1 228.13 286.64 193.87 287.89 160.18C288.45 148.72 287.83 137.14 286.45 125.59C286.42 125.38 286.57 125.2 286.78 125.17C286.97 125.15 287.14 125.27 287.19 125.45L287.2 125.46Z" fill="#951C67"/>
<path d="M110.79 217.49C110.79 217.49 110.7 217.55 110.66 217.58C110.96 217.47 111.31 217.45 111.7 217.49C111.33 217.38 111.02 217.37 110.79 217.49Z" fill="#858585"/>
<path d="M111.7 217.49C115.23 218.54 121.85 230.28 118.79 231.61C115.66 232.97 107.93 219.47 110.66 217.58C110.61 217.6 110.55 217.61 110.5 217.63C105.48 220.1 111.89 241.06 121.46 236.36C130.27 232.03 117.04 218.12 111.7 217.49Z" fill="#961C67"/>
<path d="M200.17 171.06C200.65 173.97 201.29 176.79 201.18 179.76C201.07 182.73 199.88 185.1 199.26 187.92C198.6 190.96 200.22 193.03 202.84 194.33C209.04 197.42 220.12 197.97 221.7 189.06C222.12 186.69 220.98 183.13 218.03 183.28C214.92 183.43 216.03 186.59 214.85 188.47C213.61 190.45 207.35 191.3 205.64 189.52C203.93 187.74 205.55 185.11 205.81 182.89C206.34 178.38 205.81 173.61 203.38 169.71C202.27 167.93 199.84 169.15 200.16 171.07L200.17 171.06Z" fill="#951C67"/>
<path d="M237.98 202.99C234.89 205.26 232.55 206.38 228.62 206.47C225.23 206.54 221.86 206.49 218.55 207.36C214.85 208.33 211.6 210.38 208.2 212.06C204.09 214.09 201 214.56 196.52 214.54C195.55 214.54 194.72 215.73 195.34 216.6C201.34 224.98 213.34 214.7 219.98 212.53C226.01 210.56 238.43 212.71 239.06 203.61C239.09 203.1 238.42 202.68 237.99 203L237.98 202.99Z" fill="#951C67"/>
<path d="M133.85 152.79C136 147.95 140.08 144.57 144.81 142.29C148.55 140.49 153.93 140.51 156.84 137.36C158.71 135.33 157.95 131.99 155.21 131.2C150.07 129.72 143.27 134.01 139.3 137.01C134.33 140.75 132.5 146.22 131.75 152.23C131.61 153.32 133.4 153.79 133.84 152.8L133.85 152.79Z" fill="#951C67"/>
<path d="M148.73 59.84C148.78 67.93 151.87 75.91 152.25 84.06C152.54 90.4 152.32 96.65 150.68 102.81C148.8 109.88 143.96 115.15 141.49 121.82C140.92 123.35 142.79 124.33 144 123.75C150.1 120.86 153.66 113.06 155.63 106.97C157.75 100.44 158.37 93.29 157.72 86.46C156.82 76.9 153.19 68.59 150.33 59.62C150.06 58.76 148.72 58.89 148.73 59.84Z" fill="#951C67"/>
<path d="M127.94 61.4901C127.35 75.4901 128.22 89.3901 126.68 103.38C124.65 121.9 120.42 145.83 102.22 155.22C96.24 158.3 92.4 162.53 90.3 168.94C89.48 171.43 89 174.12 87.79 176.46C86.05 179.82 82.64 181.09 79.46 182.75C77.94 183.54 78.66 185.96 80.32 185.94C85.83 185.86 90.59 182.95 93.22 178.09C95.85 173.23 95.97 167.9 99.8 163.98C103.63 160.06 109.53 158.44 113.65 154.53C117.1 151.26 119.86 147.27 122.03 143.06C131.75 124.2 132.31 101.3 131.44 80.5501C131.17 74.1301 130.21 67.8601 129.58 61.4901C129.48 60.4601 127.99 60.4201 127.95 61.4901H127.94Z" fill="#951C67"/>
<path d="M165.05 62.2301C169.7 77.8001 171.81 95.9901 167.07 111.72C166.62 113.2 168.56 114.26 169.62 113.2C175.7 107.17 174.28 95.3301 173.48 87.6301C172.59 79.0101 171.07 69.1101 166.25 61.7201C165.86 61.1201 164.83 61.4801 165.05 62.2301Z" fill="#951C67"/>
<path d="M191.19 54.65C189.87 63.51 192.61 73.32 195.48 81.63C198.04 89.04 201.59 100.04 209.67 103.01C211.21 103.58 212.07 101.5 211.15 100.46C200.32 88.18 194.68 70.68 192.46 54.65C192.37 54.02 191.28 54.02 191.19 54.65Z" fill="#951C67"/>
<path d="M177.96 57.18C176.74 65.11 179.37 73.74 181.72 81.23C184.07 88.72 186.32 98.25 191.81 104.05C192.9 105.2 194.69 103.99 194.36 102.57C192.58 94.87 188.29 87.62 185.65 80.15C183.01 72.68 180.43 65.04 179.22 57.18C179.12 56.55 178.05 56.55 177.95 57.18H177.96Z" fill="#951C67"/>
<path d="M123.32 28.2101C113.4 27.8901 104.84 29.4601 95.77 33.7001C86.7 37.9401 78.69 43.9901 72.05 51.5501C57.85 67.7001 51.36 89.0501 49.68 110.18C48.73 122.15 49.39 134.15 50.91 146.04C52.43 157.93 54.95 169.51 54.05 181.19C53 194.81 46.08 211.11 55.29 223.21C60.22 229.69 67.32 234.02 73.56 239.1C80.69 244.9 85.66 251.48 89.63 259.74C90.3 261.14 92.43 260.4 92.44 258.98C92.52 244.54 78.07 235.53 68.38 227.12C63.82 223.16 58.75 218.47 57.74 212.2C56.6 205.13 59 197.01 60.02 190.04C63 169.86 57.61 150.29 56.65 130.15C55.62 108.48 58.58 85.7701 69.91 66.8801C81.24 47.9901 100.98 32.5901 123.32 30.8001C124.97 30.6701 125.01 28.2601 123.32 28.2001V28.2101Z" fill="#951C67"/>
<path d="M80.12 217.85C81.42 223.13 83.2399 227.48 87.2799 231.22C90.1899 233.92 93.63 235.8 95.76 239.27C102.66 250.51 94.5199 266.28 87.0199 275.11C85.8099 276.53 86.92 279.42 89.05 278.6C101.22 273.92 110.47 263.63 112.96 250.68L109.14 250.16C109.34 255.84 109.06 261.84 110.15 267.43C111 271.75 114.86 271.71 118.7 270.84C128.33 268.67 139.72 258.96 139.28 248.41C139.15 245.37 134.53 245.33 134.52 248.41C134.5 254.58 140.79 259.75 145.42 262.99C146.24 263.56 147.31 263.39 148.14 262.99C153.12 260.58 167.82 251.91 159.69 245.33C157.67 243.69 153.87 245.89 155.72 248.39C158.39 251.99 148.12 257.01 145.42 258.35H148.14C144.4 255.79 140.29 252.33 139.19 247.79L134.6 249.05C136.58 256.58 123.91 264.97 118.01 266.47C116.86 266.76 113.8 266.72 114.6 267.49C113.86 266.77 114.05 263.51 113.95 262.51C113.56 258.4 113.31 254.28 113.02 250.16C112.88 248.13 109.56 247.34 109.2 249.64C107.35 261.34 99.4099 271.12 87.9299 274.57L89.9599 278.06C98.3499 269.5 105.18 254.67 101.98 242.52C100.74 237.8 97.8299 234.14 94.0199 231.22C88.8399 227.24 85.1099 222.89 82.0299 217.04C81.4599 215.96 79.8299 216.72 80.1099 217.85H80.12Z" fill="#951C67"/>
<path d="M123.32 28.2101C113.4 27.8901 104.84 29.4601 95.77 33.7001C86.7 37.9401 78.69 43.9901 72.05 51.5501C57.85 67.7001 51.36 89.0501 49.68 110.18C48.73 122.15 49.39 134.15 50.91 146.04C52.43 157.93 54.95 169.51 54.05 181.19C53 194.81 46.08 211.11 55.29 223.21C60.22 229.69 67.32 234.02 73.56 239.1C80.69 244.9 85.66 251.48 89.63 259.74C90.3 261.14 92.43 260.4 92.44 258.98C92.52 244.54 78.07 235.53 68.38 227.12C63.82 223.16 58.75 218.47 57.74 212.2C56.6 205.13 59 197.01 60.02 190.04C63 169.86 57.61 150.29 56.65 130.15C55.62 108.48 58.58 85.7701 69.91 66.8801C81.24 47.9901 100.98 32.5901 123.32 30.8001C124.97 30.6701 125.01 28.2601 123.32 28.2001V28.2101Z" fill="#951C67"/>
<path d="M80.12 217.85C81.42 223.13 83.2399 227.48 87.2799 231.22C90.1899 233.92 93.63 235.8 95.76 239.27C102.66 250.51 94.5199 266.28 87.0199 275.11C85.8099 276.53 86.92 279.42 89.05 278.6C101.22 273.92 110.47 263.63 112.96 250.68L109.14 250.16C109.34 255.84 109.06 261.84 110.15 267.43C111 271.75 114.86 271.71 118.7 270.84C128.33 268.67 139.72 258.96 139.28 248.41C139.15 245.37 134.53 245.33 134.52 248.41C134.5 254.58 140.79 259.75 145.42 262.99C146.24 263.56 147.31 263.39 148.14 262.99C153.12 260.58 167.82 251.91 159.69 245.33C157.67 243.69 153.87 245.89 155.72 248.39C158.39 251.99 148.12 257.01 145.42 258.35H148.14C144.4 255.79 140.29 252.33 139.19 247.79L134.6 249.05C136.58 256.58 123.91 264.97 118.01 266.47C116.86 266.76 113.8 266.72 114.6 267.49C113.86 266.77 114.05 263.51 113.95 262.51C113.56 258.4 113.31 254.28 113.02 250.16C112.88 248.13 109.56 247.34 109.2 249.64C107.35 261.34 99.4099 271.12 87.9299 274.57L89.9599 278.06C98.3499 269.5 105.18 254.67 101.98 242.52C100.74 237.8 97.8299 234.14 94.0199 231.22C88.8399 227.24 85.1099 222.89 82.0299 217.04C81.4599 215.96 79.8299 216.72 80.1099 217.85H80.12Z" fill="#951C67"/>
<path d="M202.34 51.6901C203.74 66.5501 212.98 80.8801 224.44 90.0301C231.58 95.7301 239.7 99.9701 248.34 102.9C257.5 106.01 270.3 109.76 279.82 106.78C281.37 106.29 281.26 104.27 279.82 103.74C275.01 101.96 269.82 102.03 264.79 101.24C260.17 100.51 255.6 99.4501 251.15 98.0301C242.83 95.3801 234.9 91.3601 227.96 86.0601C216.17 77.0601 208.39 65.5401 204 51.4801C203.73 50.6201 202.25 50.7201 202.35 51.7001L202.34 51.6901Z" fill="#951C67"/>
<path d="M105.45 184.41C124.04 181.47 125.14 161.39 129.22 146.93C131.72 138.04 136.08 129.75 138.96 120.98C142.39 110.58 146.32 96.1301 142.35 85.4901C141.84 84.1101 139.72 83.8701 139.31 85.4901C137.88 91.0501 138.3 96.8301 137.59 102.5C136.92 107.85 135.66 113.13 134.05 118.27C131.45 126.55 127.61 134.37 124.97 142.63C120.12 157.82 123.19 176.15 105.02 182.78C103.99 183.16 104.4 184.57 105.47 184.4L105.45 184.41Z" fill="#951C67"/>
<path d="M139.08 36.8301C150.89 15.8201 174.41 2.70005 198.54 4.29005C222.51 5.87005 247.94 15.2201 267.62 28.9001C278.62 36.5501 288.13 46.7401 294.54 58.5201C298.36 65.5401 301.13 73.1101 301.77 81.1201C302.41 89.0701 301.42 97.0301 301.37 104.97C301.28 118.13 304.88 128.95 313 139.22C319.56 147.52 328.57 154.64 333.48 164.11C336.64 170.19 334.06 174.9 331.5 180.7C328.94 186.5 326.43 192.93 327.24 199.49C328.81 212.19 340.58 223.27 351.53 228.62L353.04 223.04C341.6 223.58 330.92 218.07 324.9 208.28C323.13 205.41 318.48 207.25 319.4 210.6C321 216.46 318.59 223.4 315.08 228.11L317.68 226.62C310.78 226.55 301.08 225.47 299.27 217.44C298.83 215.49 296.52 214.8 294.9 215.66C288.2 219.23 288.33 226.97 291.3 233.11L293.85 228.67C291.05 228.94 270.54 230.58 271.49 227.51C271.96 226 269.67 225.02 268.92 226.43C263.83 236.03 289.54 234.97 293.85 234.57C296.16 234.35 297.41 232.25 296.4 230.13C294.85 226.89 294.27 222.71 297.9 220.79L293.53 219.01C295.74 228.99 306.25 232.09 315.3 232.57C320.47 232.84 322.11 229.1 323.83 224.58C325.68 219.7 326.6 214.09 325.2 208.99L319.7 211.31C326.8 222.82 339.49 229.66 353.04 229.02C355.79 228.89 357.39 224.82 354.55 223.44C342.9 217.77 330.23 205.36 333.83 191.3C336.53 180.75 344.37 172.56 338.83 161.56C333.92 151.8 324.78 144.49 318 136.09C314.02 131.16 310.45 125.73 308.75 119.57C306.45 111.23 307.15 102.51 307.47 93.9701C308.05 78.5001 305.21 64.87 296.88 51.67C289.94 40.67 280.51 31.2201 269.7 24.0101C249.7 10.6901 224.4 1.90005 200.39 0.160051C174.9 -1.67995 148 12.0401 136.54 35.34C135.71 37.03 138.15 38.5001 139.08 36.8301Z" fill="#951C67"/>
<path d="M123.08 39.8901C133.92 21.2801 154.18 7.85008 176.09 7.43008C196.78 7.03008 218.59 14.4201 236.87 23.6001C257.31 33.8701 275.6 50.3001 283.16 72.4601C290.33 93.4701 277.73 116.48 286.73 137.21C290.03 144.83 295.75 150.86 300.86 157.27C308.33 166.64 313.03 177.44 317.04 188.67C317.54 190.07 319.89 189.97 319.8 188.3C319.19 176.98 315.4 167.17 308.84 157.96C304.05 151.24 298.02 145.36 293.92 138.16C288.24 128.17 289.15 116.78 290.12 105.73C291.19 93.5301 292.72 81.1301 288.35 69.3901C280 46.9401 262.02 30.0401 240.95 19.4101C221.66 9.68008 199.05 2.28008 177.22 2.75008C154.4 3.25008 130.4 17.5301 120.53 38.3901C119.73 40.0801 122.11 41.5401 123.07 39.8801L123.08 39.8901Z" fill="#951C67"/>
<path d="M217.02 46.7001C213.52 63.8301 236.84 77.0201 249.24 83.0101C259.29 87.8601 269.95 91.6001 280.83 94.0601C289.14 95.9401 299.36 98.3101 307.62 95.2101C308.7 94.8001 308.58 93.1801 307.34 93.1401C288.36 92.6401 270.6 88.7001 253.21 80.9101C240.27 75.1101 216.85 64.1901 218.13 46.8501C218.18 46.2201 217.15 46.0801 217.03 46.7001H217.02Z" fill="#951C67"/>
<path d="M257.5 125.73C254.58 120.48 250.94 116.14 244.97 114.5C240.17 113.18 233 111.98 228.55 114.67C225.66 116.42 226.45 120.47 229.45 121.52C233.23 122.85 237.56 121.22 241.5 121.44C246.65 121.73 252 123.46 255.74 127.08C256.66 127.97 258.13 126.84 257.5 125.72V125.73Z" fill="#951C67"/>
<path d="M111.69 98.4301C109.66 114.4 104.21 131.94 93.5801 144.28C92.6901 145.32 93.5101 147.42 95.0601 146.83C103.1 143.76 106.53 132.74 109 125.3C111.77 116.96 114.4 107.1 112.97 98.2601C112.84 97.4601 111.76 97.7701 111.68 98.4301H111.69Z" fill="#951C67"/>
<path d="M149.08 217.07C149.91 215.23 150.86 213.52 152.03 211.86C153.48 209.8 153.46 208.33 154.76 212.68C155.16 214.03 155.14 215.96 156.73 216.59C160.25 217.99 165 208.72 167.07 207.16L164.31 206.04C164.82 209.57 164.73 214.18 169.03 215.08C172.3 215.76 174.69 213.5 175.86 210.7C176.2 209.89 175.21 208.99 174.43 209.27C172.73 209.87 171.63 210.98 169.99 209.9C168.35 208.82 168.38 206.82 167.92 205.06C167.54 203.6 165.82 203.36 164.78 204.23C163.51 205.3 162.46 206.42 161.44 207.73C160.3 209.2 158.92 212.5 157.35 213.41C158.6 213.92 158.76 213.41 157.81 211.85C157.59 211.16 157.33 210.48 157.04 209.81C156.66 208.97 156.08 207.47 155.16 206.93C150.6 204.27 148.23 213.7 147.66 216.48C147.49 217.29 148.7 217.93 149.08 217.08V217.07Z" fill="#C04E83"/>
<path d="M271.86 189.41C270.19 187.18 263.97 179.52 260.98 183.8C260.45 184.57 260.49 185.62 260.46 186.51C260.42 187.48 260.55 188.41 260.63 189.37C260.67 189.73 260.74 190.1 260.83 190.45C261.07 191.52 261.06 191.61 260.82 190.73C259.74 190.39 257.45 188.26 256.12 187.54C254.43 186.63 252.79 185.95 250.93 185.46C249.47 185.07 248.36 186.39 248.62 187.77C248.77 188.58 249.62 191.17 249.42 191.96C248.89 194.04 246.25 194 244.7 194.16C243.78 194.25 243.06 195.41 243.88 196.15C246.21 198.27 249.74 199.25 252.31 196.83C255.27 194.05 253.23 189.99 252.24 186.77L249.93 189.08C253.56 189.84 256.28 191.95 259.64 193.3C260.77 193.75 262.09 194.42 263.26 193.59C264.12 192.98 264.12 192.11 264.22 191.16C264.33 190.1 262.49 186.57 264.66 186.26C265.88 186.09 269.95 189.75 270.65 190.34C271.27 190.87 272.44 190.15 271.87 189.4L271.86 189.41Z" fill="#C04E83"/>
<path d="M141.54 168.28C141.82 168.33 142.46 168.45 142.72 168.5C143.35 168.5 144.01 168.5 144.64 168.36C149.2 167.28 152.51 162.84 157.81 163.38C161.62 164.01 165.37 169.22 163.31 172.9C163.21 173.07 162.94 173.05 162.86 172.87C162.26 171.78 161.61 171.11 160.89 170.53C160.02 169.8 158.99 169.16 158.03 168.51C156.9 167.72 156.17 167.16 154.53 167.46C150.66 168.3 145.37 171.33 141.36 168.68C141.13 168.55 141.3 168.19 141.55 168.27L141.54 168.28Z" fill="#951C67"/>
<path d="M260.35 145.6C258.99 147.56 256.45 148.49 254.14 148.76C251.2 149.33 247.66 148.45 245.66 150.37C244.69 151.67 243.68 153.12 242.87 154.52C242.41 155.33 242.06 156.2 241.9 157.44C241.88 157.63 241.65 157.73 241.5 157.62C238.76 155.44 239.54 150.97 241.3 148.41C242.54 146.45 245.38 145.69 247.33 145.75C251.26 145.71 254.29 147.21 257.93 146.35C258.28 146.23 258.66 146.06 259.01 145.93L259.34 145.72L260.02 145.29L260.05 145.27C260.25 145.14 260.5 145.41 260.35 145.6Z" fill="#951C67"/>
<path d="M199.13 218.95C200.48 224.33 205.24 228.04 210.61 229.17C215.54 230.21 226.66 229.46 230.07 225.41C230.93 224.39 230.63 222.87 229.29 222.45C225.12 221.14 220.12 223.74 215.85 224.16C209.74 224.76 203.31 224.41 199.72 218.7C199.53 218.39 199.04 218.59 199.13 218.95Z" fill="#951C67"/>
<path d="M210 231.21C211.76 231.8 213.9 232.21 215.9 231.36C217.45 230.7 218.48 230.67 220.16 230.74C221.84 230.81 223.51 230.74 225.19 230.59C228.43 230.28 229.91 226.5 230.47 224.92C230.69 224.3 230.71 223.52 230.24 223.06C230.02 222.84 229.72 222.72 229.42 222.64C227.44 222.08 223.88 225.54 221.91 226.13C218.87 227.04 215.7 227.53 212.52 227.6C211.71 227.62 210.9 227.6 210.09 227.57C209.38 227.54 205.63 225.1 204.94 225.24C203.55 225.53 205.26 227.19 205.87 227.71C207.01 228.7 208.23 230.62 210.01 231.21H210Z" fill="#951C67"/>
<path d="M2.79004 250.86C6.46004 264.23 7.40004 278.16 8.60004 291.98C12.69 339.14 19.95 385.96 28.28 432.53C30.36 444.18 32.52 455.83 34.7 467.47C36.26 475.76 36.02 484.47 38.54 492.57C42.02 503.74 47.91 502.09 58.4 501.76C147.1 498.99 235.39 496.08 323.79 487.99C334.07 487.05 344.35 486.06 354.61 484.84C364.16 483.71 366.72 485.73 367.8 475.22C375.45 400.52 387.28 325.2 387.31 250.01C371.69 244.37 351.22 246.43 334.86 246.1C307.24 245.54 279.61 245.53 251.99 245.66C185.54 245.97 119.08 247.2 52.66 249.39C36.16 249.93 19.67 250.55 3.18004 251.29" fill="#FFF2FC"/>
<path d="M1.17998 251.3C4.61998 265.28 5.44998 279.63 6.55998 293.94C7.66998 308.25 9.13998 322.72 10.84 337.07C14.15 365.07 18.25 392.97 22.9 420.78C25.24 434.73 27.71 448.66 30.27 462.57C31.56 469.61 32.24 476.62 33.16 483.7C33.83 488.92 34.72 494.53 37.5 499.11C41.87 506.28 49.68 505.71 57.06 505.43C71.39 504.9 85.74 504.61 100.08 504.18C157.54 502.45 214.99 500.26 272.35 496.25C300.25 494.3 328.04 491.58 355.88 488.88C362.45 488.24 368.88 488.42 371.07 480.91C372.67 475.41 372.61 469.17 373.22 463.52C373.99 456.36 374.79 449.21 375.61 442.05C382.89 378.22 391.4 314.36 391.52 250C391.52 248.06 390.2 246.55 388.43 245.95C378.11 242.41 367.07 241.82 356.24 241.78C345.41 241.74 334.11 241.84 323.03 241.67C297.36 241.28 271.69 241.32 246.01 241.46C194.17 241.76 142.34 242.61 90.52 244.06C61.37 244.88 32.29 246.37 3.17998 247.95C-1.06002 248.18 -1.11002 254.73 3.17998 254.58C105.07 251.01 207.26 248.97 309.21 249.92C322.62 250.04 336.02 250.38 349.44 250.23C361.79 250.09 374.37 250 386.19 254.05L383.1 250C383.01 304.49 376.92 358.68 370.62 412.73C369.03 426.41 367.42 440.08 365.91 453.76C365.19 460.26 364.51 466.76 363.82 473.26C363.46 476.62 363.99 479.65 360.98 480.11C336.35 483.83 311.02 485.1 286.19 487.01C231.5 491.23 176.69 493.75 121.88 495.85C108.33 496.37 94.78 496.86 81.22 497.33C74.6 497.56 67.99 497.79 61.37 498.02C57.2 498.16 52.25 499.06 48.09 498.3C43.93 497.54 42.49 493.72 41.45 489.87C39.7 483.43 39.57 476.68 38.62 470.11C36.66 456.58 33.61 443.14 31.13 429.7C25.64 400 20.49 370.22 16.42 340.28C14.32 324.87 12.5 309.41 10.97 293.93C9.51998 279.29 8.41998 264.61 4.38998 250.41C3.79998 248.34 0.659978 249.21 1.16998 251.3H1.17998Z" fill="#961C67"/>
<path d="M4.30987 250.5C2.17987 260.62 10.8399 269.5 18.7399 276.17C75.7799 324.29 140.19 276.09 201.66 318.4C248.27 269.24 332.05 289.2 387.32 250.01" fill="#FFF2FC"/>
<path d="M3.26996 249.89C-5.48004 262.28 11.46 276.4 20.21 283.18C32.16 292.44 46.33 298.59 61.14 301.52C90.03 307.24 119.5 301.87 148.61 304.64C166.9 306.38 184.03 312.19 199.32 322.42C200.99 323.54 203.61 323.12 204.97 321.69C223.13 302.63 248.17 294.11 273.3 288.69C299.09 283.12 325.55 280.38 350.81 272.5C364.74 268.15 379.02 262.37 390.43 253.1C394.33 249.93 389.32 243.74 385.13 246.24C373.7 253.06 362.37 258.99 349.64 263.07C336.91 267.15 323.92 269.84 310.85 272.25C284.96 277.02 258.41 280.47 234.03 290.92C220.64 296.66 208.55 304.64 198.38 315.1L204.03 314.37C179.34 297.52 150.81 294.02 121.61 294.49C94.34 294.93 65.7 297.41 40.44 284.94C25.69 277.66 10.54 266.48 5.47996 250.18C5.15996 249.13 3.86996 249.05 3.26996 249.89Z" fill="#961C67"/>
<path d="M20.5699 360.28C24.6299 355.45 27.5099 349.65 28.9099 343.5C29.2399 342.04 29.4899 340.52 29.1899 339.06C28.8899 337.6 27.9499 336.18 26.5299 335.7C24.3899 334.97 22.1899 336.53 20.5199 338.06C15.4399 342.68 10.9199 347.91 7.06993 353.59C4.63993 357.19 2.41993 361.78 4.26993 365.72C5.10993 367.51 6.70993 368.89 7.35993 370.76C8.86993 375.08 4.81993 380.26 7.15993 384.19C7.50993 384.77 7.97993 385.29 8.20993 385.93C8.78993 387.61 7.44993 389.57 8.17993 391.19C8.71993 392.37 10.1499 392.87 10.8799 393.95C12.0699 395.69 10.9899 398.13 11.6199 400.14C12.2199 402.03 14.2799 403.17 16.2599 403.25C18.2399 403.33 20.1599 402.58 21.9499 401.74C24.6999 400.45 27.3799 398.9 29.5199 396.75C31.6599 394.6 33.2399 391.77 33.4499 388.74C33.5199 387.7 33.4099 386.59 32.8399 385.72C31.9199 384.32 30.0099 383.87 28.3699 384.2C26.7299 384.53 25.2999 385.48 23.9099 386.41C25.4399 385.44 26.9599 384.47 28.4899 383.5C29.8699 382.62 31.3199 381.67 32.0199 380.19C32.7799 378.58 32.4199 376.51 31.1699 375.25C29.9099 373.99 27.8399 373.63 26.2299 374.38C32.0399 371.39 37.7399 366.62 38.5399 360.13C38.5999 359.63 38.6299 359.1 38.4099 358.65C38.0499 357.9 37.1599 357.59 36.3599 357.4C29.5199 355.79 21.9299 357.9 16.8899 362.79" fill="white"/>
<path d="M21.18 360.89C24.88 356.72 37.34 337.87 26.88 334.44C21.91 332.81 16.91 339.55 14.1 342.56C9.75998 347.21 4.37997 352.86 2.57997 359.12C1.88997 361.51 1.86997 364.01 2.86997 366.31C3.48997 367.74 4.75998 368.81 5.39998 370.2C6.59998 372.81 5.84998 375.28 5.33998 377.91C4.95998 379.86 4.65998 381.81 5.33998 383.73C5.94998 385.45 6.62997 386.46 6.71997 388.39C6.77997 389.53 6.37997 390.41 6.81997 391.56C7.14997 392.42 7.94997 392.89 8.47997 393.59C9.76997 395.29 9.77998 396.27 10.02 398.24C10.26 400.21 10.44 401.77 12.09 403.14C16.02 406.42 21.63 403.75 25.4 401.59C30.31 398.78 35.98 393.26 34.8 386.97C33.62 380.68 26.82 382.81 23.21 385.19C21.7 386.18 23.1 388.61 24.63 387.62C28.12 385.35 34.3 382.75 33.64 377.59C33.14 373.67 29.34 372.21 25.9 373.15L26.89 375.49C30.82 373.43 34.69 370.82 37.33 367.18C39.15 364.67 41.66 359.81 39.15 357.07C36.64 354.33 30.78 354.69 27.6 355.15C22.96 355.83 18.06 357.89 15.56 362C14.7 363.42 16.36 364.75 17.68 364.12C20.45 362.8 22.87 360.93 25.81 359.94C27.93 359.23 33.96 357.45 35.92 359C38.46 361.01 34.66 365.99 33.27 367.55C31.13 369.97 28.39 371.71 25.59 373.26C24.32 373.96 25.18 376.01 26.58 375.6L28.86 381.64C28.26 382.03 27.66 382.41 27.05 382.78C25.77 383.58 24.49 384.37 23.21 385.16L24.63 387.59L26.04 386.68L31.87 389.82C32.22 391.08 30.17 393.68 29.37 394.67C27.55 396.9 25.16 398.51 22.6 399.8C21.41 400.4 20.1 401.12 18.8 401.43C15.65 402.19 13.83 400.71 12.84 397.56C12.44 396.29 12.95 395.04 12.33 393.77C11.23 391.51 9.98997 390.19 9.74997 387.59C9.64997 386.53 9.49997 385.71 9.24997 384.71C8.50997 381.82 8.12997 379.7 8.72997 376.59C9.02997 375.03 9.36997 373.45 9.14997 371.84C8.95997 370.39 8.38997 369.25 7.61997 368.02C5.24997 364.19 4.59997 361.36 6.68997 357.2C9.12997 352.34 12.91 347.74 16.58 343.78C18.09 342.15 20.39 339.01 22.44 338.21C23.48 336.92 24.58 337.18 25.73 338.98C27.77 339.32 28.48 340.27 27.87 341.81C27.89 342.98 27.42 344.29 27.1 345.41C25.61 350.59 23.03 355.48 19.86 359.81C19.29 360.59 20.56 361.57 21.2 360.85L21.18 360.89Z" fill="#951C67"/>
<path d="M16.4202 378.01C17.8402 376.22 19.7502 374.82 21.8902 374Z" fill="white"/>
<path d="M16.74 378.56C17.8 377.92 18.78 377.24 19.82 376.56C20.86 375.88 21.7901 375.31 22.5101 374.36C22.7801 374.01 22.51 373.37 22.08 373.3C20.6501 373.06 19.35 373.65 18.24 374.52C17.03 375.47 16.31 376.4 15.79 377.84C15.6 378.38 16.28 378.84 16.73 378.56H16.74Z" fill="#951C67"/>
<path d="M380.83 360.28C376.77 355.45 373.89 349.65 372.49 343.5C372.16 342.04 371.91 340.52 372.21 339.06C372.51 337.6 373.45 336.18 374.87 335.7C377.01 334.97 379.21 336.53 380.88 338.06C385.96 342.68 390.48 347.91 394.33 353.59C396.76 357.19 398.98 361.78 397.13 365.72C396.29 367.51 394.69 368.89 394.04 370.76C392.53 375.08 396.58 380.26 394.24 384.19C393.89 384.77 393.42 385.29 393.19 385.93C392.61 387.61 393.95 389.57 393.22 391.19C392.68 392.37 391.25 392.87 390.52 393.95C389.33 395.69 390.41 398.13 389.78 400.14C389.18 402.03 387.12 403.17 385.14 403.25C383.16 403.33 381.24 402.58 379.45 401.74C376.7 400.45 374.02 398.9 371.88 396.75C369.74 394.6 368.16 391.77 367.95 388.74C367.88 387.7 367.99 386.59 368.56 385.72C369.48 384.32 371.39 383.87 373.03 384.2C374.67 384.53 376.1 385.48 377.49 386.41C375.96 385.44 374.44 384.47 372.91 383.5C371.53 382.62 370.08 381.67 369.38 380.19C368.62 378.58 368.98 376.51 370.23 375.25C371.49 373.99 373.56 373.63 375.17 374.38C369.36 371.39 363.66 366.62 362.86 360.13C362.8 359.63 362.77 359.1 362.99 358.65C363.35 357.9 364.24 357.59 365.04 357.4C371.88 355.79 379.47 357.9 384.51 362.79" fill="white"/>
<path d="M381.57 359.85C378.55 355.73 376.05 351.09 374.54 346.2C374.23 345.2 373.93 344.18 373.73 343.15L373.37 340.53L378 337.48C379.69 337.61 383.04 341.92 384.24 343.18C388 347.14 391.71 351.65 394.31 356.48C396.51 360.57 396.6 363.28 394.21 367.42C393.33 368.94 392.51 370.07 392.27 371.86C392.09 373.21 392.31 374.58 392.56 375.91C393.13 379.06 393.29 381.19 392.4 384.28C392.06 385.47 391.81 386.13 391.64 387.42C391.43 389.07 392.02 388.49 391.17 390.49C390.68 391.65 389.78 392.2 389.32 393.23C388.7 394.63 388.87 395.43 388.55 396.93C388.7 397.99 388.27 398.89 387.26 399.63C386.9 401.53 385.9 402.17 384.28 401.56C382.56 401.68 381 400.85 379.49 400.14C377.11 399.02 374.75 397.59 372.89 395.71C371.76 394.57 370.16 392.74 369.98 391.08C368.93 389.42 369.75 388.48 372.45 388.26C373.96 386.35 375.4 386.13 376.78 387.6L378.2 385.17C376.92 384.38 375.63 383.59 374.36 382.79C373.93 382.53 373.5 382.26 373.07 381.98C370.84 380.79 371.42 378.67 374.83 375.61C376.21 376.02 377.1 373.97 375.82 373.27C373.22 371.84 370.68 370.24 368.62 368.07C367.16 366.53 362.7 361.2 365.49 359.01C367.26 357.62 372.94 359.12 374.89 359.71C378.11 360.7 380.73 362.69 383.74 364.12C385.06 364.75 386.72 363.42 385.86 362C383.48 358.09 378.95 356.08 374.56 355.25C371.21 354.62 364.84 354.33 362.26 357.07C359.86 359.62 362.06 364.16 363.69 366.61C366.32 370.55 370.4 373.32 374.52 375.49L375.51 373.15C372.06 372.21 368.3 373.68 367.77 377.59C367.07 382.74 373.32 385.37 376.78 387.62C378.31 388.61 379.71 386.18 378.2 385.19C375.07 383.13 369.8 380.88 367.26 385.17C364.57 389.72 368.64 395.88 371.98 398.8C375.32 401.72 381.32 405.39 386.12 404.55C392.72 403.39 389.66 397.97 392.42 394.02C393.94 391.85 394.61 391.97 394.8 389.27C394.91 387.74 395.07 386.41 395.55 384.96C395.91 383.86 396.34 383.1 396.47 381.91C396.77 379.01 395.19 376.3 395.25 373.45C395.33 369.85 398.56 367.65 399.2 364.23C400.36 358.03 395.45 352.2 391.84 347.73C388.23 343.26 383.3 336.17 377.81 334.53C372.76 333.02 370.46 337.96 370.97 342.22C371.81 349.23 375.66 355.74 380.25 360.91C380.88 361.63 382.17 360.66 381.59 359.87L381.57 359.85Z" fill="#951C67"/>
<path d="M384.99 378.01C383.57 376.22 381.66 374.82 379.52 374Z" fill="white"/>
<path d="M385.61 377.84C385.39 377.22 385.19 376.56 384.77 376.05C384.3 375.48 383.74 374.97 383.17 374.52C382.06 373.65 380.76 373.07 379.33 373.3C378.9 373.37 378.63 374.01 378.9 374.36C379.63 375.31 380.6 375.91 381.59 376.56C382.58 377.21 383.61 377.92 384.67 378.56C385.12 378.84 385.81 378.37 385.61 377.84Z" fill="#951C67"/>
</svg>
