<svg width="205" height="79" viewBox="0 0 205 79" fill="none" xmlns="http://www.w3.org/2000/svg">
<path d="M53.968 14.5314C50.1917 10.6805 46.4873 8.46745 41.0309 7.82048C35.5745 7.17352 30.149 8.27747 25.2064 10.3416C14.977 14.6136 7.04413 23.5272 2.83111 33.663C-1.3665 43.7524 -1.2175 55.562 5.45654 64.5681C11.663 72.9427 21.466 78.1594 31.8907 78.6626C37.5937 78.9399 43.4149 77.7641 48.5167 75.2019C50.8596 74.0261 53.0843 72.1879 54.8106 70.2162C56.5369 68.2445 58.3249 66.011 58.8232 63.5001C59.039 62.4321 57.9087 61.3179 56.8606 61.9906C55.3603 62.9559 54.1632 64.219 52.627 65.1278C50.8133 66.2009 48.974 67.0995 47.0011 67.8389C43.3172 69.2201 39.6591 70.4575 35.6978 70.7091C27.6263 71.2277 19.6832 68.2907 14.0778 62.4167C1.07911 48.7844 10.9489 27.6811 24.9032 19.0037C29.1265 16.3799 33.6787 14.9422 38.6264 14.5674C41.0309 14.3876 43.3378 14.5211 45.7372 14.593C48.2855 14.6752 50.9367 14.7009 53.3669 15.5532C53.968 15.7637 54.3739 14.9422 53.9628 14.5263L53.968 14.5314Z" fill="#951C67"/>
<path d="M75.0692 77.6869C73.3685 63.0789 71.9505 48.6301 72.192 33.899L68.1228 34.4484C70.4451 41.3595 72.6081 48.3477 75.3518 55.11C77.2579 59.8082 79.4363 66.9093 84.9955 68.4343C90.5546 69.9593 94.2538 64.7425 94.855 59.9468C95.6719 53.4669 92.6714 47.3773 90.6574 41.4006C88.3916 34.6691 86.691 27.3985 86.3159 20.2871C86.0487 15.2655 86.8965 8.59048 92.5275 6.81904C99.6023 4.59576 103.42 16.8367 97.8144 20.4771C96.8074 21.1292 93.5962 22.1818 94.7625 19.748C95.6462 17.9047 97.8349 17.6685 99.5818 18.1203C102.849 18.9675 105.583 21.4527 108.799 22.5771C121.171 26.9108 138.146 21.047 141.507 7.41979C141.81 6.19776 140.155 5.00653 139.241 6.1002C135.187 10.9524 130.291 15.9124 124.135 17.8841C120.441 19.0702 116.367 19.4348 112.524 18.8802C108.825 18.3462 105.619 16.6724 102.089 15.5992C99.5047 14.8136 96.7354 14.6082 94.5107 16.3694C92.8666 17.6685 91.5257 19.825 92.1525 21.9764C92.882 24.4821 95.8877 24.174 97.8863 23.3884C100.311 22.4385 102.182 20.4925 103.096 18.0587C105.11 12.6828 103.219 4.15418 97.5934 1.68444C91.9675 -0.785306 85.1496 2.21844 82.1388 7.20414C78.419 13.3554 79.4466 21.0214 80.6797 27.7323C82.1594 35.7833 85.6531 42.828 88.3916 50.4478C89.6195 53.8674 91.0273 58.3499 89.1777 61.8055C86.9478 65.98 83.8857 61.7799 82.5088 59.2844C77.9977 51.1101 74.9459 42.2016 72.1149 33.3393C71.4059 31.1211 68.1177 31.5165 68.0458 33.8887C67.6245 48.5942 68.7753 63.7926 72.7571 77.9847C73.1014 79.2067 75.2233 79.027 75.064 77.6715L75.0692 77.6869Z" fill="#951C67"/>
<path d="M111.764 2.77306C108.373 7.98982 107.021 14.4183 105.598 20.4002C104.119 26.613 103.07 32.9645 102.526 39.3314C101.991 45.5803 101.981 51.9164 102.449 58.1703C102.916 64.4243 103.189 71.5614 107.129 76.7422C107.951 77.8256 109.801 77.8667 110.202 76.3417C111.758 70.3907 110.227 64.1727 109.765 58.1703C109.292 52.055 109.138 45.9294 109.308 39.8038C109.477 33.6782 109.873 27.45 110.721 21.3193C111.568 15.1885 113.408 9.37616 113.69 3.29165C113.742 2.21852 112.298 1.96179 111.774 2.77306H111.764Z" fill="#951C67"/>
<path d="M118.412 59.7774C119.588 53.6159 121.222 47.3414 123.2 41.3801C124.773 36.6306 126.684 30.4075 132.058 28.903L129.361 26.2074C127.105 32.1224 125.435 37.8527 125.05 44.199C124.706 49.9447 124.264 56.7069 127.29 61.8672C129.715 66.0006 134.385 68.953 139.261 68.5781C143.084 68.2803 147.137 65.8106 146.341 61.5489C146.213 60.8506 145.17 60.5835 144.712 61.1175C142.909 63.2125 139.837 64.1367 137.206 63.1663C133.276 61.7234 131.246 58.16 130.753 54.1704C130.244 50.0525 130.414 45.5905 130.63 41.452C130.866 36.8463 131.518 32.1378 133.368 27.8915C134.164 26.0636 132.865 24.3692 130.892 24.6773C124.922 25.6066 121.895 31.9889 120.087 37.0568C117.436 44.4712 116.357 51.7366 116.886 59.572C116.942 60.3884 118.237 60.6914 118.412 59.7774Z" fill="#951C67"/>
<path d="M113.628 48.0604C115.288 50.0526 118.283 50.1245 120.683 50.371C124.279 50.7406 128.056 51.0693 131.601 50.2118C132.181 50.0731 131.976 49.3235 131.472 49.2567C125.749 48.4917 119.629 49.7394 114.219 47.3005C113.711 47.0694 113.264 47.6291 113.628 48.0655V48.0604Z" fill="#951C67"/>
<path d="M155.44 31.7118C151.72 27.3576 144.414 29.5399 140.633 32.7028C136.538 36.1327 134.473 42.135 135.675 47.3621C138.485 59.5413 158.174 59.7827 161.22 47.6291C161.416 46.8486 160.527 46.0425 159.787 46.5303C156.514 48.6919 153.447 51.2387 149.331 51.3927C145.606 51.5314 142.072 49.5648 140.977 45.9038C139.97 42.515 141.106 38.7103 143.675 36.3021C146.875 33.2984 150.919 33.283 155.004 32.7644C155.538 32.6976 155.805 32.1482 155.44 31.7169V31.7118Z" fill="#951C67"/>
<path d="M156.684 28.4154C158.651 27.5938 160.301 26.572 162.474 26.2999C164.771 26.0124 167.376 26.6028 169.585 27.2241C174.435 28.5899 178.895 31.0237 183.945 31.7015C188.518 32.3177 193.198 31.3421 196.887 28.4975C199.893 26.1767 202.549 22.0639 201.193 18.1307C200.92 17.3452 199.79 17.0884 199.343 17.8894C197.288 21.5812 195.248 24.9803 191.102 26.6234C186.262 28.5437 181.397 26.9623 176.69 25.4835C172.786 24.2563 168.624 22.9624 164.493 23.4656C161.441 23.8353 157.634 24.5336 155.913 27.4038C155.63 27.8711 156.113 28.6516 156.689 28.4102L156.684 28.4154Z" fill="#951C67"/>
<path d="M173.381 11.8768C169.811 20.4464 168.655 29.5501 168.177 38.7513C167.94 43.3314 167.951 47.9012 168.177 52.4812C168.377 56.6248 168.249 61.7492 170.777 65.2818C171.388 66.1341 172.554 65.975 172.924 64.9994C174.45 60.9841 173.345 56.1525 173.125 51.9883C172.893 47.5828 172.837 43.1568 172.929 38.7462C173.114 29.8171 174.209 20.9342 174.378 12.0051C174.388 11.389 173.592 11.3787 173.387 11.8716L173.381 11.8768Z" fill="#951C67"/>
<path d="M41.74 29.8632C35.3537 34.2635 33.1444 41.9757 36.3401 49.1487C39.2276 55.6286 47.4738 61.6669 54.3791 57.0612C59.8406 53.4156 62.4866 46.0731 61.423 39.7319C60.8168 36.1376 59.075 32.2302 55.8536 30.2483C52.5706 28.2304 49.0409 28.6976 45.4238 29.17C45.0179 29.2213 44.8895 29.7759 45.3211 29.9145C47.6023 30.6488 49.9759 31.4498 52.1236 32.5178C54.8209 33.863 56.2646 36.2711 57.097 39.1209C58.3866 43.5315 57.3282 49.8881 53.1871 52.5838C48.3318 55.7467 42.9731 51.2796 40.9385 46.9049C38.7857 42.2632 39.1146 35.044 42.8138 31.2444C43.492 30.5512 42.5929 29.2675 41.74 29.8529V29.8632Z" fill="#951C67"/>
<path d="M185.086 37.0517C178.699 41.4521 176.49 49.1643 179.686 56.3373C182.573 62.8172 190.819 68.8555 197.725 64.2497C203.186 60.6042 205.832 53.2617 204.769 46.9204C204.162 43.3262 202.421 39.4188 199.199 37.4368C195.916 35.4189 192.386 35.8862 188.769 36.3586C188.364 36.4099 188.235 36.9645 188.667 37.1031C190.948 37.8373 193.322 38.6383 195.469 39.7063C198.166 41.0516 199.61 43.4597 200.443 46.3094C201.732 50.7201 200.674 57.0767 196.533 59.7724C191.677 62.9353 186.319 58.4682 184.284 54.0935C182.131 49.4518 182.46 42.2326 186.159 38.433C186.838 37.7398 185.938 36.4561 185.086 37.0415V37.0517Z" fill="#951C67"/>
</svg>
