<?xml version="1.0" encoding="UTF-8"?>
<svg id="Capa_2" data-name="Capa 2" xmlns="http://www.w3.org/2000/svg" viewBox="0 0 46.75 83.35">
  <defs>
    <style>
      .cls-1 {
        fill: #951c67;
        stroke-width: 0px;
      }
    </style>
  </defs>
  <g id="Capa_1-2" data-name="Capa 1">
    <g>
      <path class="cls-1" d="m29.33,82.45c-.09.05-.18.08-.26.14-.94.61-1.66.45-2.34-.44-2.55-3.31-5.09-6.63-7.7-9.9-1.23-1.54-2.59-2.96-3.9-4.43-.35-.39-.64-.78-.56-1.35.02-.14-.16-.35-.31-.45-.54-.36-.8-.83-.82-1.48-.22-4.88-1.33-9.59-2.73-14.25-1.52-5.07-3.06-10.13-4.57-15.2-.99-3.32-2-6.63-2.93-9.97C1.97,20.72.94,16.26.41,11.71.23,10.19.12,8.66,0,7.14c-.08-1.09.45-1.6,1.55-1.63.21,0,.49-.18.62-.36C5.05,1.44,9.74-.75,14.57.24c2.66.55,4.34,2.21,5.5,4.55,1.13,2.28,1.63,4.73,2.03,7.21.57,3.46,1.09,6.94,1.67,10.4,1.08,6.38,2.14,12.76,3.32,19.12.73,3.95,1.69,7.86,2.49,11.81.37,1.83.63,3.69.91,5.54.06.38.22.61.48.89.35.38.7.92.72,1.4.19,4.02.44,8.05.09,12.07-.25,2.86-.78,5.65-1.96,8.29-.02.05,0,.13-.01.19l-.5.74ZM9.24,3.87c.11.3.18.45.23.6.97,3.16,2.12,6.28,2.87,9.5,1.22,5.24,2.15,10.55,3.24,15.82.4,1.92.86,3.82,1.35,5.71.78,3,1.66,5.98,2.42,8.99.69,2.76,1.21,5.57,1.94,8.33.58,2.19,1.36,4.33,2.03,6.5.29.96.51,1.94.76,2.92,1.26-.99,2.66-1.44,4.14-1.39.44-.66.16-1.17-.15-1.73-.48-.87-.91-1.77-1.3-2.68-2.39-5.57-3.31-11.49-4.11-17.44-.35-2.61-.65-5.23-1.03-7.84-.41-2.82-.89-5.63-1.33-8.45-.6-3.78-1.16-7.57-1.83-11.34-.36-2-.83-4-1.94-5.76-.9-1.44-2.13-2.39-3.9-2.27-1.11.07-2.21.33-3.38.52Zm12.98,58.73c-.48-.91-1.11-1.78-1.4-2.75-.86-2.89-1.63-5.81-2.36-8.73-.74-2.97-1.4-5.96-2.11-8.94-.84-3.54-1.75-7.06-2.54-10.61-1.54-6.91-2.71-13.91-4.8-20.69-.59-1.92-1.27-3.82-1.96-5.9-1.21,1.08-2.31,2.04-3.38,3.02-.15.14-.28.41-.26.61.18,1.8.35,3.6.61,5.38.79,5.31,2.04,10.52,3.61,15.65,1.6,5.24,3.3,10.45,4.96,15.66,1.16,3.66,2.41,7.3,3.47,10.98.71,2.44.92,4.96.64,7.51-.04.35-.1.7-.16,1.18,1.62-1.81,3.45-2.75,5.69-2.38Zm1.67,9.76c1.13-1.64,2.94-1.37,4.72-1.5-.04-2.42-.08-4.82-.12-7.24-1.54-.13-2.67.4-3.54,1.52-.61.79-1.29.99-2.1.47-1.69-1.07-3.65-.67-4.94.71,1.99,2.01,3.97,4.02,5.98,6.05Z"/>
      <path class="cls-1" d="m26.88,82.61c3.74,1.02,7.73.85,11.54.32,2.65-.37,4.91-.58,6.47-2.9.46-.69.15-1.78-.57-2.16-1.32-.71-2.59-1.26-4.05-1.57-.73-.16-1.47-.22-2.19-.39-1.45-.34-2.86-.24-1.66-1.88.87-1.18,3.79-1.79,5.21-2.1,1.89-.41,3.25-.29,4.84-1.43.44-.31.36-1.21-.31-1.15-4.93.48-8.67,1.66-12.88,4.26-.32.2-.57.56-.55.95.24,4.23,7.4,3.62,9.67,5.78l-.25-1.91c-1.29,1.71-5.19,1.58-7.14,1.88-2.72.41-5.46.6-8.14,1.2-.55.12-.52.95,0,1.09h0Z"/>
    </g>
  </g>
</svg>