<?xml version="1.0" encoding="UTF-8"?>
<svg id="Capa_2" data-name="Capa 2" xmlns="http://www.w3.org/2000/svg" viewBox="0 0 89.37 96.11">
  <defs>
    <style>
      .cls-1, .cls-2 {
        stroke: #951c67;
        stroke-miterlimit: 10;
        stroke-width: .16px;
      }

      .cls-3 {
        fill: #961c67;
      }

      .cls-3, .cls-4, .cls-5 {
        stroke-width: 0px;
      }

      .cls-2 {
        fill: #fff;
      }

      .cls-4 {
        fill: #858585;
      }

      .cls-5 {
        fill: #951c67;
      }
    </style>
  </defs>
  <g id="Capa_1-2" data-name="Capa 1">
    <g>
      <g>
        <g>
          <ellipse class="cls-5" cx="34" cy="61.52" rx="2.48" ry="3.66" transform="translate(-10.94 7.47) rotate(-10.82)"/>
          <ellipse class="cls-5" cx="65.42" cy="55.51" rx="2.48" ry="3.66" transform="translate(-9.26 13.26) rotate(-10.82)"/>
          <g>
            <path class="cls-4" d="m17.47,76.54s-.03.02-.05.03c.11-.04.23-.05.37-.03-.13-.04-.24-.04-.32,0Z"/>
            <path class="cls-3" d="m17.8,76.75c.8,1.04.27,5.8-.89,5.55s-.61-5.76.57-5.74c-.02,0-.04-.01-.06-.02-1.96-.33-4.46,7.05-.73,7.68,3.44.58,2.51-6.18,1.1-7.47Z"/>
            <path class="cls-3" d="m84.42,56.98c1.26.37,3.61,4.55,2.52,5.02s-3.86-4.31-2.89-4.99c-.02,0-.04,0-.06.02-1.78.88.49,8.33,3.9,6.66,3.13-1.54-1.57-6.48-3.47-6.71Z"/>
          </g>
          <path class="cls-5" d="m49.24,60.04c.17,1.03.4,2.04.36,3.09s-.46,1.9-.68,2.9c-.23,1.08.34,1.82,1.27,2.28,2.2,1.1,6.14,1.29,6.7-1.87.15-.84-.26-2.11-1.3-2.06-1.11.05-.71,1.18-1.13,1.84-.44.7-2.67,1.01-3.27.37s-.03-1.57.06-2.36c.19-1.6,0-3.3-.86-4.69-.39-.63-1.26-.2-1.15.48h0Z"/>
          <path class="cls-5" d="m62.68,71.39c-2.31,1.64-4.72.87-7.29,1.68s-4.51,2.52-7.45,2.43c-.44-.01-.61.53-.34.83,2.27,2.51,5.7-.35,8.04-1.27s6.92-.07,7.41-3.37c.03-.19-.17-.43-.37-.29h0Z"/>
          <path class="cls-5" d="m25.67,53.55c.76-1.72,2.21-2.92,3.9-3.73,1.33-.64,3.24-.63,4.28-1.75.67-.72.4-1.91-.58-2.19-1.83-.53-4.24,1-5.66,2.06-1.77,1.33-2.42,3.27-2.68,5.41-.05.39.59.55.74.2h0Z"/>
          <path class="cls-5" d="m16.75,60.97c6.67-14.5,21.18-21.23,36.23-24.09,9.46-1.8,21.99-.12,26.63,9.68.48,1.01,1.97.28,1.74-.73-1.47-6.27,1.05-12.64-.04-18.94-.97-5.63-4.62-10.86-8.72-14.7C64.8,4.9,52.59.2,41.94,0c-10.1-.19-23.6,5.18-30.52,12.6S1.44,29.85.37,39.39c-1.48,13.16,1.45,26.83,10.14,37.04.37.43,1.09-.13.78-.6C-2.48,54.31-2.2,18.14,24.39,6.66c6.17-2.66,13.16-5.08,19.96-4.4s14.33,3.24,20.5,6.79c6.48,3.72,12.93,10.1,14.45,17.71,1.3,6.49-1.34,13.07.21,19.57l1.74-.73c-4.58-9.58-16.84-12.18-26.35-10.7-15.87,2.47-32.66,10.01-39.11,25.66-.22.54.71.94.96.4h0Z"/>
          <path class="cls-5" d="m69.61,43.93c-1.03-1.84-2.33-3.4-4.43-3.99-1.74-.49-4.18-.86-5.82.04-.41.22-.67.7-.67,1.16,0,.12.02.24.05.36.1.46.51.81.94.94,1.34.41,2.8-.11,4.18-.04,1.86.1,3.77.71,5.13,2.01.33.31.85-.08.63-.48h0Z"/>
        </g>
        <path class="cls-5" d="m50.34,78.19c.79,3.37,3.6,5.07,6.95,3.92,2.43-.84,5.65-3.71,4.28-6.55-.19-.39-.78-.35-.97,0-.56.98-.54,2.12-1.19,3.07-.58.84-1.45,1.45-2.38,1.84-.36.15-.73.26-1.1.36-2.66.67-4.27-.32-5.39-2.71-.05-.11-.21-.03-.19.08h0Z"/>
      </g>
      <path class="cls-5" d="m16.31,60.83c-5.61.87-8.09,7.62-6.04,12.47,1.65,4.77,7.73,7.6,11.75,4.04.49-.43,1.22-.39,1.67.06,7.9,7.07,16.91,13.82,27.42,16.17,5.11,1.16,9.95-1.37,13.91-4.39,8.78-6.98,13.04-18.09,15.27-28.82.05-.31.34-.52.65-.49,9.3.35,9.01-10.69,4.26-16.07-1.62-2.04-4.39-2.22-6.63-1.11-.16.08-.26-.18-.11-.24,5.74-3.07,9.41,2.88,10.6,7.79,1.4,5.54-2.08,11.28-8.21,10.85,0,0,.65-.49.65-.49-2.01,11.16-6.27,22.66-15.24,30.12-4.36,3.53-9.94,6.31-15.53,5.15-11.11-2.09-20.81-8.91-28.75-16.64,0,0,1.67.06,1.67.06-5.38,4.48-13.25.88-15-5.4-1.39-4.25-.15-9.37,3.6-11.94,1.2-.83,2.63-1.28,4.05-1.36.17-.01.18.24.03.26h0Z"/>
      <g>
        <path class="cls-1" d="m50.05,60.61c-.41.09-.81.2-1.22.29.41-.09.82-.19,1.22-.29.29-.07.59-.12.88-.19-.29.07-.59.13-.88.19Z"/>
        <path class="cls-5" d="m77.12,48.4c-.43.07-.91.06-1.33-.03-3.42-.76-6.87-1.38-10.41-1.51-2.43-.09-4.71.29-6.61,1.93-.62.53-1.25,1.07-1.79,1.67-.78.86-1.64,1.7-2.18,2.68-1.45,2.65-3.93,3.52-6.75,3.92-1.39.2-2.64-.11-3.83-.75-1.05-.57-2.13-1.11-3.22-1.63-3.68-1.74-7.33-1.78-10.86.6-2.56,1.72-5.06,3.52-7.6,5.27-.43.3-.87.63-1.36.78-1.9.57-2.93,2.22-2.51,4.14.44,1.98,2.07,3.07,4.04,2.75.37-.06.8-.02,1.16.09,2.91.9,5.87,1.57,8.94,1.84,3.85.34,7.1-.8,9.68-3.61.94-1.02,1.8-2.12,2.63-3.22.92-1.22,2.08-2.07,3.64-2.39.14-.03.28-.06.41-.09.41-.09.82-.19,1.24-.29.29-.07.59-.12.89-.2.1-.02.19-.05.29-.08,1.9-.58,3.63-.3,5.29.67.85.5,1.77.9,2.69,1.28,3.77,1.59,7.42,1.38,11.02-.82,2.61-1.6,4.96-3.47,7.16-5.54.27-.25.64-.47,1-.58,1.86-.56,2.87-2.28,2.41-4.19-.46-1.92-2.12-3-4.03-2.68Zm-35.84,16.39c-2.11,2.5-4.84,3.75-8.23,3.2-2.82-.45-5.37-1.55-7.85-2.81-.59-.3-.81-.81-.41-1.33,2.03-2.64,4.14-5.22,7.23-6.86.47-.25.99-.4,1.27-.52,2.7-.52,5.05-.33,7.1,1.09,2.52,1.75,2.94,4.81.9,7.22Zm33.87-11.16c-1.8,2.39-3.75,4.66-6.34,6.33-2.72,1.75-6.9,1.62-9.35-.24-2.55-1.94-2.68-5.1-.31-7.63.16-.17.33-.33.5-.49,1.19-1.08,2.63-1.78,4.25-2.17,1.53-.34,3.01-.18,4.43.24.2.06.4.12.6.19,1.97.67,3.87,1.49,5.78,2.3.75.32.91.86.45,1.48Z"/>
        <path class="cls-5" d="m13.82,55.66c-1.46,2.7.77,7.85,3.84,9.22.3-.93.6-1.88.91-2.87-1.96-1.77-4.05-3.56-4.75-6.34Z"/>
        <path class="cls-5" d="m79.41,40.4c.66,1.3.79,2.65.69,4.02-.1,1.36-.3,2.72-.44,3.93.86.6,1.67,1.17,2.46,1.71,1.34-4.27-.02-8.46-2.71-9.66Z"/>
        <path class="cls-2" d="m67.75,49.79c-1.41-.41-2.88-.59-4.39-.25-1.6.39-3.02,1.08-4.2,2.16,1.18-1.08,2.6-1.77,4.2-2.16,1.51-.34,2.98-.17,4.38.25Z"/>
      </g>
    </g>
  </g>
</svg>