<?xml version="1.0" encoding="UTF-8"?>
<svg id="Capa_2" data-name="Capa 2" xmlns="http://www.w3.org/2000/svg" viewBox="0 0 112.08 67.11">
  <defs>
    <style>
      .cls-1 {
        fill: #961c67;
        stroke-width: 0px;
      }
    </style>
  </defs>
  <g id="Capa_1-2" data-name="Capa 1">
    <g>
      <path class="cls-1" d="m92.13,14.88c7.22-1.74,7.81-11.64.79-14.35-3.95-1.52-8.63.3-10.44,4.14-2.71,5.77-.75,12.74,3.11,17.39,1,1.21,3.05-.37,2.18-1.68-2.2-3.33-3.89-7.73-3.61-11.8.26-3.72,4.07-7.55,8.06-6.64,2.52.57,4.3,2.98,4.58,5.46.38,3.41-1.83,5.65-4.92,6.61-.56.17-.33,1.01.24.88h0Z"/>
      <path class="cls-1" d="m36.73,1.75c.67,2.85,2.63,4.71,5.57,5.15,2.51.37,4.92-.45,7.32-1.02,2.82-.67,5.49-.65,8.3-1.08.76-.12.61-1.19,0-1.39-6.24-2.06-17.5,7.19-20.58-1.83-.13-.38-.7-.23-.61.17h0Z"/>
      <path class="cls-1" d="m49.17,43.45c.54,0,.54-.84,0-.84s-.54.84,0,.84h0Z"/>
      <path class="cls-1" d="m48.99,7.58c-.48,12.09-.47,24.24-.45,36.35,0,1.03,1.38,1.12,1.72.23,1.58-4.22,7.06-7.12,10.52-9.92s6.88-5.58,10.17-8.57c4.42-4.03,8.74-8.17,13.01-12.35,1.34-1.31-.7-3.33-2.05-2.05-5.15,4.9-10.29,9.8-15.44,14.7h2.04c-2.75-2.95-5.63-5.78-8.59-8.51-2.53-2.33-6.71-6.99-10.55-6.91-4.72.1-8.54,7.39-11.02,10.63-5.67,7.41-12.14,14.16-17.38,21.91-.67,1,.21,2.61,1.43,2.5,4.64-.41,8.77-1.47,13.53-1.15,4.5.3,8.97.92,13.47,1.16,2.14.11,2.14-3.22,0-3.33-4.5-.23-8.98-.86-13.47-1.15-4.9-.32-8.78.74-13.53,1.16l1.43,2.5c4.61-6.83,10.2-12.86,15.33-19.28,1.38-1.73,2.68-3.52,4.03-5.27s4.14-6.46,6.7-6.37c3.3.11,8.05,5.71,10.27,7.82s4.27,4.17,6.3,6.35c.54.58,1.49.52,2.04,0,5.15-4.9,10.3-9.79,15.44-14.69l-2.05-2.05c-4.85,4.75-9.77,9.41-14.66,14.12-3.17,3.05-6.16,6.33-9.54,9.16s-7.57,4.85-9.13,9.14l1.72.23c-.15-12.1.04-24.26-.62-36.35-.02-.43-.66-.44-.67,0h0Z"/>
      <path class="cls-1" d="m4.99,30.68C.58,33.95-.54,41.53.22,46.68c.92,6.25,4.58,12.03,9.63,15.76,4.72,3.48,10.81,5.33,16.66,4.46,6.2-.92,10.78-5.52,13.88-10.72,6.29-10.52,5.31-24.69-5.05-32.26-9.47-6.91-26.63-4.3-31.42,7.37-.74,1.8,1.76,2.7,2.94,1.71,3.82-3.2,6.58-6.6,11.56-8.18,4.64-1.47,9.69-.67,13.76,1.97,9.04,5.87,9.93,17.76,5,26.61-2.56,4.59-6.51,8.99-12.03,9.5-4.6.43-9.31-1.19-12.96-3.93-3.84-2.9-6.7-7.17-7.69-11.91-1.16-5.55,1.4-9.77,2.33-14.96.17-.94-.87-2.14-1.85-1.42Z"/>
      <path class="cls-1" d="m70.1,47.73c-1.06,5.31,3,11.71,7.04,14.91,5,3.96,11.94,5.24,18.1,3.79,13.88-3.26,19.24-17.44,15.86-30.27-3.02-11.49-13.76-19.87-25.8-16.07-5.59,1.76-10.13,5.83-12.86,10.98-2.52,4.76-4.78,12.2-2.84,17.46.53,1.43,3.12,1.9,3.4,0,.54-3.78.23-7.45,1.37-11.19,1.49-4.92,4.45-9.32,9-11.88,9.3-5.23,19.55,0,23.03,9.57s1.42,21.17-8.5,26.07c-5.46,2.69-12.49,2.31-17.52-1.19-4.61-3.22-5.3-8.02-7.99-12.46-.53-.87-2.08-.8-2.3.3Z"/>
      <path class="cls-1" d="m86.86,22.78c.91,6.98,3.3,14.03,5.88,20.55.2.51,1.04.3.84-.23-2.42-6.72-4.13-13.59-6.34-20.37-.06-.2-.41-.18-.38.05h0Z"/>
    </g>
  </g>
</svg>