<svg width="401" height="506" viewBox="0 0 401 506" fill="none" xmlns="http://www.w3.org/2000/svg">
<path d="M160.222 185.336C164.014 184.612 166.222 179.49 165.153 173.898C164.084 168.305 160.143 164.358 156.352 165.083C152.56 165.808 150.352 170.929 151.421 176.522C152.49 182.115 156.431 186.061 160.222 185.336Z" fill="#951C67"/>
<path d="M248.638 168.428C252.43 167.704 254.637 162.582 253.568 156.989C252.499 151.397 248.559 147.45 244.767 148.175C240.975 148.9 238.768 154.021 239.837 159.614C240.906 165.207 244.846 169.153 248.638 168.428Z" fill="#951C67"/>
<path d="M288.2 125.46C297.26 159.58 295.16 198.19 276 228.64C263.99 247.7 245.11 263.5 222.85 268.65L220.59 269.12C219.15 269.28 217.15 269.56 215.73 269.49C210.61 269.59 204.81 268.44 199.86 267.17C194.2 265.68 188.41 263.51 183.03 261.16C161.5 251.61 142.32 237.23 125.36 221.04L127.85 221.12C124.52 223.79 120.47 225.62 116.25 226.18C103.46 228.22 91.2101 218.84 87.4501 206.93C81.8301 191.36 90.5001 171.41 108.1 169.8C108.6 169.76 108.65 170.49 108.18 170.54C100.39 171.48 93.6901 176.8 90.4301 183.83C83.7001 197.6 90.1901 216.53 104.85 221.85C111.78 224.4 119.87 223.03 125.45 218.2C126.19 217.58 127.27 217.63 127.94 218.28C138.61 227.99 149.99 236.86 162.27 244.37C171.96 250.31 182.35 255.5 193.15 259.1C198.28 260.87 204.11 262.27 209.5 262.96C210.86 263.06 212.23 263.17 213.58 263.24C214.13 263.21 216.01 263.2 216.56 263.18C217.34 263.13 218.62 262.89 219.38 262.82C229.56 260.63 238.9 255.57 247.08 249.19C274.1 228.13 287.64 193.87 288.89 160.18C289.45 148.72 288.83 137.14 287.45 125.59C287.42 125.38 287.57 125.2 287.78 125.17C287.97 125.15 288.14 125.27 288.19 125.45L288.2 125.46Z" fill="#951C67"/>
<path d="M111.79 217.49C111.79 217.49 111.7 217.55 111.66 217.58C111.96 217.47 112.31 217.45 112.7 217.49C112.33 217.38 112.02 217.37 111.79 217.49Z" fill="#951C67"/>
<path d="M112.7 217.49C116.23 218.54 122.85 230.28 119.79 231.61C116.66 232.97 108.93 219.47 111.66 217.58C111.61 217.6 111.55 217.61 111.5 217.63C106.48 220.1 112.89 241.06 122.46 236.36C131.27 232.03 118.04 218.12 112.7 217.49Z" fill="#951C67"/>
<path d="M201.17 171.06C201.65 173.97 202.29 176.79 202.18 179.76C202.07 182.73 200.88 185.1 200.26 187.92C199.6 190.96 201.22 193.03 203.84 194.33C210.04 197.42 221.12 197.97 222.7 189.06C223.12 186.69 221.98 183.13 219.03 183.28C215.92 183.43 217.03 186.59 215.85 188.47C214.61 190.45 208.35 191.3 206.64 189.52C204.93 187.74 206.55 185.11 206.81 182.89C207.34 178.38 206.81 173.61 204.38 169.71C203.27 167.93 200.84 169.15 201.16 171.07L201.17 171.06Z" fill="#951C67"/>
<path d="M238.98 202.99C235.89 205.26 233.55 206.38 229.62 206.47C226.23 206.54 222.86 206.49 219.55 207.36C215.85 208.33 212.6 210.38 209.2 212.06C205.09 214.09 202 214.56 197.52 214.54C196.55 214.54 195.72 215.73 196.34 216.6C202.34 224.98 214.34 214.7 220.98 212.53C227.01 210.56 239.43 212.71 240.06 203.61C240.09 203.1 239.42 202.68 238.99 203L238.98 202.99Z" fill="#951C67"/>
<path d="M134.85 152.79C137 147.95 141.08 144.57 145.81 142.29C149.55 140.49 154.93 140.51 157.84 137.36C159.71 135.33 158.95 131.99 156.21 131.2C151.07 129.72 144.27 134.01 140.3 137.01C135.33 140.75 133.5 146.22 132.75 152.23C132.61 153.32 134.4 153.79 134.84 152.8L134.85 152.79Z" fill="#951C67"/>
<path d="M149.73 59.84C149.78 67.93 152.87 75.91 153.25 84.06C153.54 90.4 153.32 96.65 151.68 102.81C149.8 109.88 144.96 115.15 142.49 121.82C141.92 123.35 143.79 124.33 145 123.75C151.1 120.86 154.66 113.06 156.63 106.97C158.75 100.44 159.37 93.29 158.72 86.46C157.82 76.9 154.19 68.59 151.33 59.62C151.06 58.76 149.72 58.89 149.73 59.84Z" fill="#951C67"/>
<path d="M128.94 61.49C128.35 75.49 129.22 89.39 127.68 103.38C125.65 121.9 121.42 145.83 103.22 155.22C97.24 158.3 93.4 162.53 91.3 168.94C90.48 171.43 90 174.12 88.79 176.46C87.05 179.82 83.64 181.09 80.46 182.75C78.94 183.54 79.66 185.96 81.32 185.94C86.83 185.86 91.59 182.95 94.22 178.09C96.85 173.23 96.97 167.9 100.8 163.98C104.63 160.06 110.53 158.44 114.65 154.53C118.1 151.26 120.86 147.27 123.03 143.06C132.75 124.2 133.31 101.3 132.44 80.55C132.17 74.13 131.21 67.86 130.58 61.49C130.48 60.46 128.99 60.42 128.95 61.49H128.94Z" fill="#951C67"/>
<path d="M166.05 62.2301C170.7 77.8001 172.81 95.9901 168.07 111.72C167.62 113.2 169.56 114.26 170.62 113.2C176.7 107.17 175.28 95.3301 174.48 87.6301C173.59 79.0101 172.07 69.1101 167.25 61.7201C166.86 61.1201 165.83 61.4801 166.05 62.2301Z" fill="#951C67"/>
<path d="M192.19 54.65C190.87 63.51 193.61 73.32 196.48 81.63C199.04 89.04 202.59 100.04 210.67 103.01C212.21 103.58 213.07 101.5 212.15 100.46C201.32 88.18 195.68 70.68 193.46 54.65C193.37 54.02 192.28 54.02 192.19 54.65Z" fill="#951C67"/>
<path d="M178.96 57.18C177.74 65.11 180.37 73.74 182.72 81.23C185.07 88.72 187.32 98.25 192.81 104.05C193.9 105.2 195.69 103.99 195.36 102.57C193.58 94.87 189.29 87.62 186.65 80.15C184.01 72.68 181.43 65.04 180.22 57.18C180.12 56.55 179.05 56.55 178.95 57.18H178.96Z" fill="#951C67"/>
<path d="M124.32 28.2101C114.4 27.8901 105.84 29.4601 96.77 33.7001C87.7 37.9401 79.69 43.9901 73.05 51.5501C58.85 67.7001 52.36 89.0501 50.68 110.18C49.73 122.15 50.39 134.15 51.91 146.04C53.43 157.93 55.95 169.51 55.05 181.19C54 194.81 47.08 211.11 56.29 223.21C61.22 229.69 68.32 234.02 74.56 239.1C81.69 244.9 86.66 251.48 90.63 259.74C91.3 261.14 93.43 260.4 93.44 258.98C93.52 244.54 79.07 235.53 69.38 227.12C64.82 223.16 59.75 218.47 58.74 212.2C57.6 205.13 60 197.01 61.02 190.04C64 169.86 58.61 150.29 57.65 130.15C56.62 108.48 59.58 85.7701 70.91 66.8801C82.24 47.9901 101.98 32.5901 124.32 30.8001C125.97 30.6701 126.01 28.2601 124.32 28.2001V28.2101Z" fill="#951C67"/>
<path d="M81.1199 217.85C82.4199 223.13 84.2399 227.48 88.2799 231.22C91.1899 233.92 94.6299 235.8 96.7599 239.27C103.66 250.51 95.5199 266.28 88.0199 275.11C86.8099 276.53 87.9199 279.42 90.0499 278.6C102.22 273.92 111.47 263.63 113.96 250.68L110.14 250.16C110.34 255.84 110.06 261.84 111.15 267.43C112 271.75 115.86 271.71 119.7 270.84C129.33 268.67 140.72 258.96 140.28 248.41C140.15 245.37 135.53 245.33 135.52 248.41C135.5 254.58 141.79 259.75 146.42 262.99C147.24 263.56 148.31 263.39 149.14 262.99C154.12 260.58 168.82 251.91 160.69 245.33C158.67 243.69 154.87 245.89 156.72 248.39C159.39 251.99 149.12 257.01 146.42 258.35H149.14C145.4 255.79 141.29 252.33 140.19 247.79L135.6 249.05C137.58 256.58 124.91 264.97 119.01 266.47C117.86 266.76 114.8 266.72 115.6 267.49C114.86 266.77 115.05 263.51 114.95 262.51C114.56 258.4 114.31 254.28 114.02 250.16C113.88 248.13 110.56 247.34 110.2 249.64C108.35 261.34 100.41 271.12 88.9299 274.57L90.9599 278.06C99.3499 269.5 106.18 254.67 102.98 242.52C101.74 237.8 98.8299 234.14 95.0199 231.22C89.8399 227.24 86.1099 222.89 83.0299 217.04C82.4599 215.96 80.8299 216.72 81.1099 217.85H81.1199Z" fill="#951C67"/>
<path d="M124.32 28.2101C114.4 27.8901 105.84 29.4601 96.77 33.7001C87.7 37.9401 79.69 43.9901 73.05 51.5501C58.85 67.7001 52.36 89.0501 50.68 110.18C49.73 122.15 50.39 134.15 51.91 146.04C53.43 157.93 55.95 169.51 55.05 181.19C54 194.81 47.08 211.11 56.29 223.21C61.22 229.69 68.32 234.02 74.56 239.1C81.69 244.9 86.66 251.48 90.63 259.74C91.3 261.14 93.43 260.4 93.44 258.98C93.52 244.54 79.07 235.53 69.38 227.12C64.82 223.16 59.75 218.47 58.74 212.2C57.6 205.13 60 197.01 61.02 190.04C64 169.86 58.61 150.29 57.65 130.15C56.62 108.48 59.58 85.7701 70.91 66.8801C82.24 47.9901 101.98 32.5901 124.32 30.8001C125.97 30.6701 126.01 28.2601 124.32 28.2001V28.2101Z" fill="#951C67"/>
<path d="M81.1199 217.85C82.4199 223.13 84.2399 227.48 88.2799 231.22C91.1899 233.92 94.6299 235.8 96.7599 239.27C103.66 250.51 95.5199 266.28 88.0199 275.11C86.8099 276.53 87.9199 279.42 90.0499 278.6C102.22 273.92 111.47 263.63 113.96 250.68L110.14 250.16C110.34 255.84 110.06 261.84 111.15 267.43C112 271.75 115.86 271.71 119.7 270.84C129.33 268.67 140.72 258.96 140.28 248.41C140.15 245.37 135.53 245.33 135.52 248.41C135.5 254.58 141.79 259.75 146.42 262.99C147.24 263.56 148.31 263.39 149.14 262.99C154.12 260.58 168.82 251.91 160.69 245.33C158.67 243.69 154.87 245.89 156.72 248.39C159.39 251.99 149.12 257.01 146.42 258.35H149.14C145.4 255.79 141.29 252.33 140.19 247.79L135.6 249.05C137.58 256.58 124.91 264.97 119.01 266.47C117.86 266.76 114.8 266.72 115.6 267.49C114.86 266.77 115.05 263.51 114.95 262.51C114.56 258.4 114.31 254.28 114.02 250.16C113.88 248.13 110.56 247.34 110.2 249.64C108.35 261.34 100.41 271.12 88.9299 274.57L90.9599 278.06C99.3499 269.5 106.18 254.67 102.98 242.52C101.74 237.8 98.8299 234.14 95.0199 231.22C89.8399 227.24 86.1099 222.89 83.0299 217.04C82.4599 215.96 80.8299 216.72 81.1099 217.85H81.1199Z" fill="#951C67"/>
<path d="M203.34 51.69C204.74 66.55 213.98 80.88 225.44 90.03C232.58 95.73 240.7 99.97 249.34 102.9C258.5 106.01 271.3 109.76 280.82 106.78C282.37 106.29 282.26 104.27 280.82 103.74C276.01 101.96 270.82 102.03 265.79 101.24C261.17 100.51 256.6 99.45 252.15 98.03C243.83 95.38 235.9 91.36 228.96 86.06C217.17 77.06 209.39 65.54 205 51.48C204.73 50.62 203.25 50.72 203.35 51.7L203.34 51.69Z" fill="#951C67"/>
<path d="M106.45 184.41C125.04 181.47 126.14 161.39 130.22 146.93C132.72 138.04 137.08 129.75 139.96 120.98C143.39 110.58 147.32 96.1301 143.35 85.4901C142.84 84.1101 140.72 83.8701 140.31 85.4901C138.88 91.0501 139.3 96.8301 138.59 102.5C137.92 107.85 136.66 113.13 135.05 118.27C132.45 126.55 128.61 134.37 125.97 142.63C121.12 157.82 124.19 176.15 106.02 182.78C104.99 183.16 105.4 184.57 106.47 184.4L106.45 184.41Z" fill="#951C67"/>
<path d="M140.08 36.8301C151.89 15.8201 175.41 2.70005 199.54 4.29005C223.51 5.87005 248.94 15.2201 268.62 28.9001C279.62 36.5501 289.13 46.7401 295.54 58.5201C299.36 65.5401 302.13 73.1101 302.77 81.1201C303.41 89.0701 302.42 97.0301 302.37 104.97C302.28 118.13 305.88 128.95 314 139.22C320.56 147.52 329.57 154.64 334.48 164.11C337.64 170.19 335.06 174.9 332.5 180.7C329.94 186.5 327.43 192.93 328.24 199.49C329.81 212.19 341.58 223.27 352.53 228.62L354.04 223.04C342.6 223.58 331.92 218.07 325.9 208.28C324.13 205.41 319.48 207.25 320.4 210.6C322 216.46 319.59 223.4 316.08 228.11L318.68 226.62C311.78 226.55 302.08 225.47 300.27 217.44C299.83 215.49 297.52 214.8 295.9 215.66C289.2 219.23 289.33 226.97 292.3 233.11L294.85 228.67C292.05 228.94 271.54 230.58 272.49 227.51C272.96 226 270.67 225.02 269.92 226.43C264.83 236.03 290.54 234.97 294.85 234.57C297.16 234.35 298.41 232.25 297.4 230.13C295.85 226.89 295.27 222.71 298.9 220.79L294.53 219.01C296.74 228.99 307.25 232.09 316.3 232.57C321.47 232.84 323.11 229.1 324.83 224.58C326.68 219.7 327.6 214.09 326.2 208.99L320.7 211.31C327.8 222.82 340.49 229.66 354.04 229.02C356.79 228.89 358.39 224.82 355.55 223.44C343.9 217.77 331.23 205.36 334.83 191.3C337.53 180.75 345.37 172.56 339.83 161.56C334.92 151.8 325.78 144.49 319 136.09C315.02 131.16 311.45 125.73 309.75 119.57C307.45 111.23 308.15 102.51 308.47 93.9701C309.05 78.5001 306.21 64.87 297.88 51.67C290.94 40.67 281.51 31.2201 270.7 24.0101C250.7 10.6901 225.4 1.90005 201.39 0.160051C175.9 -1.67995 149 12.0401 137.54 35.34C136.71 37.03 139.15 38.5001 140.08 36.8301Z" fill="#951C67"/>
<path d="M124.08 39.89C134.92 21.28 155.18 7.84996 177.09 7.42996C197.78 7.02996 219.59 14.42 237.87 23.6C258.31 33.87 276.6 50.3 284.16 72.46C291.33 93.47 278.73 116.48 287.73 137.21C291.03 144.83 296.75 150.86 301.86 157.27C309.33 166.64 314.03 177.44 318.04 188.67C318.54 190.07 320.89 189.97 320.8 188.3C320.19 176.98 316.4 167.17 309.84 157.96C305.05 151.24 299.02 145.36 294.92 138.16C289.24 128.17 290.15 116.78 291.12 105.73C292.19 93.53 293.72 81.13 289.35 69.39C281 46.94 263.02 30.04 241.95 19.41C222.66 9.67996 200.05 2.27996 178.22 2.74996C155.4 3.24996 131.4 17.53 121.53 38.39C120.73 40.08 123.11 41.54 124.07 39.88L124.08 39.89Z" fill="#951C67"/>
<path d="M218.02 46.7001C214.52 63.8301 237.84 77.0201 250.24 83.0101C260.29 87.8601 270.95 91.6001 281.83 94.0601C290.14 95.9401 300.36 98.3101 308.62 95.2101C309.7 94.8001 309.58 93.1801 308.34 93.1401C289.36 92.6401 271.6 88.7001 254.21 80.9101C241.27 75.1101 217.85 64.1901 219.13 46.8501C219.18 46.2201 218.15 46.0801 218.03 46.7001H218.02Z" fill="#951C67"/>
<path d="M258.5 125.73C255.58 120.48 251.94 116.14 245.97 114.5C241.17 113.18 234 111.98 229.55 114.67C226.66 116.42 227.45 120.47 230.45 121.52C234.23 122.85 238.56 121.22 242.5 121.44C247.65 121.73 253 123.46 256.74 127.08C257.66 127.97 259.13 126.84 258.5 125.72V125.73Z" fill="#951C67"/>
<path d="M112.69 98.4301C110.66 114.4 105.21 131.94 94.5801 144.28C93.6901 145.32 94.5101 147.42 96.0601 146.83C104.1 143.76 107.53 132.74 110 125.3C112.77 116.96 115.4 107.1 113.97 98.2601C113.84 97.4601 112.76 97.7701 112.68 98.4301H112.69Z" fill="#951C67"/>
<path d="M150.08 217.07C150.91 215.23 151.86 213.52 153.03 211.86C154.48 209.8 154.46 208.33 155.76 212.68C156.16 214.03 156.14 215.96 157.73 216.59C161.25 217.99 166 208.72 168.07 207.16L165.31 206.04C165.82 209.57 165.73 214.18 170.03 215.08C173.3 215.76 175.69 213.5 176.86 210.7C177.2 209.89 176.21 208.99 175.43 209.27C173.73 209.87 172.63 210.98 170.99 209.9C169.35 208.82 169.38 206.82 168.92 205.06C168.54 203.6 166.82 203.36 165.78 204.23C164.51 205.3 163.46 206.42 162.44 207.73C161.3 209.2 159.92 212.5 158.35 213.41C159.6 213.92 159.76 213.41 158.81 211.85C158.59 211.16 158.33 210.48 158.04 209.81C157.66 208.97 157.08 207.47 156.16 206.93C151.6 204.27 149.23 213.7 148.66 216.48C148.49 217.29 149.7 217.93 150.08 217.08V217.07Z" fill="#F379AA"/>
<path d="M272.86 189.41C271.19 187.18 264.97 179.52 261.98 183.8C261.45 184.57 261.49 185.62 261.46 186.51C261.42 187.48 261.55 188.41 261.63 189.37C261.67 189.73 261.74 190.1 261.83 190.45C262.07 191.52 262.06 191.61 261.82 190.73C260.74 190.39 258.45 188.26 257.12 187.54C255.43 186.63 253.79 185.95 251.93 185.46C250.47 185.07 249.36 186.39 249.62 187.77C249.77 188.58 250.62 191.17 250.42 191.96C249.89 194.04 247.25 194 245.7 194.16C244.78 194.25 244.06 195.41 244.88 196.15C247.21 198.27 250.74 199.25 253.31 196.83C256.27 194.05 254.23 189.99 253.24 186.77L250.93 189.08C254.56 189.84 257.28 191.95 260.64 193.3C261.77 193.75 263.09 194.42 264.26 193.59C265.12 192.98 265.12 192.11 265.22 191.16C265.33 190.1 263.49 186.57 265.66 186.26C266.88 186.09 270.95 189.75 271.65 190.34C272.27 190.87 273.44 190.15 272.87 189.4L272.86 189.41Z" fill="#F379AA"/>
<path d="M142.54 168.28C142.82 168.33 143.46 168.45 143.72 168.5C144.35 168.5 145.01 168.5 145.64 168.36C150.2 167.28 153.51 162.84 158.81 163.38C162.62 164.01 166.37 169.22 164.31 172.9C164.21 173.07 163.94 173.05 163.86 172.87C163.26 171.78 162.61 171.11 161.89 170.53C161.02 169.8 159.99 169.16 159.03 168.51C157.9 167.72 157.17 167.16 155.53 167.46C151.66 168.3 146.37 171.33 142.36 168.68C142.13 168.55 142.3 168.19 142.55 168.27L142.54 168.28Z" fill="#951C67"/>
<path d="M261.35 145.6C259.99 147.56 257.45 148.49 255.14 148.76C252.2 149.33 248.66 148.45 246.66 150.37C245.69 151.67 244.68 153.12 243.87 154.52C243.41 155.33 243.06 156.2 242.9 157.44C242.88 157.63 242.65 157.73 242.5 157.62C239.76 155.44 240.54 150.97 242.3 148.41C243.54 146.45 246.38 145.69 248.33 145.75C252.26 145.71 255.29 147.21 258.93 146.35C259.28 146.23 259.66 146.06 260.01 145.93L260.34 145.72L261.02 145.29L261.05 145.27C261.25 145.14 261.5 145.41 261.35 145.6Z" fill="#951C67"/>
<path d="M200.13 218.95C201.48 224.33 206.24 228.04 211.61 229.17C216.54 230.21 227.66 229.46 231.07 225.41C231.93 224.39 231.63 222.87 230.29 222.45C226.12 221.14 221.12 223.74 216.85 224.16C210.74 224.76 204.31 224.41 200.72 218.7C200.53 218.39 200.04 218.59 200.13 218.95Z" fill="#951C67"/>
<path d="M211 231.21C212.76 231.8 214.9 232.21 216.9 231.36C218.45 230.7 219.48 230.67 221.16 230.74C222.84 230.81 224.51 230.74 226.19 230.59C229.43 230.28 230.91 226.5 231.47 224.92C231.69 224.3 231.71 223.52 231.24 223.06C231.02 222.84 230.72 222.72 230.42 222.64C228.44 222.08 224.88 225.54 222.91 226.13C219.87 227.04 216.7 227.53 213.52 227.6C212.71 227.62 211.9 227.6 211.09 227.57C210.38 227.54 206.63 225.1 205.94 225.24C204.55 225.53 206.26 227.19 206.87 227.71C208.01 228.7 209.23 230.62 211.01 231.21H211Z" fill="#951C67"/>
<path d="M3.79004 250.86C7.46004 264.23 8.40004 278.16 9.60004 291.98C13.69 339.14 20.95 385.96 29.28 432.53C31.36 444.18 33.52 455.83 35.7 467.47C37.26 475.76 37.02 484.47 39.54 492.57C43.02 503.74 48.91 502.09 59.4 501.76C148.1 498.99 236.39 496.08 324.79 487.99C335.07 487.05 345.35 486.06 355.61 484.84C365.16 483.71 367.72 485.73 368.8 475.22C376.45 400.52 388.28 325.2 388.31 250.01C372.69 244.37 352.22 246.43 335.86 246.1C308.24 245.54 280.61 245.53 252.99 245.66C186.54 245.97 120.08 247.2 53.66 249.39C37.16 249.93 20.67 250.55 4.18004 251.29" fill="#FFF2FC"/>
<path d="M2.17998 251.3C5.61998 265.28 6.44998 279.63 7.55998 293.94C8.66998 308.25 10.14 322.72 11.84 337.07C15.15 365.07 19.25 392.97 23.9 420.78C26.24 434.73 28.71 448.66 31.27 462.57C32.56 469.61 33.24 476.62 34.16 483.7C34.83 488.92 35.72 494.53 38.5 499.11C42.87 506.28 50.68 505.71 58.06 505.43C72.39 504.9 86.74 504.61 101.08 504.18C158.54 502.45 215.99 500.26 273.35 496.25C301.25 494.3 329.04 491.58 356.88 488.88C363.45 488.24 369.88 488.42 372.07 480.91C373.67 475.41 373.61 469.17 374.22 463.52C374.99 456.36 375.79 449.21 376.61 442.05C383.89 378.22 392.4 314.36 392.52 250C392.52 248.06 391.2 246.55 389.43 245.95C379.11 242.41 368.07 241.82 357.24 241.78C346.41 241.74 335.11 241.84 324.03 241.67C298.36 241.28 272.69 241.32 247.01 241.46C195.17 241.76 143.34 242.61 91.52 244.06C62.37 244.88 33.29 246.37 4.17998 247.95C-0.0600212 248.18 -0.110021 254.73 4.17998 254.58C106.07 251.01 208.26 248.97 310.21 249.92C323.62 250.04 337.02 250.38 350.44 250.23C362.79 250.09 375.37 250 387.19 254.05L384.1 250C384.01 304.49 377.92 358.68 371.62 412.73C370.03 426.41 368.42 440.08 366.91 453.76C366.19 460.26 365.51 466.76 364.82 473.26C364.46 476.62 364.99 479.65 361.98 480.11C337.35 483.83 312.02 485.1 287.19 487.01C232.5 491.23 177.69 493.75 122.88 495.85C109.33 496.37 95.78 496.86 82.22 497.33C75.6 497.56 68.99 497.79 62.37 498.02C58.2 498.16 53.25 499.06 49.09 498.3C44.93 497.54 43.49 493.72 42.45 489.87C40.7 483.43 40.57 476.68 39.62 470.11C37.66 456.58 34.61 443.14 32.13 429.7C26.64 400 21.49 370.22 17.42 340.28C15.32 324.87 13.5 309.41 11.97 293.93C10.52 279.29 9.41998 264.61 5.38998 250.41C4.79998 248.34 1.65998 249.21 2.16998 251.3H2.17998Z" fill="#951C67"/>
<path d="M5.30987 250.5C3.17987 260.62 11.8399 269.5 19.7399 276.17C76.7799 324.29 141.19 276.09 202.66 318.4C249.27 269.24 333.05 289.2 388.32 250.01" fill="#FFF2FC"/>
<path d="M4.26996 249.89C-4.48004 262.28 12.46 276.4 21.21 283.18C33.16 292.44 47.33 298.59 62.14 301.52C91.03 307.24 120.5 301.87 149.61 304.64C167.9 306.38 185.03 312.19 200.32 322.42C201.99 323.54 204.61 323.12 205.97 321.69C224.13 302.63 249.17 294.11 274.3 288.69C300.09 283.12 326.55 280.38 351.81 272.5C365.74 268.15 380.02 262.37 391.43 253.1C395.33 249.93 390.32 243.74 386.13 246.24C374.7 253.06 363.37 258.99 350.64 263.07C337.91 267.15 324.92 269.84 311.85 272.25C285.96 277.02 259.41 280.47 235.03 290.92C221.64 296.66 209.55 304.64 199.38 315.1L205.03 314.37C180.34 297.52 151.81 294.02 122.61 294.49C95.34 294.93 66.7 297.41 41.44 284.94C26.69 277.66 11.54 266.48 6.47996 250.18C6.15996 249.13 4.86996 249.05 4.26996 249.89Z" fill="#951C67"/>
<path d="M21.5699 360.28C25.6299 355.45 28.5099 349.65 29.9099 343.5C30.2399 342.04 30.4899 340.52 30.1899 339.06C29.8899 337.6 28.9499 336.18 27.5299 335.7C25.3899 334.97 23.1899 336.53 21.5199 338.06C16.4399 342.68 11.9199 347.91 8.06993 353.59C5.63993 357.19 3.41993 361.78 5.26993 365.72C6.10993 367.51 7.70993 368.89 8.35993 370.76C9.86993 375.08 5.81993 380.26 8.15993 384.19C8.50993 384.77 8.97993 385.29 9.20993 385.93C9.78993 387.61 8.44993 389.57 9.17993 391.19C9.71993 392.37 11.1499 392.87 11.8799 393.95C13.0699 395.69 11.9899 398.13 12.6199 400.14C13.2199 402.03 15.2799 403.17 17.2599 403.25C19.2399 403.33 21.1599 402.58 22.9499 401.74C25.6999 400.45 28.3799 398.9 30.5199 396.75C32.6599 394.6 34.2399 391.77 34.4499 388.74C34.5199 387.7 34.4099 386.59 33.8399 385.72C32.9199 384.32 31.0099 383.87 29.3699 384.2C27.7299 384.53 26.2999 385.48 24.9099 386.41C26.4399 385.44 27.9599 384.47 29.4899 383.5C30.8699 382.62 32.3199 381.67 33.0199 380.19C33.7799 378.58 33.4199 376.51 32.1699 375.25C30.9099 373.99 28.8399 373.63 27.2299 374.38C33.0399 371.39 38.7399 366.62 39.5399 360.13C39.5999 359.63 39.6299 359.1 39.4099 358.65C39.0499 357.9 38.1599 357.59 37.3599 357.4C30.5199 355.79 22.9299 357.9 17.8899 362.79" fill="#FFF2FC"/>
<path d="M22.18 360.89C25.88 356.72 38.34 337.87 27.88 334.44C22.91 332.81 17.91 339.55 15.1 342.56C10.76 347.21 5.37997 352.86 3.57997 359.12C2.88997 361.51 2.86997 364.01 3.86997 366.31C4.48997 367.74 5.75997 368.81 6.39997 370.2C7.59997 372.81 6.84997 375.28 6.33997 377.91C5.95997 379.86 5.65997 381.81 6.33997 383.73C6.94997 385.45 7.62997 386.46 7.71997 388.39C7.77997 389.53 7.37997 390.41 7.81997 391.56C8.14997 392.42 8.94997 392.89 9.47997 393.59C10.77 395.29 10.78 396.27 11.02 398.24C11.26 400.21 11.44 401.77 13.09 403.14C17.02 406.42 22.63 403.75 26.4 401.59C31.31 398.78 36.98 393.26 35.8 386.97C34.62 380.68 27.82 382.81 24.21 385.19C22.7 386.18 24.1 388.61 25.63 387.62C29.12 385.35 35.3 382.75 34.64 377.59C34.14 373.67 30.34 372.21 26.9 373.15L27.89 375.49C31.82 373.43 35.69 370.82 38.33 367.18C40.15 364.67 42.66 359.81 40.15 357.07C37.64 354.33 31.78 354.69 28.6 355.15C23.96 355.83 19.06 357.89 16.56 362C15.7 363.42 17.36 364.75 18.68 364.12C21.45 362.8 23.87 360.93 26.81 359.94C28.93 359.23 34.96 357.45 36.92 359C39.46 361.01 35.66 365.99 34.27 367.55C32.13 369.97 29.39 371.71 26.59 373.26C25.32 373.96 26.18 376.01 27.58 375.6L29.86 381.64C29.26 382.03 28.66 382.41 28.05 382.78C26.77 383.58 25.49 384.37 24.21 385.16L25.63 387.59L27.04 386.68L32.87 389.82C33.22 391.08 31.17 393.68 30.37 394.67C28.55 396.9 26.16 398.51 23.6 399.8C22.41 400.4 21.1 401.12 19.8 401.43C16.65 402.19 14.83 400.71 13.84 397.56C13.44 396.29 13.95 395.04 13.33 393.77C12.23 391.51 10.99 390.19 10.75 387.59C10.65 386.53 10.5 385.71 10.25 384.71C9.50997 381.82 9.12997 379.7 9.72997 376.59C10.03 375.03 10.37 373.45 10.15 371.84C9.95997 370.39 9.38997 369.25 8.61997 368.02C6.24997 364.19 5.59997 361.36 7.68997 357.2C10.13 352.34 13.91 347.74 17.58 343.78C19.09 342.15 21.39 339.01 23.44 338.21C24.48 336.92 25.58 337.18 26.73 338.98C28.77 339.32 29.48 340.27 28.87 341.81C28.89 342.98 28.42 344.29 28.1 345.41C26.61 350.59 24.03 355.48 20.86 359.81C20.29 360.59 21.56 361.57 22.2 360.85L22.18 360.89Z" fill="#951C67"/>
<path d="M17.4202 378.01C18.8402 376.22 20.7502 374.82 22.8902 374Z" fill="#FFF2FC"/>
<path d="M17.74 378.56C18.8 377.92 19.78 377.24 20.82 376.56C21.86 375.88 22.79 375.31 23.51 374.36C23.78 374.01 23.51 373.37 23.08 373.3C21.65 373.06 20.35 373.65 19.24 374.52C18.03 375.47 17.31 376.4 16.79 377.84C16.6 378.38 17.28 378.84 17.73 378.56H17.74Z" fill="#951C67"/>
<path d="M381.83 360.28C377.77 355.45 374.89 349.65 373.49 343.5C373.16 342.04 372.91 340.52 373.21 339.06C373.51 337.6 374.45 336.18 375.87 335.7C378.01 334.97 380.21 336.53 381.88 338.06C386.96 342.68 391.48 347.91 395.33 353.59C397.76 357.19 399.98 361.78 398.13 365.72C397.29 367.51 395.69 368.89 395.04 370.76C393.53 375.08 397.58 380.26 395.24 384.19C394.89 384.77 394.42 385.29 394.19 385.93C393.61 387.61 394.95 389.57 394.22 391.19C393.68 392.37 392.25 392.87 391.52 393.95C390.33 395.69 391.41 398.13 390.78 400.14C390.18 402.03 388.12 403.17 386.14 403.25C384.16 403.33 382.24 402.58 380.45 401.74C377.7 400.45 375.02 398.9 372.88 396.75C370.74 394.6 369.16 391.77 368.95 388.74C368.88 387.7 368.99 386.59 369.56 385.72C370.48 384.32 372.39 383.87 374.03 384.2C375.67 384.53 377.1 385.48 378.49 386.41C376.96 385.44 375.44 384.47 373.91 383.5C372.53 382.62 371.08 381.67 370.38 380.19C369.62 378.58 369.98 376.51 371.23 375.25C372.49 373.99 374.56 373.63 376.17 374.38C370.36 371.39 364.66 366.62 363.86 360.13C363.8 359.63 363.77 359.1 363.99 358.65C364.35 357.9 365.24 357.59 366.04 357.4C372.88 355.79 380.47 357.9 385.51 362.79" fill="#FFF2FC"/>
<path d="M382.57 359.85C379.55 355.73 377.05 351.09 375.54 346.2C375.23 345.2 374.93 344.18 374.73 343.15L374.37 340.53L379 337.48C380.69 337.61 384.04 341.92 385.24 343.18C389 347.14 392.71 351.65 395.31 356.48C397.51 360.57 397.6 363.28 395.21 367.42C394.33 368.94 393.51 370.07 393.27 371.86C393.09 373.21 393.31 374.58 393.56 375.91C394.13 379.06 394.29 381.19 393.4 384.28C393.06 385.47 392.81 386.13 392.64 387.42C392.43 389.07 393.02 388.49 392.17 390.49C391.68 391.65 390.78 392.2 390.32 393.23C389.7 394.63 389.87 395.43 389.55 396.93C389.7 397.99 389.27 398.89 388.26 399.63C387.9 401.53 386.9 402.17 385.28 401.56C383.56 401.68 382 400.85 380.49 400.14C378.11 399.02 375.75 397.59 373.89 395.71C372.76 394.57 371.16 392.74 370.98 391.08C369.93 389.42 370.75 388.48 373.45 388.26C374.96 386.35 376.4 386.13 377.78 387.6L379.2 385.17C377.92 384.38 376.63 383.59 375.36 382.79C374.93 382.53 374.5 382.26 374.07 381.98C371.84 380.79 372.42 378.67 375.83 375.61C377.21 376.02 378.1 373.97 376.82 373.27C374.22 371.84 371.68 370.24 369.62 368.07C368.16 366.53 363.7 361.2 366.49 359.01C368.26 357.62 373.94 359.12 375.89 359.71C379.11 360.7 381.73 362.69 384.74 364.12C386.06 364.75 387.72 363.42 386.86 362C384.48 358.09 379.95 356.08 375.56 355.25C372.21 354.62 365.84 354.33 363.26 357.07C360.86 359.62 363.06 364.16 364.69 366.61C367.32 370.55 371.4 373.32 375.52 375.49L376.51 373.15C373.06 372.21 369.3 373.68 368.77 377.59C368.07 382.74 374.32 385.37 377.78 387.62C379.31 388.61 380.71 386.18 379.2 385.19C376.07 383.13 370.8 380.88 368.26 385.17C365.57 389.72 369.64 395.88 372.98 398.8C376.32 401.72 382.32 405.39 387.12 404.55C393.72 403.39 390.66 397.97 393.42 394.02C394.94 391.85 395.61 391.97 395.8 389.27C395.91 387.74 396.07 386.41 396.55 384.96C396.91 383.86 397.34 383.1 397.47 381.91C397.77 379.01 396.19 376.3 396.25 373.45C396.33 369.85 399.56 367.65 400.2 364.23C401.36 358.03 396.45 352.2 392.84 347.73C389.23 343.26 384.3 336.17 378.81 334.53C373.76 333.02 371.46 337.96 371.97 342.22C372.81 349.23 376.66 355.74 381.25 360.91C381.88 361.63 383.17 360.66 382.59 359.87L382.57 359.85Z" fill="#951C67"/>
<path d="M385.99 378.01C384.57 376.22 382.66 374.82 380.52 374Z" fill="#FFF2FC"/>
<path d="M386.61 377.84C386.39 377.22 386.19 376.56 385.77 376.05C385.3 375.48 384.74 374.97 384.17 374.52C383.06 373.65 381.76 373.07 380.33 373.3C379.9 373.37 379.63 374.01 379.9 374.36C380.63 375.31 381.6 375.91 382.59 376.56C383.58 377.21 384.61 377.92 385.67 378.56C386.12 378.84 386.81 378.37 386.61 377.84Z" fill="#951C67"/>
</svg>
