<?xml version="1.0" encoding="UTF-8"?>
<svg id="Capa_2" data-name="Capa 2" xmlns="http://www.w3.org/2000/svg" viewBox="0 0 399.36 505.56">
  <defs>
    <style>
      .cls-1 {
        fill: #c04e83;
      }

      .cls-1, .cls-2, .cls-3, .cls-4, .cls-5, .cls-6 {
        stroke-width: 0px;
      }

      .cls-2 {
        fill: #961c67;
      }

      .cls-3 {
        fill: #fff;
      }

      .cls-4 {
        fill: #fac9dd;
      }

      .cls-5 {
        fill: #858585;
      }

      .cls-6 {
        fill: #951c67;
      }
    </style>
  </defs>
  <g id="Capa_1-2" data-name="Capa 1">
    <g>
      <g>
        <ellipse class="cls-6" cx="157.28" cy="175.22" rx="6.99" ry="10.31" transform="translate(-30.09 32.63) rotate(-10.82)"/>
        <ellipse class="cls-6" cx="245.7" cy="158.32" rx="6.99" ry="10.31" transform="translate(-25.35 48.92) rotate(-10.82)"/>
        <path class="cls-6" d="m287.2,125.46c9.06,34.12,6.96,72.73-12.2,103.18-12.01,19.06-30.89,34.86-53.15,40.01,0,0-2.26.47-2.26.47-1.44.16-3.44.44-4.86.37-5.12.1-10.92-1.05-15.87-2.32-5.66-1.49-11.45-3.66-16.83-6.01-21.53-9.55-40.71-23.93-57.67-40.12,0,0,2.49.08,2.49.08-3.33,2.67-7.38,4.5-11.6,5.06-12.79,2.04-25.04-7.34-28.8-19.25-5.62-15.57,3.05-35.52,20.65-37.13.5-.04.55.69.08.74-7.79.94-14.49,6.26-17.75,13.29-6.73,13.77-.24,32.7,14.42,38.02,6.93,2.55,15.02,1.18,20.6-3.65.74-.62,1.82-.57,2.49.08,10.67,9.71,22.05,18.58,34.33,26.09,9.69,5.94,20.08,11.13,30.88,14.73,5.13,1.77,10.96,3.17,16.35,3.86,1.36.1,2.73.21,4.08.28.55-.03,2.43-.04,2.98-.06.78-.05,2.06-.29,2.82-.36,10.18-2.19,19.52-7.25,27.7-13.63,27.02-21.06,40.56-55.32,41.81-89.01.56-11.46-.06-23.04-1.44-34.59-.03-.21.12-.39.33-.42.19-.02.36.1.41.28h0Z"/>
        <g>
          <path class="cls-5" d="m110.79,217.49s-.09.06-.13.09c.3-.11.65-.13,1.04-.09-.37-.11-.68-.12-.91,0Z"/>
          <path class="cls-2" d="m111.7,217.49c3.53,1.05,10.15,12.79,7.09,14.12-3.13,1.36-10.86-12.14-8.13-14.03-.05.02-.11.03-.16.05-5.02,2.47,1.39,23.43,10.96,18.73,8.81-4.33-4.42-18.24-9.76-18.87Z"/>
        </g>
        <path class="cls-6" d="m200.17,171.06c.48,2.91,1.12,5.73,1.01,8.7s-1.3,5.34-1.92,8.16c-.66,3.04.96,5.11,3.58,6.41,6.2,3.09,17.28,3.64,18.86-5.27.42-2.37-.72-5.93-3.67-5.78-3.11.15-2,3.31-3.18,5.19-1.24,1.98-7.5,2.83-9.21,1.05s-.09-4.41.17-6.63c.53-4.51,0-9.28-2.43-13.18-1.11-1.78-3.54-.56-3.22,1.36h0Z"/>
        <path class="cls-6" d="m237.98,202.99c-3.09,2.27-5.43,3.39-9.36,3.48-3.39.07-6.76.02-10.07.89-3.7.97-6.95,3.02-10.35,4.7-4.11,2.03-7.2,2.5-11.68,2.48-.97,0-1.8,1.19-1.18,2.06,6,8.38,18-1.9,24.64-4.07,6.03-1.97,18.45.18,19.08-8.92.03-.51-.64-.93-1.07-.61h0Z"/>
        <path class="cls-6" d="m133.85,152.79c2.15-4.84,6.23-8.22,10.96-10.5,3.74-1.8,9.12-1.78,12.03-4.93,1.87-2.03,1.11-5.37-1.63-6.16-5.14-1.48-11.94,2.81-15.91,5.81-4.97,3.74-6.8,9.21-7.55,15.22-.14,1.09,1.65,1.56,2.09.57h0Z"/>
        <path class="cls-6" d="m148.73,59.84c.05,8.09,3.14,16.07,3.52,24.22.29,6.34.07,12.59-1.57,18.75-1.88,7.07-6.72,12.34-9.19,19.01-.57,1.53,1.3,2.51,2.51,1.93,6.1-2.89,9.66-10.69,11.63-16.78,2.12-6.53,2.74-13.68,2.09-20.51-.9-9.56-4.53-17.87-7.39-26.84-.27-.86-1.61-.73-1.6.22h0Z"/>
        <path class="cls-6" d="m127.94,61.49c-.59,14,.28,27.9-1.26,41.89-2.03,18.52-6.26,42.45-24.46,51.84-5.98,3.08-9.82,7.31-11.92,13.72-.82,2.49-1.3,5.18-2.51,7.52-1.74,3.36-5.15,4.63-8.33,6.29-1.52.79-.8,3.21.86,3.19,5.51-.08,10.27-2.99,12.9-7.85s2.75-10.19,6.58-14.11,9.73-5.54,13.85-9.45c3.45-3.27,6.21-7.26,8.38-11.47,9.72-18.86,10.28-41.76,9.41-62.51-.27-6.42-1.23-12.69-1.86-19.06-.1-1.03-1.59-1.07-1.63,0h0Z"/>
        <path class="cls-6" d="m165.05,62.23c4.65,15.57,6.76,33.76,2.02,49.49-.45,1.48,1.49,2.54,2.55,1.48,6.08-6.03,4.66-17.87,3.86-25.57-.89-8.62-2.41-18.52-7.23-25.91-.39-.6-1.42-.24-1.2.51h0Z"/>
        <path class="cls-6" d="m191.19,54.65c-1.32,8.86,1.42,18.67,4.29,26.98,2.56,7.41,6.11,18.41,14.19,21.38,1.54.57,2.4-1.51,1.48-2.55-10.83-12.28-16.47-29.78-18.69-45.81-.09-.63-1.18-.63-1.27,0h0Z"/>
        <path class="cls-6" d="m177.96,57.18c-1.22,7.93,1.41,16.56,3.76,24.05s4.6,17.02,10.09,22.82c1.09,1.15,2.88-.06,2.55-1.48-1.78-7.7-6.07-14.95-8.71-22.42s-5.22-15.11-6.43-22.97c-.1-.63-1.17-.63-1.27,0h0Z"/>
        <path class="cls-6" d="m123.32,28.21c-9.92-.32-18.48,1.25-27.55,5.49s-17.08,10.29-23.72,17.85c-14.2,16.15-20.69,37.5-22.37,58.63-.95,11.97-.29,23.97,1.23,35.86s4.04,23.47,3.14,35.15c-1.05,13.62-7.97,29.92,1.24,42.02,4.93,6.48,12.03,10.81,18.27,15.89,7.13,5.8,12.1,12.38,16.07,20.64.67,1.4,2.8.66,2.81-.76.08-14.44-14.37-23.45-24.06-31.86-4.56-3.96-9.63-8.65-10.64-14.92-1.14-7.07,1.26-15.19,2.28-22.16,2.98-20.18-2.41-39.75-3.37-59.89-1.03-21.67,1.93-44.38,13.26-63.27s31.07-34.29,53.41-36.08c1.65-.13,1.69-2.54,0-2.6h0Z"/>
        <path class="cls-6" d="m80.12,217.85c1.3,5.28,3.12,9.63,7.16,13.37,2.91,2.7,6.35,4.58,8.48,8.05,6.9,11.24-1.24,27.01-8.74,35.84-1.21,1.42-.1,4.31,2.03,3.49,12.17-4.68,21.42-14.97,23.91-27.92l-3.82-.52c.2,5.68-.08,11.68,1.01,17.27.85,4.32,4.71,4.28,8.55,3.41,9.63-2.17,21.02-11.88,20.58-22.43-.13-3.04-4.75-3.08-4.76,0-.02,6.17,6.27,11.34,10.9,14.58.82.57,1.89.4,2.72,0,4.98-2.41,19.68-11.08,11.55-17.66-2.02-1.64-5.82.56-3.97,3.06,2.67,3.6-7.6,8.62-10.3,9.96h2.72c-3.74-2.56-7.85-6.02-8.95-10.56l-4.59,1.26c1.98,7.53-10.69,15.92-16.59,17.42-1.15.29-4.21.25-3.41,1.02-.74-.72-.55-3.98-.65-4.98-.39-4.11-.64-8.23-.93-12.35-.14-2.03-3.46-2.82-3.82-.52-1.85,11.7-9.79,21.48-21.27,24.93l2.03,3.49c8.39-8.56,15.22-23.39,12.02-35.54-1.24-4.72-4.15-8.38-7.96-11.3-5.18-3.98-8.91-8.33-11.99-14.18-.57-1.08-2.2-.32-1.92.81h0Z"/>
        <path class="cls-6" d="m123.32,28.21c-9.92-.32-18.48,1.25-27.55,5.49s-17.08,10.29-23.72,17.85c-14.2,16.15-20.69,37.5-22.37,58.63-.95,11.97-.29,23.97,1.23,35.86s4.04,23.47,3.14,35.15c-1.05,13.62-7.97,29.92,1.24,42.02,4.93,6.48,12.03,10.81,18.27,15.89,7.13,5.8,12.1,12.38,16.07,20.64.67,1.4,2.8.66,2.81-.76.08-14.44-14.37-23.45-24.06-31.86-4.56-3.96-9.63-8.65-10.64-14.92-1.14-7.07,1.26-15.19,2.28-22.16,2.98-20.18-2.41-39.75-3.37-59.89-1.03-21.67,1.93-44.38,13.26-63.27s31.07-34.29,53.41-36.08c1.65-.13,1.69-2.54,0-2.6h0Z"/>
        <path class="cls-6" d="m80.12,217.85c1.3,5.28,3.12,9.63,7.16,13.37,2.91,2.7,6.35,4.58,8.48,8.05,6.9,11.24-1.24,27.01-8.74,35.84-1.21,1.42-.1,4.31,2.03,3.49,12.17-4.68,21.42-14.97,23.91-27.92l-3.82-.52c.2,5.68-.08,11.68,1.01,17.27.85,4.32,4.71,4.28,8.55,3.41,9.63-2.17,21.02-11.88,20.58-22.43-.13-3.04-4.75-3.08-4.76,0-.02,6.17,6.27,11.34,10.9,14.58.82.57,1.89.4,2.72,0,4.98-2.41,19.68-11.08,11.55-17.66-2.02-1.64-5.82.56-3.97,3.06,2.67,3.6-7.6,8.62-10.3,9.96h2.72c-3.74-2.56-7.85-6.02-8.95-10.56l-4.59,1.26c1.98,7.53-10.69,15.92-16.59,17.42-1.15.29-4.21.25-3.41,1.02-.74-.72-.55-3.98-.65-4.98-.39-4.11-.64-8.23-.93-12.35-.14-2.03-3.46-2.82-3.82-.52-1.85,11.7-9.79,21.48-21.27,24.93l2.03,3.49c8.39-8.56,15.22-23.39,12.02-35.54-1.24-4.72-4.15-8.38-7.96-11.3-5.18-3.98-8.91-8.33-11.99-14.18-.57-1.08-2.2-.32-1.92.81h0Z"/>
        <path class="cls-6" d="m202.34,51.69c1.4,14.86,10.64,29.19,22.1,38.34,7.14,5.7,15.26,9.94,23.9,12.87,9.16,3.11,21.96,6.86,31.48,3.88,1.55-.49,1.44-2.51,0-3.04-4.81-1.78-10-1.71-15.03-2.5-4.62-.73-9.19-1.79-13.64-3.21-8.32-2.65-16.25-6.67-23.19-11.97-11.79-9-19.57-20.52-23.96-34.58-.27-.86-1.75-.76-1.65.22h0Z"/>
        <path class="cls-6" d="m105.45,184.41c18.59-2.94,19.69-23.02,23.77-37.48,2.5-8.89,6.86-17.18,9.74-25.95,3.43-10.4,7.36-24.85,3.39-35.49-.51-1.38-2.63-1.62-3.04,0-1.43,5.56-1.01,11.34-1.72,17.01-.67,5.35-1.93,10.63-3.54,15.77-2.6,8.28-6.44,16.1-9.08,24.36-4.85,15.19-1.78,33.52-19.95,40.15-1.03.38-.62,1.79.45,1.62h0Z"/>
        <path class="cls-6" d="m139.08,36.83c11.81-21.01,35.33-34.13,59.46-32.54,23.97,1.58,49.4,10.93,69.08,24.61,11,7.65,20.51,17.84,26.92,29.62,3.82,7.02,6.59,14.59,7.23,22.6.64,7.95-.35,15.91-.4,23.85-.09,13.16,3.51,23.98,11.63,34.25,6.56,8.3,15.57,15.42,20.48,24.89,3.16,6.08.58,10.79-1.98,16.59s-5.07,12.23-4.26,18.79c1.57,12.7,13.34,23.78,24.29,29.13l1.51-5.58c-11.44.54-22.12-4.97-28.14-14.76-1.77-2.87-6.42-1.03-5.5,2.32,1.6,5.86-.81,12.8-4.32,17.51l2.6-1.49c-6.9-.07-16.6-1.15-18.41-9.18-.44-1.95-2.75-2.64-4.37-1.78-6.7,3.57-6.57,11.31-3.6,17.45l2.55-4.44c-2.8.27-23.31,1.91-22.36-1.16.47-1.51-1.82-2.49-2.57-1.08-5.09,9.6,20.62,8.54,24.93,8.14,2.31-.22,3.56-2.32,2.55-4.44-1.55-3.24-2.13-7.42,1.5-9.34l-4.37-1.78c2.21,9.98,12.72,13.08,21.77,13.56,5.17.27,6.81-3.47,8.53-7.99,1.85-4.88,2.77-10.49,1.37-15.59l-5.5,2.32c7.1,11.51,19.79,18.35,33.34,17.71,2.75-.13,4.35-4.2,1.51-5.58-11.65-5.67-24.32-18.08-20.72-32.14,2.7-10.55,10.54-18.74,5-29.74-4.91-9.76-14.05-17.07-20.83-25.47-3.98-4.93-7.55-10.36-9.25-16.52-2.3-8.34-1.6-17.06-1.28-25.6.58-15.47-2.26-29.1-10.59-42.3-6.94-11-16.37-20.45-27.18-27.66C249.7,10.69,224.4,1.9,200.39.16c-25.49-1.84-52.39,11.88-63.85,35.18-.83,1.69,1.61,3.16,2.54,1.49h0Z"/>
        <path class="cls-6" d="m123.08,39.89c10.84-18.61,31.1-32.04,53.01-32.46,20.69-.4,42.5,6.99,60.78,16.17,20.44,10.27,38.73,26.7,46.29,48.86,7.17,21.01-5.43,44.02,3.57,64.75,3.3,7.62,9.02,13.65,14.13,20.06,7.47,9.37,12.17,20.17,16.18,31.4.5,1.4,2.85,1.3,2.76-.37-.61-11.32-4.4-21.13-10.96-30.34-4.79-6.72-10.82-12.6-14.92-19.8-5.68-9.99-4.77-21.38-3.8-32.43,1.07-12.2,2.6-24.6-1.77-36.34-8.35-22.45-26.33-39.35-47.4-49.98-19.29-9.73-41.9-17.13-63.73-16.66-22.82.5-46.82,14.78-56.69,35.64-.8,1.69,1.58,3.15,2.54,1.49h0Z"/>
        <path class="cls-6" d="m217.02,46.7c-3.5,17.13,19.82,30.32,32.22,36.31,10.05,4.85,20.71,8.59,31.59,11.05,8.31,1.88,18.53,4.25,26.79,1.15,1.08-.41.96-2.03-.28-2.07-18.98-.5-36.74-4.44-54.13-12.23-12.94-5.8-36.36-16.72-35.08-34.06.05-.63-.98-.77-1.1-.15h0Z"/>
        <path class="cls-6" d="m257.5,125.73c-2.92-5.25-6.56-9.59-12.53-11.23-4.8-1.32-11.97-2.52-16.42.17-2.89,1.75-2.1,5.8.9,6.85,3.78,1.33,8.11-.3,12.05-.08,5.15.29,10.5,2.02,14.24,5.64.92.89,2.39-.24,1.76-1.36h0Z"/>
        <path class="cls-6" d="m111.69,98.43c-2.03,15.97-7.48,33.51-18.11,45.85-.89,1.04-.07,3.14,1.48,2.55,8.04-3.07,11.47-14.09,13.94-21.53,2.77-8.34,5.4-18.2,3.97-27.04-.13-.8-1.21-.49-1.29.17h0Z"/>
      </g>
      <path class="cls-1" d="m149.08,217.07c.83-1.84,1.78-3.55,2.95-5.21,1.45-2.06,1.43-3.53,2.73.82.4,1.35.38,3.28,1.97,3.91,3.52,1.4,8.27-7.87,10.34-9.43l-2.76-1.12c.51,3.53.42,8.14,4.72,9.04,3.27.68,5.66-1.58,6.83-4.38.34-.81-.65-1.71-1.43-1.43-1.7.6-2.8,1.71-4.44.63s-1.61-3.08-2.07-4.84c-.38-1.46-2.1-1.7-3.14-.83-1.27,1.07-2.32,2.19-3.34,3.5-1.14,1.47-2.52,4.77-4.09,5.68,1.25.51,1.41,0,.46-1.56-.22-.69-.48-1.37-.77-2.04-.38-.84-.96-2.34-1.88-2.88-4.56-2.66-6.93,6.77-7.5,9.55-.17.81,1.04,1.45,1.42.6h0Z"/>
      <path class="cls-1" d="m271.86,189.41c-1.67-2.23-7.89-9.89-10.88-5.61-.53.77-.49,1.82-.52,2.71-.04.97.09,1.9.17,2.86.04.36.11.73.2,1.08.24,1.07.23,1.16-.01.28-1.08-.34-3.37-2.47-4.7-3.19-1.69-.91-3.33-1.59-5.19-2.08-1.46-.39-2.57.93-2.31,2.31.15.81,1,3.4.8,4.19-.53,2.08-3.17,2.04-4.72,2.2-.92.09-1.64,1.25-.82,1.99,2.33,2.12,5.86,3.1,8.43.68,2.96-2.78.92-6.84-.07-10.06l-2.31,2.31c3.63.76,6.35,2.87,9.71,4.22,1.13.45,2.45,1.12,3.62.29.86-.61.86-1.48.96-2.43.11-1.06-1.73-4.59.44-4.9,1.22-.17,5.29,3.49,5.99,4.08.62.53,1.79-.19,1.22-.94h0Z"/>
      <path class="cls-6" d="m141.54,168.28c.28.05.92.17,1.18.22.63,0,1.29,0,1.92-.14,4.56-1.08,7.87-5.52,13.17-4.98,3.81.63,7.56,5.84,5.5,9.52-.1.17-.37.15-.45-.03-.6-1.09-1.25-1.76-1.97-2.34-.87-.73-1.9-1.37-2.86-2.02-1.13-.79-1.86-1.35-3.5-1.05-3.87.84-9.16,3.87-13.17,1.22-.23-.13-.06-.49.19-.41h0Z"/>
      <path class="cls-6" d="m260.35,145.6c-1.36,1.96-3.9,2.89-6.21,3.16-2.94.57-6.48-.31-8.48,1.61-.97,1.3-1.98,2.75-2.79,4.15-.46.81-.81,1.68-.97,2.92-.02.19-.25.29-.4.18-2.74-2.18-1.96-6.65-.2-9.21,1.24-1.96,4.08-2.72,6.03-2.66,3.93-.04,6.96,1.46,10.6.6.35-.12.73-.29,1.08-.42,0,0,.33-.21.33-.21l.68-.43.03-.02c.2-.13.45.14.3.33h0Z"/>
      <path class="cls-6" d="m199.13,218.95c1.35,5.38,6.11,9.09,11.48,10.22,4.93,1.04,16.05.29,19.46-3.76.86-1.02.56-2.54-.78-2.96-4.17-1.31-9.17,1.29-13.44,1.71-6.11.6-12.54.25-16.13-5.46-.19-.31-.68-.11-.59.25h0Z"/>
      <path class="cls-6" d="m210,231.21c1.76.59,3.9,1,5.9.15,1.55-.66,2.58-.69,4.26-.62s3.35,0,5.03-.15c3.24-.31,4.72-4.09,5.28-5.67.22-.62.24-1.4-.23-1.86-.22-.22-.52-.34-.82-.42-1.98-.56-5.54,2.9-7.51,3.49-3.04.91-6.21,1.4-9.39,1.47-.81.02-1.62,0-2.43-.03-.71-.03-4.46-2.47-5.15-2.33-1.39.29.32,1.95.93,2.47,1.14.99,2.36,2.91,4.14,3.5Z"/>
      <g>
        <g>
          <path class="cls-4" d="m2.79,250.86c3.67,13.37,4.61,27.3,5.81,41.12,4.09,47.16,11.35,93.98,19.68,140.55,2.08,11.65,4.24,23.3,6.42,34.94,1.56,8.29,1.32,17,3.84,25.1,3.48,11.17,9.37,9.52,19.86,9.19,88.7-2.77,176.99-5.68,265.39-13.77,10.28-.94,20.56-1.93,30.82-3.15,9.55-1.13,12.11.89,13.19-9.62,7.65-74.7,19.48-150.02,19.51-225.21-15.62-5.64-36.09-3.58-52.45-3.91-27.62-.56-55.25-.57-82.87-.44-66.45.31-132.91,1.54-199.33,3.73-16.5.54-32.99,1.16-49.48,1.9"/>
          <path class="cls-2" d="m1.18,251.3c3.44,13.98,4.27,28.33,5.38,42.64s2.58,28.78,4.28,43.13c3.31,28,7.41,55.9,12.06,83.71,2.34,13.95,4.81,27.88,7.37,41.79,1.29,7.04,1.97,14.05,2.89,21.13.67,5.22,1.56,10.83,4.34,15.41,4.37,7.17,12.18,6.6,19.56,6.32,14.33-.53,28.68-.82,43.02-1.25,57.46-1.73,114.91-3.92,172.27-7.93,27.9-1.95,55.69-4.67,83.53-7.37,6.57-.64,13-.46,15.19-7.97,1.6-5.5,1.54-11.74,2.15-17.39.77-7.16,1.57-14.31,2.39-21.47,7.28-63.83,15.79-127.69,15.91-192.05,0-1.94-1.32-3.45-3.09-4.05-10.32-3.54-21.36-4.13-32.19-4.17s-22.13.06-33.21-.11c-25.67-.39-51.34-.35-77.02-.21-51.84.3-103.67,1.15-155.49,2.6-29.15.82-58.23,2.31-87.34,3.89-4.24.23-4.29,6.78,0,6.63,101.89-3.57,204.08-5.61,306.03-4.66,13.41.12,26.81.46,40.23.31,12.35-.14,24.93-.23,36.75,3.82l-3.09-4.05c-.09,54.49-6.18,108.68-12.48,162.73-1.59,13.68-3.2,27.35-4.71,41.03-.72,6.5-1.4,13-2.09,19.5-.36,3.36.17,6.39-2.84,6.85-24.63,3.72-49.96,4.99-74.79,6.9-54.69,4.22-109.5,6.74-164.31,8.84-13.55.52-27.1,1.01-40.66,1.48-6.62.23-13.23.46-19.85.69-4.17.14-9.12,1.04-13.28.28s-5.6-4.58-6.64-8.43c-1.75-6.44-1.88-13.19-2.83-19.76-1.96-13.53-5.01-26.97-7.49-40.41-5.49-29.7-10.64-59.48-14.71-89.42-2.1-15.41-3.92-30.87-5.45-46.35-1.45-14.64-2.55-29.32-6.58-43.52-.59-2.07-3.73-1.2-3.22.89h0Z"/>
        </g>
        <g>
          <path class="cls-4" d="m4.31,250.5c-2.13,10.12,6.53,19,14.43,25.67,57.04,48.12,121.45-.08,182.92,42.23,46.61-49.16,130.39-29.2,185.66-68.39"/>
          <path class="cls-2" d="m3.27,249.89c-8.75,12.39,8.19,26.51,16.94,33.29,11.95,9.26,26.12,15.41,40.93,18.34,28.89,5.72,58.36.35,87.47,3.12,18.29,1.74,35.42,7.55,50.71,17.78,1.67,1.12,4.29.7,5.65-.73,18.16-19.06,43.2-27.58,68.33-33,25.79-5.57,52.25-8.31,77.51-16.19,13.93-4.35,28.21-10.13,39.62-19.4,3.9-3.17-1.11-9.36-5.3-6.86-11.43,6.82-22.76,12.75-35.49,16.83s-25.72,6.77-38.79,9.18c-25.89,4.77-52.44,8.22-76.82,18.67-13.39,5.74-25.48,13.72-35.65,24.18l5.65-.73c-24.69-16.85-53.22-20.35-82.42-19.88-27.27.44-55.91,2.92-81.17-9.55-14.75-7.28-29.9-18.46-34.96-34.76-.32-1.05-1.61-1.13-2.21-.29h0Z"/>
        </g>
      </g>
      <g>
        <g>
          <path class="cls-3" d="m20.57,360.28c4.06-4.83,6.94-10.63,8.34-16.78.33-1.46.58-2.98.28-4.44s-1.24-2.88-2.66-3.36c-2.14-.73-4.34.83-6.01,2.36-5.08,4.62-9.6,9.85-13.45,15.53-2.43,3.6-4.65,8.19-2.8,12.13.84,1.79,2.44,3.17,3.09,5.04,1.51,4.32-2.54,9.5-.2,13.43.35.58.82,1.1,1.05,1.74.58,1.68-.76,3.64-.03,5.26.54,1.18,1.97,1.68,2.7,2.76,1.19,1.74.11,4.18.74,6.19.6,1.89,2.66,3.03,4.64,3.11s3.9-.67,5.69-1.51c2.75-1.29,5.43-2.84,7.57-4.99s3.72-4.98,3.93-8.01c.07-1.04-.04-2.15-.61-3.02-.92-1.4-2.83-1.85-4.47-1.52s-3.07,1.28-4.46,2.21c1.53-.97,3.05-1.94,4.58-2.91,1.38-.88,2.83-1.83,3.53-3.31.76-1.61.4-3.68-.85-4.94-1.26-1.26-3.33-1.62-4.94-.87,5.81-2.99,11.51-7.76,12.31-14.25.06-.5.09-1.03-.13-1.48-.36-.75-1.25-1.06-2.05-1.25-6.84-1.61-14.43.5-19.47,5.39"/>
          <path class="cls-6" d="m21.18,360.89c3.7-4.17,16.16-23.02,5.7-26.45-4.97-1.63-9.97,5.11-12.78,8.12-4.34,4.65-9.72,10.3-11.52,16.56-.69,2.39-.71,4.89.29,7.19.62,1.43,1.89,2.5,2.53,3.89,1.2,2.61.45,5.08-.06,7.71-.38,1.95-.68,3.9,0,5.82.61,1.72,1.29,2.73,1.38,4.66.06,1.14-.34,2.02.1,3.17.33.86,1.13,1.33,1.66,2.03,1.29,1.7,1.3,2.68,1.54,4.65s.42,3.53,2.07,4.9c3.93,3.28,9.54.61,13.31-1.55,4.91-2.81,10.58-8.33,9.4-14.62s-7.98-4.16-11.59-1.78c-1.51.99-.11,3.42,1.42,2.43,3.49-2.27,9.67-4.87,9.01-10.03-.5-3.92-4.3-5.38-7.74-4.44l.99,2.34c3.93-2.06,7.8-4.67,10.44-8.31,1.82-2.51,4.33-7.37,1.82-10.11s-8.37-2.38-11.55-1.92c-4.64.68-9.54,2.74-12.04,6.85-.86,1.42.8,2.75,2.12,2.12,2.77-1.32,5.19-3.19,8.13-4.18,2.12-.71,8.15-2.49,10.11-.94,2.54,2.01-1.26,6.99-2.65,8.55-2.14,2.42-4.88,4.16-7.68,5.71-1.27.7-.41,2.75.99,2.34l2.28,6.04c-.6.39-1.2.77-1.81,1.14-1.28.8-2.56,1.59-3.84,2.38l1.42,2.43,1.41-.91,5.83,3.14c.35,1.26-1.7,3.86-2.5,4.85-1.82,2.23-4.21,3.84-6.77,5.13-1.19.6-2.5,1.32-3.8,1.63-3.15.76-4.97-.72-5.96-3.87-.4-1.27.11-2.52-.51-3.79-1.1-2.26-2.34-3.58-2.58-6.18-.1-1.06-.25-1.88-.5-2.88-.74-2.89-1.12-5.01-.52-8.12.3-1.56.64-3.14.42-4.75-.19-1.45-.76-2.59-1.53-3.82-2.37-3.83-3.02-6.66-.93-10.82,2.44-4.86,6.22-9.46,9.89-13.42,1.51-1.63,3.81-4.77,5.86-5.57,1.04-1.29,2.14-1.03,3.29.77,2.04.34,2.75,1.29,2.14,2.83.02,1.17-.45,2.48-.77,3.6-1.49,5.18-4.07,10.07-7.24,14.4-.57.78.7,1.76,1.34,1.04h0Z"/>
        </g>
        <g>
          <path class="cls-3" d="m16.42,378.01c1.42-1.79,3.33-3.19,5.47-4.01"/>
          <path class="cls-6" d="m16.74,378.56c1.06-.64,2.04-1.32,3.08-2s1.97-1.25,2.69-2.2c.27-.35,0-.99-.43-1.06-1.43-.24-2.73.35-3.84,1.22-1.21.95-1.93,1.88-2.45,3.32-.19.54.49,1,.94.72h0Z"/>
        </g>
      </g>
      <g>
        <g>
          <path class="cls-3" d="m380.83,360.28c-4.06-4.83-6.94-10.63-8.34-16.78-.33-1.46-.58-2.98-.28-4.44s1.24-2.88,2.66-3.36c2.14-.73,4.34.83,6.01,2.36,5.08,4.62,9.6,9.85,13.45,15.53,2.43,3.6,4.65,8.19,2.8,12.13-.84,1.79-2.44,3.17-3.09,5.04-1.51,4.32,2.54,9.5.2,13.43-.35.58-.82,1.1-1.05,1.74-.58,1.68.76,3.64.03,5.26-.54,1.18-1.97,1.68-2.7,2.76-1.19,1.74-.11,4.18-.74,6.19-.6,1.89-2.66,3.03-4.64,3.11s-3.9-.67-5.69-1.51c-2.75-1.29-5.43-2.84-7.57-4.99s-3.72-4.98-3.93-8.01c-.07-1.04.04-2.15.61-3.02.92-1.4,2.83-1.85,4.47-1.52s3.07,1.28,4.46,2.21c-1.53-.97-3.05-1.94-4.58-2.91-1.38-.88-2.83-1.83-3.53-3.31-.76-1.61-.4-3.68.85-4.94,1.26-1.26,3.33-1.62,4.94-.87-5.81-2.99-11.51-7.76-12.31-14.25-.06-.5-.09-1.03.13-1.48.36-.75,1.25-1.06,2.05-1.25,6.84-1.61,14.43.5,19.47,5.39"/>
          <path class="cls-6" d="m381.57,359.85c-3.02-4.12-5.52-8.76-7.03-13.65-.31-1-.61-2.02-.81-3.05l-.36-2.62,4.63-3.05c1.69.13,5.04,4.44,6.24,5.7,3.76,3.96,7.47,8.47,10.07,13.3,2.2,4.09,2.29,6.8-.1,10.94-.88,1.52-1.7,2.65-1.94,4.44-.18,1.35.04,2.72.29,4.05.57,3.15.73,5.28-.16,8.37-.34,1.19-.59,1.85-.76,3.14-.21,1.65.38,1.07-.47,3.07-.49,1.16-1.39,1.71-1.85,2.74-.62,1.4-.45,2.2-.77,3.7.15,1.06-.28,1.96-1.29,2.7-.36,1.9-1.36,2.54-2.98,1.93-1.72.12-3.28-.71-4.79-1.42-2.38-1.12-4.74-2.55-6.6-4.43-1.13-1.14-2.73-2.97-2.91-4.63-1.05-1.66-.23-2.6,2.47-2.82,1.51-1.91,2.95-2.13,4.33-.66l1.42-2.43c-1.28-.79-2.57-1.58-3.84-2.38-.43-.26-.86-.53-1.29-.81-2.23-1.19-1.65-3.31,1.76-6.37,1.38.41,2.27-1.64.99-2.34-2.6-1.43-5.14-3.03-7.2-5.2-1.46-1.54-5.92-6.87-3.13-9.06,1.77-1.39,7.45.11,9.4.7,3.22.99,5.84,2.98,8.85,4.41,1.32.63,2.98-.7,2.12-2.12-2.38-3.91-6.91-5.92-11.3-6.75-3.35-.63-9.72-.92-12.3,1.82-2.4,2.55-.2,7.09,1.43,9.54,2.63,3.94,6.71,6.71,10.83,8.88l.99-2.34c-3.45-.94-7.21.53-7.74,4.44-.7,5.15,5.55,7.78,9.01,10.03,1.53.99,2.93-1.44,1.42-2.43-3.13-2.06-8.4-4.31-10.94-.02-2.69,4.55,1.38,10.71,4.72,13.63s9.34,6.59,14.14,5.75c6.6-1.16,3.54-6.58,6.3-10.53,1.52-2.17,2.19-2.05,2.38-4.75.11-1.53.27-2.86.75-4.31.36-1.1.79-1.86.92-3.05.3-2.9-1.28-5.61-1.22-8.46.08-3.6,3.31-5.8,3.95-9.22,1.16-6.2-3.75-12.03-7.36-16.5s-8.54-11.56-14.03-13.2c-5.05-1.51-7.35,3.43-6.84,7.69.84,7.01,4.69,13.52,9.28,18.69.63.72,1.92-.25,1.34-1.04h0Z"/>
        </g>
        <g>
          <path class="cls-3" d="m384.99,378.01c-1.42-1.79-3.33-3.19-5.47-4.01"/>
          <path class="cls-6" d="m385.61,377.84c-.22-.62-.42-1.28-.84-1.79-.47-.57-1.03-1.08-1.6-1.53-1.11-.87-2.41-1.45-3.84-1.22-.43.07-.7.71-.43,1.06.73.95,1.7,1.55,2.69,2.2s2.02,1.36,3.08,2c.45.28,1.14-.19.94-.72h0Z"/>
        </g>
      </g>
    </g>
  </g>
</svg>