<?xml version="1.0" encoding="UTF-8"?>
<svg id="Capa_2" data-name="Capa 2" xmlns="http://www.w3.org/2000/svg" viewBox="0 0 664.54 383.55">
  <defs>
    <style>
      .cls-1 {
        fill: #961c67;
      }

      .cls-1, .cls-2, .cls-3, .cls-4 {
        stroke-width: 0px;
      }

      .cls-2 {
        fill: #f376a8;
      }

      .cls-3, .cls-4 {
        fill: #fff2fc;
      }

      .cls-4 {
        stroke: #fff2fc;
        stroke-miterlimit: 10;
      }
    </style>
  </defs>
  <g id="Capa_1-2" data-name="Capa 1">
    <path class="cls-3" d="m288.47,217.76c-3.67,3.77.6,9.84,5.38,7.62,15.64-7.26,33.2-10.48,48.41-7.56,38.56,7.4,72.85,46.73,169.88,41.64,129.96-6.81,152.94-94.33,150.67-137.53-1.2-22.95-10.87-126.52-151.33-119.16-53.17,2.79-110.11,19.91-137.7,39.11-86.91,60.47-62.76,141.24-69.54,157.18-1.69,3.96-8.24,10.97-15.77,18.69Z"/>
    <path class="cls-1" d="m288.09,217.37c-1.63,2.1-2.18,4.56-.51,6.87,3.08,4.26,7.72,1.08,11.36-.37,13.76-5.49,29.22-8.21,43.89-5.25,13.14,2.65,25.29,8.76,37.31,14.45,14.9,7.06,29.97,13.74,45.78,18.54,21.62,6.56,44.3,9.49,66.85,9.72,42.6.44,88.15-6.88,122.8-33.4,22.44-17.18,38.22-41.62,45.08-68.99,9.53-38.03,1.49-82.03-22.82-113.08-20.4-26.05-51.48-39.67-83.71-43.99-24.89-3.34-50.24-1.88-75.01,1.8-26.84,3.98-53.58,10.76-78.62,21.31-40.66,17.13-75.06,50.52-88.91,92.94-4.96,15.19-7.22,31.09-7.78,47.02-.36,10.04,1.14,20.78-.58,30.71-.38,2.2-1.22,3.9-2.49,5.76-3.78,5.56-8.64,10.48-13.16,15.42-1.13,1.23.63,3.01,1.84,1.84,5.82-5.64,14.8-12.39,17.18-20.61.97-3.34,1.02-6.99,1.12-10.44.37-12,.13-23.98,1.38-35.95,4.23-40.57,24.73-75.65,56.7-100.84,18.51-14.58,39.96-23.75,62.36-30.65,25.87-7.98,52.81-13.06,79.84-14.81,37.44-2.43,77.95,2.02,108.79,25.25s46.92,65.99,44.28,105.08c-1.68,24.85-10.72,49.37-26.25,68.91-22.67,28.53-57.06,43.76-92.28,49.97-43.99,7.76-91.04,4.89-133.07-10.64-14.05-5.19-27.41-11.95-41.11-17.97s-27.38-10.74-42.48-9.76c-5.82.38-11.59,1.43-17.2,2.99-3.42.95-6.78,2.1-10.07,3.42-.24.1-3.19,1.38-3.44,1.45l-5.33.6c-2.39-2.61-2.68-4.83-.88-6.66.37-.49-.48-1.16-.87-.67Z"/>
    <g>
      <ellipse class="cls-4" cx="108.04" cy="280.02" rx="6.99" ry="10.31" transform="translate(-50.63 25.25) rotate(-10.82)"/>
      <ellipse class="cls-4" cx="196.46" cy="263.12" rx="6.99" ry="10.31" transform="translate(-45.89 41.55) rotate(-10.82)"/>
      <path class="cls-3" d="m237.96,230.27c9.06,34.12,6.96,72.74-12.2,103.18-12.01,19.06-30.89,34.86-53.15,40.01,0,0-2.26.47-2.26.47-1.44.16-3.44.44-4.86.37-5.12.1-10.92-1.05-15.87-2.32-5.66-1.49-11.45-3.66-16.83-6.01-21.53-9.55-40.71-23.93-57.67-40.12,0,0,2.49.08,2.49.08-3.33,2.67-7.38,4.5-11.6,5.06-12.79,2.04-25.04-7.34-28.8-19.25-5.62-15.57,3.05-35.53,20.65-37.13.5-.04.55.69.08.74-7.79.94-14.49,6.26-17.75,13.29-6.73,13.77-.23,32.7,14.42,38.02,6.93,2.55,15.02,1.18,20.6-3.65.74-.62,1.82-.57,2.49.08,10.67,9.71,22.05,18.58,34.33,26.09,9.69,5.95,20.08,11.13,30.88,14.73,5.13,1.77,10.96,3.17,16.35,3.86,1.36.1,2.73.21,4.08.28.55-.03,2.43-.04,2.98-.06.78-.05,2.06-.29,2.82-.36,10.18-2.19,19.52-7.25,27.7-13.63,27.02-21.06,40.56-55.32,41.81-89.01.56-11.46-.06-23.04-1.44-34.59-.02-.21.12-.39.33-.42.19-.02.36.1.41.28h0Z"/>
      <g>
        <path class="cls-4" d="m61.55,322.29s-.09.06-.13.09c.3-.11.65-.13,1.04-.09-.37-.11-.68-.12-.91,0Z"/>
        <path class="cls-4" d="m62.46,322.29c3.53,1.05,10.15,12.79,7.09,14.12-3.13,1.36-10.86-12.14-8.13-14.03-.05.02-.11.03-.16.05-5.02,2.47,1.39,23.43,10.96,18.73,8.81-4.33-4.42-18.24-9.76-18.87Z"/>
      </g>
      <path class="cls-3" d="m150.93,275.86c.48,2.91,1.12,5.73,1.01,8.7s-1.3,5.34-1.92,8.16c-.66,3.04.96,5.11,3.58,6.41,6.2,3.09,17.28,3.64,18.86-5.27.42-2.37-.72-5.93-3.67-5.78-3.11.15-2,3.31-3.18,5.19-1.24,1.98-7.5,2.83-9.21,1.05s-.09-4.41.17-6.63c.53-4.51,0-9.28-2.43-13.18-1.11-1.78-3.54-.56-3.22,1.36h0Z"/>
      <path class="cls-3" d="m188.74,307.79c-3.09,2.27-5.43,3.39-9.36,3.48-3.39.07-6.76.02-10.07.89-3.7.97-6.95,3.02-10.35,4.7-4.11,2.03-7.2,2.5-11.68,2.48-.97,0-1.8,1.19-1.18,2.06,6,8.38,18-1.9,24.64-4.07,6.03-1.97,18.45.18,19.08-8.92.03-.51-.64-.93-1.07-.61h0Z"/>
      <path class="cls-3" d="m84.61,257.59c2.15-4.84,6.23-8.22,10.96-10.5,3.74-1.8,9.12-1.78,12.03-4.93,1.87-2.03,1.11-5.37-1.63-6.16-5.14-1.48-11.94,2.81-15.91,5.81-4.97,3.74-6.8,9.21-7.55,15.22-.14,1.09,1.65,1.56,2.09.57h0Z"/>
      <path class="cls-3" d="m99.49,164.65c.05,8.09,3.14,16.07,3.52,24.22.29,6.34.07,12.59-1.57,18.75-1.88,7.07-6.72,12.34-9.19,19.01-.57,1.53,1.3,2.51,2.51,1.93,6.1-2.89,9.66-10.69,11.63-16.78,2.12-6.53,2.74-13.68,2.09-20.51-.9-9.56-4.53-17.87-7.39-26.84-.27-.86-1.61-.73-1.6.22h0Z"/>
      <path class="cls-3" d="m78.7,166.29c-.59,14,.28,27.9-1.26,41.89-2.03,18.52-6.26,42.45-24.46,51.84-5.98,3.08-9.82,7.31-11.92,13.72-.82,2.49-1.3,5.18-2.51,7.52-1.74,3.36-5.15,4.63-8.33,6.29-1.52.79-.8,3.21.86,3.19,5.51-.08,10.27-2.99,12.9-7.85s2.75-10.19,6.58-14.11,9.73-5.54,13.85-9.45c3.45-3.27,6.21-7.26,8.38-11.47,9.72-18.86,10.28-41.76,9.41-62.51-.27-6.42-1.23-12.69-1.86-19.06-.1-1.03-1.59-1.07-1.63,0h0Z"/>
      <path class="cls-3" d="m115.81,167.03c4.65,15.57,6.76,33.76,2.02,49.49-.45,1.48,1.49,2.54,2.55,1.48,6.08-6.03,4.66-17.87,3.86-25.57-.89-8.62-2.41-18.52-7.23-25.91-.39-.6-1.42-.24-1.2.51h0Z"/>
      <path class="cls-3" d="m141.95,159.45c-1.32,8.86,1.42,18.67,4.29,26.98,2.56,7.41,6.11,18.41,14.19,21.38,1.54.57,2.4-1.51,1.48-2.55-10.83-12.28-16.47-29.78-18.69-45.81-.09-.63-1.18-.63-1.27,0h0Z"/>
      <path class="cls-3" d="m128.72,161.98c-1.22,7.93,1.41,16.56,3.76,24.05s4.6,17.02,10.09,22.82c1.09,1.15,2.88-.06,2.55-1.48-1.78-7.7-6.07-14.95-8.71-22.42s-5.22-15.11-6.43-22.97c-.1-.63-1.17-.63-1.27,0h0Z"/>
      <path class="cls-3" d="m74.08,133.01c-9.92-.32-18.48,1.25-27.55,5.49s-17.08,10.29-23.72,17.85C8.61,172.5,2.12,193.86.44,214.98c-.95,11.97-.29,23.97,1.23,35.86s4.04,23.47,3.14,35.15c-1.05,13.62-7.97,29.92,1.24,42.02,4.93,6.48,12.03,10.81,18.27,15.89,7.13,5.8,12.1,12.38,16.07,20.64.67,1.4,2.8.66,2.81-.76.08-14.44-14.37-23.45-24.06-31.86-4.56-3.96-9.63-8.65-10.64-14.92-1.14-7.07,1.26-15.19,2.28-22.16,2.98-20.18-2.41-39.75-3.37-59.89-1.03-21.67,1.93-44.38,13.26-63.27s31.07-34.29,53.41-36.08c1.65-.13,1.69-2.54,0-2.6h0Z"/>
      <path class="cls-3" d="m30.88,322.65c1.3,5.28,3.12,9.63,7.16,13.37,2.91,2.7,6.35,4.58,8.48,8.05,6.9,11.24-1.24,27.01-8.74,35.84-1.21,1.42-.1,4.31,2.03,3.49,12.17-4.68,21.42-14.97,23.91-27.92l-3.82-.52c.2,5.68-.08,11.68,1.01,17.27.85,4.32,4.71,4.28,8.55,3.41,9.63-2.17,21.02-11.88,20.58-22.43-.13-3.04-4.75-3.08-4.76,0-.02,6.17,6.27,11.34,10.9,14.58.82.57,1.89.4,2.72,0,4.98-2.41,19.68-11.08,11.55-17.66-2.02-1.64-5.82.56-3.97,3.06,2.67,3.6-7.6,8.62-10.3,9.96h2.72c-3.74-2.56-7.85-6.02-8.95-10.56l-4.59,1.26c1.98,7.53-10.69,15.92-16.59,17.42-1.15.29-4.21.25-3.41,1.02-.74-.72-.55-3.98-.65-4.98-.39-4.11-.64-8.23-.93-12.35-.14-2.03-3.46-2.82-3.82-.52-1.85,11.7-9.79,21.48-21.27,24.93l2.03,3.49c8.39-8.56,15.22-23.39,12.02-35.54-1.24-4.72-4.15-8.38-7.96-11.3-5.18-3.98-8.91-8.33-11.99-14.18-.57-1.08-2.2-.32-1.92.81h0Z"/>
      <path class="cls-3" d="m74.08,133.01c-9.92-.32-18.48,1.25-27.55,5.49s-17.08,10.29-23.72,17.85C8.61,172.5,2.12,193.86.44,214.98c-.95,11.97-.29,23.97,1.23,35.86s4.04,23.47,3.14,35.15c-1.05,13.62-7.97,29.92,1.24,42.02,4.93,6.48,12.03,10.81,18.27,15.89,7.13,5.8,12.1,12.38,16.07,20.64.67,1.4,2.8.66,2.81-.76.08-14.44-14.37-23.45-24.06-31.86-4.56-3.96-9.63-8.65-10.64-14.92-1.14-7.07,1.26-15.19,2.28-22.16,2.98-20.18-2.41-39.75-3.37-59.89-1.03-21.67,1.93-44.38,13.26-63.27s31.07-34.29,53.41-36.08c1.65-.13,1.69-2.54,0-2.6h0Z"/>
      <path class="cls-3" d="m30.88,322.65c1.3,5.28,3.12,9.63,7.16,13.37,2.91,2.7,6.35,4.58,8.48,8.05,6.9,11.24-1.24,27.01-8.74,35.84-1.21,1.42-.1,4.31,2.03,3.49,12.17-4.68,21.42-14.97,23.91-27.92l-3.82-.52c.2,5.68-.08,11.68,1.01,17.27.85,4.32,4.71,4.28,8.55,3.41,9.63-2.17,21.02-11.88,20.58-22.43-.13-3.04-4.75-3.08-4.76,0-.02,6.17,6.27,11.34,10.9,14.58.82.57,1.89.4,2.72,0,4.98-2.41,19.68-11.08,11.55-17.66-2.02-1.64-5.82.56-3.97,3.06,2.67,3.6-7.6,8.62-10.3,9.96h2.72c-3.74-2.56-7.85-6.02-8.95-10.56l-4.59,1.26c1.98,7.53-10.69,15.92-16.59,17.42-1.15.29-4.21.25-3.41,1.02-.74-.72-.55-3.98-.65-4.98-.39-4.11-.64-8.23-.93-12.35-.14-2.03-3.46-2.82-3.82-.52-1.85,11.7-9.79,21.48-21.27,24.93l2.03,3.49c8.39-8.56,15.22-23.39,12.02-35.54-1.24-4.72-4.15-8.38-7.96-11.3-5.18-3.98-8.91-8.33-11.99-14.18-.57-1.08-2.2-.32-1.92.81h0Z"/>
      <path class="cls-3" d="m153.1,156.49c1.4,14.86,10.64,29.19,22.1,38.34,7.14,5.7,15.26,9.94,23.9,12.87,9.16,3.11,21.96,6.86,31.48,3.88,1.55-.49,1.44-2.51,0-3.04-4.81-1.78-10-1.71-15.03-2.5-4.62-.73-9.19-1.79-13.64-3.21-8.32-2.65-16.25-6.67-23.19-11.97-11.79-9-19.57-20.52-23.96-34.58-.27-.86-1.75-.76-1.65.22h0Z"/>
      <path class="cls-3" d="m56.21,289.21c18.59-2.94,19.69-23.02,23.77-37.48,2.5-8.89,6.86-17.18,9.74-25.95,3.43-10.4,7.36-24.85,3.39-35.49-.51-1.38-2.63-1.62-3.04,0-1.43,5.56-1.01,11.34-1.72,17.01-.67,5.35-1.93,10.63-3.54,15.77-2.6,8.28-6.44,16.1-9.08,24.36-4.85,15.19-1.78,33.52-19.95,40.15-1.03.38-.62,1.79.45,1.62h0Z"/>
      <path class="cls-3" d="m89.84,141.63c11.81-21.01,35.33-34.13,59.46-32.54,23.97,1.58,49.4,10.93,69.08,24.61,11,7.65,20.51,17.84,26.92,29.62,3.82,7.02,6.59,14.59,7.23,22.6s-.35,15.91-.4,23.85c-.09,13.16,3.51,23.98,11.63,34.25,6.56,8.3,15.57,15.42,20.48,24.89,3.16,6.08.58,10.79-1.98,16.59s-5.07,12.23-4.26,18.79c1.57,12.7,13.34,23.78,24.29,29.13l1.51-5.58c-11.44.54-22.12-4.97-28.14-14.76-1.77-2.87-6.42-1.03-5.5,2.32,1.6,5.86-.81,12.8-4.32,17.51l2.6-1.49c-6.9-.07-16.6-1.15-18.41-9.18-.44-1.95-2.75-2.64-4.37-1.78-6.7,3.57-6.57,11.31-3.6,17.45l2.55-4.44c-2.8.27-23.31,1.91-22.36-1.16.47-1.51-1.82-2.49-2.57-1.08-5.09,9.6,20.62,8.54,24.93,8.14,2.31-.22,3.56-2.32,2.55-4.44-1.55-3.24-2.13-7.42,1.5-9.34l-4.37-1.78c2.21,9.98,12.72,13.08,21.77,13.56,5.17.27,6.81-3.47,8.53-7.99,1.85-4.88,2.77-10.49,1.37-15.59l-5.5,2.32c7.1,11.51,19.79,18.35,33.34,17.71,2.75-.13,4.35-4.2,1.51-5.58-11.65-5.67-24.32-18.08-20.72-32.14,2.7-10.55,10.54-18.74,5-29.74-4.91-9.76-14.05-17.07-20.83-25.47-3.98-4.93-7.55-10.36-9.25-16.52-2.3-8.34-1.6-17.06-1.28-25.6.58-15.47-2.26-29.1-10.59-42.3-6.94-11-16.37-20.45-27.18-27.66-20.02-13.35-45.33-22.14-69.34-23.87-25.49-1.84-52.39,11.88-63.85,35.18-.83,1.69,1.61,3.16,2.54,1.49h0Z"/>
      <path class="cls-3" d="m73.84,144.69c10.84-18.61,31.1-32.04,53.01-32.46,20.69-.4,42.5,6.99,60.78,16.17,20.44,10.27,38.73,26.7,46.29,48.86,7.17,21.01-5.43,44.02,3.57,64.75,3.3,7.62,9.02,13.65,14.13,20.06,7.47,9.37,12.17,20.17,16.18,31.4.5,1.4,2.85,1.3,2.76-.37-.61-11.32-4.4-21.13-10.96-30.34-4.79-6.72-10.82-12.6-14.92-19.8-5.68-9.99-4.77-21.38-3.8-32.43,1.07-12.2,2.6-24.6-1.77-36.34-8.35-22.45-26.33-39.35-47.4-49.98-19.29-9.73-41.9-17.13-63.73-16.66s-46.82,14.78-56.69,35.64c-.8,1.69,1.58,3.15,2.54,1.49h0Z"/>
      <path class="cls-3" d="m167.78,151.5c-3.5,17.13,19.82,30.32,32.22,36.31,10.05,4.85,20.71,8.59,31.59,11.05,8.31,1.88,18.53,4.25,26.79,1.15,1.08-.41.96-2.03-.28-2.07-18.98-.5-36.74-4.44-54.13-12.23-12.94-5.8-36.36-16.72-35.08-34.06.05-.63-.98-.77-1.1-.15h0Z"/>
      <path class="cls-3" d="m208.26,230.53c-2.92-5.25-6.56-9.59-12.53-11.23-4.8-1.32-11.97-2.52-16.42.17-2.89,1.75-2.1,5.8.9,6.85,3.78,1.33,8.11-.3,12.05-.08,5.15.29,10.5,2.02,14.24,5.64.92.89,2.39-.24,1.76-1.36h0Z"/>
      <path class="cls-3" d="m62.45,203.24c-2.03,15.97-7.48,33.51-18.11,45.85-.89,1.04-.07,3.14,1.48,2.55,8.04-3.07,11.47-14.09,13.94-21.53,2.77-8.34,5.4-18.2,3.97-27.04-.13-.8-1.21-.49-1.29.17h0Z"/>
    </g>
    <path class="cls-2" d="m99.84,321.87c.83-1.84,1.78-3.55,2.95-5.21,1.45-2.06,1.43-3.53,2.73.82.4,1.35.38,3.28,1.97,3.91,3.52,1.4,8.27-7.87,10.34-9.43l-2.76-1.12c.51,3.53.42,8.14,4.72,9.04,3.27.68,5.66-1.58,6.83-4.38.34-.81-.65-1.71-1.43-1.43-1.7.6-2.8,1.71-4.44.63s-1.61-3.08-2.07-4.84c-.38-1.46-2.1-1.7-3.14-.83-1.27,1.07-2.32,2.19-3.34,3.5-1.14,1.47-2.52,4.77-4.09,5.68,1.25.51,1.41,0,.46-1.56-.22-.69-.48-1.37-.77-2.04-.38-.84-.96-2.34-1.88-2.88-4.56-2.66-6.93,6.77-7.5,9.55-.17.81,1.04,1.45,1.42.6h0Z"/>
    <path class="cls-2" d="m222.62,294.21c-1.67-2.23-7.89-9.89-10.88-5.61-.53.77-.49,1.82-.52,2.71-.04.97.09,1.9.17,2.86.04.36.11.73.2,1.08.24,1.07.23,1.16-.01.28-1.08-.34-3.37-2.47-4.7-3.19-1.69-.91-3.33-1.59-5.19-2.08-1.46-.39-2.57.93-2.31,2.31.15.81,1,3.4.8,4.19-.53,2.08-3.17,2.04-4.72,2.2-.92.09-1.64,1.25-.82,1.99,2.33,2.12,5.86,3.1,8.43.68,2.96-2.78.92-6.84-.07-10.06l-2.31,2.31c3.63.76,6.35,2.87,9.71,4.22,1.13.45,2.45,1.12,3.62.29.86-.61.86-1.48.96-2.43.11-1.06-1.73-4.59.44-4.9,1.22-.17,5.29,3.49,5.99,4.08.62.53,1.79-.19,1.22-.94h0Z"/>
    <path class="cls-3" d="m92.3,273.08c.28.05.91.17,1.18.22.63,0,1.29,0,1.92-.14,4.56-1.08,7.87-5.52,13.17-4.98,3.81.63,7.56,5.84,5.5,9.52-.1.17-.37.15-.45-.03-.6-1.09-1.25-1.76-1.97-2.34-.87-.73-1.9-1.37-2.86-2.02-1.13-.79-1.86-1.35-3.5-1.05-3.87.84-9.16,3.87-13.17,1.22-.23-.13-.06-.49.19-.41h0Z"/>
    <path class="cls-3" d="m211.11,250.4c-1.36,1.96-3.9,2.89-6.21,3.16-2.94.57-6.48-.31-8.48,1.61-.97,1.3-1.98,2.75-2.79,4.15-.46.81-.81,1.68-.97,2.92-.02.19-.25.29-.4.18-2.74-2.18-1.96-6.65-.2-9.21,1.24-1.96,4.08-2.72,6.03-2.66,3.93-.04,6.96,1.46,10.6.6.35-.12.73-.29,1.08-.42,0,0,.33-.21.33-.21l.68-.43.03-.02c.2-.13.45.14.3.33h0Z"/>
    <path class="cls-3" d="m154.01,326.94c2.07,9.35,10.03,14.23,19.33,11.1,6.44-2.17,16.83-10.76,12.26-18.49-.63-1.07-2.09-.98-2.74,0-1.91,2.88-1.63,6.54-3.91,9.37-1.69,2.09-4.07,3.62-6.54,4.61-1.14.46-2.3.74-3.5.98-3.45.71-6.98,1.22-9.89-1.28-2-1.71-3.41-4.14-4.48-6.5-.14-.31-.59-.08-.53.22h0Z"/>
    <path class="cls-1" d="m460.28,122.01c-8.01-9.69-19.96-5.68-30.08-1.91-12.83,4.79-25.01,11.16-38.08,15.3-7.6,2.41-29.01,9.45-28.13-5.21.51-8.44,6.27-14,14.46-14.32,1.4-.05,2.72-1.74,1.76-3.07-6.7-9.2-18.08-.15-21.74,7.1-4.73,9.36-3.13,22.06,7.9,25.97,6.73,2.39,14.3.49,20.87-1.5,7.67-2.32,15-5.63,22.27-8.98s15.02-7.28,22.71-10.52c8.43-3.55,18.51-6.54,27.04-1.52.88.52,1.62-.62,1.03-1.34h0Z"/>
    <path class="cls-1" d="m412.64,179.66c.53-8.37-1.67-17.26-2.97-25.5s-2.63-16.67-3.88-25.02-2.41-17.32-3.53-25.99c-1.01-7.85-1.39-16.86-5.02-24.01-.67-1.32-2.72-.95-3.08.4-2.16,8.06-.25,17.41.84,25.53s2.49,16.66,3.94,24.95,3.18,17.17,5.12,25.67c1.84,8.04,3.41,16.98,7.39,24.28.32.58,1.14.28,1.18-.32h0Z"/>
    <path class="cls-1" d="m454.59,177.46c-.95-9.2-4.57-18.29-6.67-27.3-1.96-8.44-3.51-16.97-4.35-25.6-.78-8.13-.9-16.3-.63-24.46s1.97-17.72.21-26.09c-.3-1.41-2.42-1.66-3.08-.4-3.86,7.32-4.26,16.71-4.58,24.83-.35,8.99.08,18,1.2,26.93s2.8,17.17,5.27,25.52c2.65,8.97,5.75,19.33,11.45,26.88.33.44,1.25.38,1.18-.32h0Z"/>
    <path class="cls-1" d="m499.3,109.29c5.79,9.26,7.78,22.77,7.97,33.53s-5.94,23.15-18.91,18.24c-11.95-4.53-15.43-19.79-15.17-31.15s6.1-29.1,20.65-26.86c2.25.35,3.49-2.32,1.55-3.68-11.01-7.75-23.34,1.51-27.59,12.17-4.9,12.25-3.7,27.53,1.07,39.64,4.5,11.42,15.57,20.84,28.48,18.79,11.92-1.89,17.61-13.51,17.83-24.62.13-6.6-1.08-13.5-3.3-19.7-2.5-6.96-6.28-12.07-11.28-17.35-.64-.67-1.79.2-1.29.99h0Z"/>
    <path class="cls-1" d="m561.91,172.87c-10.8,2.39-19.05,7.71-24.68,17.42l6.09.8c-3-7.54-2.96-17.15-4.05-25.19-1.53-11.26-2.97-22.53-4.48-33.79-2.85-21.28-3.75-44.05-10.34-64.58-.55-1.7-2.91-1.32-3.04.41-.83,11.07.48,22.34,1.84,33.33s2.83,22.55,4.34,33.81,3.06,21.84,4.65,32.75c1.23,8.45,1.43,18,4.99,25.82,1.03,2.26,4.67,2.09,5.75,0,4.12-7.96,11.56-15.08,19.83-18.64,1.27-.55.33-2.41-.9-2.14h0Z"/>
    <path class="cls-1" d="m542.09,130.92c1.86,3.05,5.48,4.15,8.84,4.86,6.14,1.29,12.62,1.63,18.87,1.52,9.59-.16,23.71-.4,30.78-7.94.72-.76,0-1.95-1-1.72-9.43,2.13-18.03,4.86-27.84,5.25-8.91.36-20.1.86-28.07-3.54-.98-.54-2.19.56-1.57,1.57h0Z"/>
    <path class="cls-1" d="m601.56,169.27c2.6-1.99,5.76-4.93,9.26-4.82,4.58.14,6.09,5.04,5.93,8.81-.26,6.22-4.97,11.62-11.21,12.28-13.5,1.42-20.43-18.9-23.71-28.76-4.37-13.17-6.48-26.95-8.21-40.68-.82-6.51-1.62-13.03-2.53-19.53s-1.11-13.79-3.9-19.58c-1.3-2.7-5.89-2.06-6.49.85-1.99,9.7-3.92,19.42-5.71,29.16-2.91,15.88-7.61,34.34-.66,49.79.57,1.27,2.46.55,2.49-.67.19-8.65.18-17.17,1.09-25.79.85-8.02,2.43-15.94,4.03-23.84,1.81-8.93,3.71-17.85,5.6-26.76l-6.49.85c1.44,3.05,1.49,7.13,1.99,10.42.59,3.85,1.1,7.72,1.59,11.58.93,7.38,1.85,14.76,2.95,22.11,2.16,14.4,5.12,28.74,10.87,42.18,4.33,10.13,11.02,23.39,23.32,25,10.82,1.41,20.57-7.11,20.98-17.94.21-5.46-2.14-11.98-7.61-14.09-6.21-2.4-11.97,1.98-16.01,6.3-1.47,1.58.54,4.59,2.43,3.15h0Z"/>
  </g>
</svg>