<svg width="128" height="74" viewBox="0 0 128 74" fill="none" xmlns="http://www.w3.org/2000/svg">
<path d="M24.1818 53.5135C24.9703 50.7893 25.8627 48.1261 26.4236 45.3371C26.9845 42.5482 27.4179 39.8406 27.7512 37.0646C28.4159 31.5421 28.8729 25.8366 28.5288 20.2735L25.5495 21.0928C27.1211 24.6696 28.4796 28.3592 29.9346 31.9879C30.5993 33.6449 31.1803 35.3723 31.9725 36.9721C32.6408 38.3222 33.646 39.6057 35.0974 40.1161C38.2097 41.211 40.5571 38.3888 41.6534 35.7903C43.0447 32.489 43.9625 28.9252 44.5708 25.3927C45.2846 21.2519 45.5432 17.0481 45.312 12.8498C45.2009 10.8506 42.4128 10.8691 42.2653 12.8498C41.3037 25.6739 41.7025 38.5663 43.4107 51.309C43.6493 53.0826 43.9134 54.8525 44.2029 56.6187C44.4925 58.3849 44.7711 61.0555 45.3047 62.7866C45.5323 63.5282 46.4501 64.1348 47.4117 63.9739C48.5517 63.7816 48.6464 62.5702 48.3969 61.5493C47.4882 58.5606 47.1276 55.3259 46.6741 52.2374C46.2207 49.1488 45.8364 45.8938 45.5469 42.7072C44.9751 36.4099 44.7237 30.0792 44.8184 23.756C44.8731 20.1163 45.0406 16.4803 45.312 12.8498H42.2653C42.6204 19.2434 41.8355 25.6313 39.8906 31.7252C39.4717 33.0383 39.062 34.3958 38.3699 35.5924C37.9657 36.2915 37.2609 37.3697 36.3285 37.268C35.3961 37.1663 34.8334 35.9272 34.4819 35.1781C33.819 33.7689 33.3128 32.2708 32.7446 30.8209C31.3169 27.1682 29.7817 23.5396 28.4741 19.8407C27.8823 18.167 25.3564 18.3593 25.3327 20.2716C25.2654 25.7756 25.2472 31.2277 24.6608 36.7113C24.3749 39.3893 24.0197 42.0636 23.5754 44.7194C23.131 47.3752 22.8014 50.2437 22.195 52.955C21.9018 54.2662 23.8067 54.8099 24.1836 53.5116L24.1818 53.5135Z" fill="#F075A7"/>
<path d="M50.7479 30.9152C50.0559 37.5306 50.1706 44.2312 51.0885 50.817C51.1194 49.9533 51.1486 49.0915 51.1795 48.2278" fill="#F075A7"/>
<path d="M49.9558 30.6951C49.404 32.2283 49.3912 34.0019 49.2692 35.6183C49.1381 37.3679 49.0634 39.123 49.0561 40.8781C49.0434 44.2737 49.0671 47.8616 49.699 51.2073C50.0013 52.8015 52.742 52.4593 52.5271 50.8189C52.4015 49.8627 52.2922 48.6976 51.8078 47.8561C51.5164 47.3512 50.8517 47.4067 50.5476 47.8561C50.0759 48.557 49.8683 49.6001 49.699 50.4305L52.5271 50.8189C52.3833 49.1322 52.0682 47.4584 51.9025 45.7699C51.7386 44.0832 51.6257 42.391 51.5638 40.6969C51.5019 39.0028 51.48 37.3106 51.5128 35.6183C51.5456 33.9261 51.7677 32.3208 51.5365 30.6951C51.409 29.7981 50.1961 30.0164 49.9521 30.6951H49.9558Z" fill="#F075A7"/>
<path d="M60.1083 10.5566C58.9628 25.2836 59.1103 40.1143 60.5454 54.8137L60.1083 10.5566Z" fill="#F075A7"/>
<path d="M59.8333 10.0794C59.1486 10.4474 58.9082 11.3167 58.748 12.0398C58.5422 12.9793 58.4566 13.9854 58.3601 14.9416C58.1634 16.8872 58.0414 18.8402 57.9449 20.795C57.7518 24.6992 57.6517 28.6052 57.6699 32.5131C57.6881 36.421 57.7955 40.3251 57.9922 44.2256C58.0905 46.1749 58.2126 48.1242 58.3564 50.0717C58.4274 51.0426 58.5513 52.0191 58.5895 52.992C58.6369 54.2033 58.7662 54.8636 59.6749 55.6995C60.3105 56.284 61.1281 56.112 61.6107 55.4462C62.3173 54.4697 62.2882 53.8039 62.1261 52.6276C61.9932 51.6641 61.9494 50.6783 61.8693 49.7073C61.7091 47.7599 61.5725 45.8106 61.4578 43.8594C61.2319 40.02 61.0935 36.175 61.0444 32.3282C60.9952 28.4813 61.0025 24.6363 61.0972 20.7932C61.1445 18.842 61.2137 16.8909 61.252 14.9397C61.2793 13.5212 61.6326 11.0503 60.3833 10.0775C60.2285 9.95733 59.99 9.99246 59.8333 10.0775V10.0794Z" fill="#F075A7"/>
<path d="M68.2996 35.3575C67.7351 36.5948 67.1469 37.7563 66.7918 39.0879C66.4166 40.4953 66.2382 42.034 66.3693 43.4877C66.566 45.6589 67.5366 47.8431 69.2393 49.2228C70.942 50.6025 73.3258 51.0278 75.4237 50.0976C77.4998 49.1784 79.0477 47.2383 80.0111 45.2021C82.1381 40.7117 82.4076 35.3187 80.7067 30.6359C79.8891 28.3815 78.6489 26.0086 76.5055 24.7917C74.3621 23.5748 71.9564 24.0556 70.2555 25.7645C68.3342 27.6916 67.3217 30.6341 66.6752 33.2325C65.9522 36.1399 65.5589 39.2636 65.9777 42.2467C66.0615 42.8478 67.0303 42.8163 67.1414 42.2467C67.5603 40.0977 67.8935 37.9153 68.6038 35.8402C69.314 33.7652 70.0861 31.9453 71.0622 30.0959C71.6559 28.9696 72.5756 27.1941 74.0543 27.2367C75.6259 27.2829 76.7222 29.173 77.3232 30.4232C78.9731 33.8669 79.2062 37.9486 78.2027 41.6142C77.4943 44.2034 75.2944 48.9065 71.8708 47.6138C70.2136 46.9887 69.1319 45.1855 68.8023 43.4988C68.5546 42.2282 68.6675 40.9299 68.8423 39.6612C69.0171 38.3925 69.1956 37.096 69.4141 35.8328C69.5252 35.1966 68.6092 34.6659 68.296 35.3538L68.2996 35.3575Z" fill="#F075A7"/>
<path d="M83.921 23.8152C86.0025 26.0493 89.8413 26.6152 92.7405 26.5875C95.9365 26.5579 99.1016 25.6535 101.817 23.9391L99.9702 22.0638C92.644 34.148 85.4525 46.3173 78.2136 58.4552C77.4561 59.7239 78.9876 61.3514 80.2533 60.5266C84.1176 58.0058 88.5301 56.332 93.0191 55.3888C95.1935 54.932 97.3989 54.6842 99.617 54.6343C100.75 54.6084 101.882 54.638 103.015 54.7027C103.631 54.7378 104.246 54.8137 104.864 54.8358C105.574 54.8617 106.098 54.6213 106.721 54.3125C107.42 53.9648 107.546 52.8366 106.974 52.3206C106.466 51.8619 106.013 51.4828 105.328 51.3533C104.643 51.2239 103.991 51.1832 103.325 51.1351C102.092 51.0463 100.853 51.0408 99.6188 51.087C97.153 51.1814 94.6818 51.505 92.2707 52.0376C87.4156 53.1122 82.9084 55.1724 78.7509 57.9133C79.4301 58.6032 80.1094 59.293 80.7905 59.9847C87.9747 47.8135 95.2099 35.6719 102.305 23.449C102.971 22.3005 101.613 20.8135 100.458 21.5737C98.1491 23.0939 95.4976 23.9409 92.7441 24.0205C91.4147 24.0593 90.1072 23.9225 88.8106 23.6265C87.4156 23.3084 86.1208 22.7055 84.7313 22.4059C83.9282 22.2339 83.3364 23.1845 83.9246 23.8152H83.921Z" fill="#F075A7"/>
<path d="M106.076 37.9764C99.7663 38.3148 93.4416 38.3481 87.1297 38.0762L106.076 37.9764Z" fill="#F075A7"/>
<path d="M106.076 37.5417C102.782 37.5547 99.5332 37.2125 96.2461 37.0683C94.6362 36.998 93.0264 36.937 91.4184 36.8519C90.577 36.8075 89.7557 36.765 88.9162 36.8611C88.1859 36.9444 87.3555 36.9702 86.7527 37.4215C86.394 37.6897 86.2064 38.2593 86.6016 38.6107C87.6942 39.5872 89.6719 39.5891 91.0614 39.578C92.7314 39.5632 94.3995 39.5354 96.0676 39.4522C99.4184 39.2857 102.738 38.7476 106.076 38.4091C106.614 38.3555 106.637 37.538 106.076 37.5417Z" fill="#F075A7"/>
<path d="M51.9899 25.3595C51.9262 25.3262 51.8624 25.2929 51.7987 25.2577C51.7696 25.2411 51.7477 25.2244 51.7222 25.2041C51.4308 24.9822 51.0575 24.9452 50.7333 25.0617L50.4383 25.2134C50.2945 25.3077 50.1797 25.439 50.0923 25.6036C50.0158 25.6979 49.963 25.8089 49.9339 25.9365C49.8574 26.1159 49.821 26.3101 49.8283 26.5191C49.8374 26.7872 49.8938 27.0443 49.9958 27.2829C50.1397 27.6158 50.4456 27.8747 50.7333 27.9783C51.0666 28.0985 51.4217 28.0485 51.7222 27.8359C51.7477 27.8174 51.7714 27.7989 51.7987 27.7822C51.8624 27.7471 51.9262 27.7138 51.9899 27.6805C52.1538 27.5603 52.2849 27.4012 52.3833 27.1978C52.4816 26.9888 52.5326 26.7632 52.5326 26.5191C52.5326 26.2768 52.4816 26.0511 52.3833 25.8403C52.2867 25.6387 52.1556 25.4778 51.9899 25.3576V25.3595Z" fill="#F075A7"/>
<path d="M116.018 40.1494C116.291 40.1605 116.544 40.1014 116.781 39.9756C117.027 39.8942 117.238 39.7555 117.418 39.5595C117.611 39.3764 117.748 39.1618 117.828 38.9122C117.952 38.6717 118.008 38.4147 117.999 38.1372L117.928 37.6028C117.833 37.2625 117.664 36.9666 117.418 36.715L117.017 36.4006C116.708 36.2194 116.375 36.1269 116.018 36.1269C115.745 36.1158 115.491 36.175 115.255 36.3008C115.009 36.3821 114.798 36.5208 114.617 36.7169C114.424 36.9 114.288 37.1145 114.208 37.3642C114.084 37.6046 114.027 37.8617 114.036 38.1391L114.107 38.6736C114.202 39.0139 114.371 39.3098 114.617 39.5613L115.018 39.8757C115.327 40.057 115.661 40.1494 116.018 40.1494Z" fill="#F075A7"/>
<path d="M11.9823 40.1494C12.2555 40.1605 12.5086 40.1014 12.7453 39.9756C12.9912 39.8942 13.2024 39.7555 13.3827 39.5595C13.5758 39.3764 13.7123 39.1618 13.7925 38.9122C13.9163 38.6717 13.9728 38.4147 13.9636 38.1372L13.8926 37.6028C13.7979 37.2625 13.6286 36.9666 13.3827 36.715L12.9821 36.4006C12.6725 36.2194 12.3392 36.1269 11.9823 36.1269C11.7091 36.1158 11.456 36.175 11.2193 36.3008C10.9734 36.3821 10.7622 36.5208 10.5819 36.7169C10.3888 36.9 10.2523 37.1145 10.1721 37.3642C10.0483 37.6046 9.99184 37.8617 10.0009 38.1391L10.072 38.6736C10.1667 39.0139 10.336 39.3098 10.5819 39.5613L10.9825 39.8757C11.2921 40.057 11.6254 40.1494 11.9823 40.1494Z" fill="#F075A7"/>
</svg>
